{"glyphs":{"0":{"ha":958,"x_min":67,"x_max":892,"o":"m 608 632 q 573 728 608 696 q 478 760 538 760 q 385 728 419 760 q 350 632 350 696 l 350 396 q 385 299 350 331 q 478 268 419 268 q 573 299 538 268 q 608 396 608 331 l 608 632 m 892 439 q 787 99 892 211 q 479 -14 682 -14 q 172 99 276 -14 q 67 439 67 211 l 67 589 q 172 928 67 815 q 479 1040 276 1040 q 787 928 682 1040 q 892 589 892 815 l 892 439 z "},"1":{"ha":575,"x_min":25,"x_max":508,"o":"m 228 551 q 156 532 193 532 q 103 543 128 532 q 62 574 79 554 q 35 619 44 593 q 25 674 25 644 q 74 788 25 739 l 267 979 q 325 1021 296 1007 q 392 1035 354 1035 q 476 1006 443 1035 q 508 906 508 978 l 508 133 q 467 28 508 65 q 368 -8 426 -8 q 269 28 310 -8 q 228 133 228 65 l 228 551 z "},"2":{"ha":957,"x_min":61,"x_max":899,"o":"m 96 0 q 61 43 61 0 l 61 328 q 136 572 61 488 q 363 656 211 656 l 594 656 q 651 699 651 656 q 594 742 651 742 l 214 742 q 112 777 147 742 q 76 888 76 813 q 108 992 76 957 q 211 1026 140 1026 l 575 1026 q 899 699 899 1026 q 823 455 899 539 q 596 371 747 371 l 364 371 q 321 360 333 371 q 308 328 308 350 l 308 285 l 746 285 q 899 142 899 285 q 747 0 899 0 l 96 0 z "},"3":{"ha":888,"x_min":47,"x_max":853,"o":"m 182 0 q 47 142 47 0 q 183 285 47 285 l 496 285 q 553 328 553 285 q 496 371 553 371 l 186 371 q 51 514 51 371 q 185 656 51 656 l 496 656 q 553 699 553 656 q 496 742 553 742 l 176 742 q 47 885 47 742 q 175 1026 47 1026 l 596 1026 q 713 1006 664 1026 q 792 951 761 986 q 838 869 824 917 q 853 765 853 821 q 801 591 853 654 q 654 514 749 528 q 803 432 753 499 q 853 261 853 365 q 838 158 853 206 q 792 75 824 110 q 713 20 761 40 q 600 0 665 0 l 182 0 z "},"4":{"ha":919,"x_min":56,"x_max":853,"o":"m 568 371 l 196 371 q 56 514 56 371 l 56 894 q 97 999 56 964 q 196 1035 139 1035 q 296 999 254 1035 q 338 894 338 964 l 338 656 l 568 656 l 568 894 q 580 955 568 929 q 611 999 592 981 q 656 1026 631 1017 q 708 1035 681 1035 q 810 999 767 1035 q 853 894 853 964 l 853 132 q 810 28 853 64 q 708 -8 767 -8 q 610 28 653 -8 q 568 132 568 64 l 568 371 z "},"5":{"ha":953,"x_min":67,"x_max":900,"o":"m 218 0 q 67 139 67 0 q 221 285 67 285 l 597 285 q 654 328 654 285 q 597 371 654 371 l 131 371 q 75 436 75 371 l 75 969 q 128 1026 75 1026 l 750 1026 q 885 888 885 1026 q 749 742 885 742 l 358 742 l 358 656 l 599 656 q 826 573 753 656 q 900 328 900 490 q 582 0 900 0 l 218 0 z "},"6":{"ha":939,"x_min":63,"x_max":881,"o":"m 390 371 q 344 328 344 371 q 390 285 344 285 l 576 285 q 635 328 635 285 q 576 371 635 371 l 390 371 m 364 0 q 135 83 207 0 q 63 335 63 167 l 63 703 q 385 1026 63 1026 l 729 1026 q 865 888 865 1026 q 831 779 865 817 q 728 742 797 742 l 404 742 q 361 726 378 742 q 344 682 344 711 l 344 646 l 579 646 q 881 328 881 646 q 561 0 881 0 l 364 0 z "},"7":{"ha":871,"x_min":22,"x_max":857,"o":"m 339 83 q 278 15 307 38 q 201 -8 249 -8 q 142 3 168 -8 q 98 33 115 14 q 72 76 81 51 q 63 126 63 100 q 69 170 63 144 q 94 225 75 196 l 453 742 l 165 742 q 105 753 132 742 q 60 785 78 765 q 32 830 42 804 q 22 885 22 856 q 60 985 22 943 q 165 1026 97 1026 l 724 1026 q 819 993 782 1026 q 857 897 857 960 q 851 856 857 878 q 831 810 846 833 l 339 83 z "},"8":{"ha":906,"x_min":35,"x_max":871,"o":"m 394 742 q 338 699 338 742 q 394 656 338 656 l 514 656 q 571 699 571 656 q 514 742 571 742 l 394 742 m 394 371 q 338 328 338 371 q 394 285 338 285 l 514 285 q 571 328 571 285 q 514 371 571 371 l 394 371 m 290 0 q 175 20 224 0 q 95 76 126 40 q 49 159 64 111 q 35 264 35 207 q 90 439 35 379 q 236 514 144 499 q 88 590 140 529 q 35 763 35 651 q 49 867 35 818 q 95 951 64 915 q 176 1006 126 986 q 293 1026 225 1026 l 614 1026 q 731 1006 682 1026 q 810 951 779 986 q 856 869 842 917 q 871 765 871 821 q 819 591 871 654 q 672 514 767 528 q 820 432 769 499 q 871 261 871 365 q 856 158 871 206 q 810 75 842 110 q 731 20 779 40 q 617 0 683 0 l 290 0 z "},"9":{"ha":939,"x_min":58,"x_max":876,"o":"m 361 742 q 304 699 304 742 q 361 656 304 656 l 549 656 q 594 699 594 656 q 549 742 594 742 l 361 742 m 218 0 q 82 139 82 0 q 219 285 82 285 l 535 285 q 578 300 561 285 q 594 344 594 315 l 594 382 l 360 382 q 58 699 58 382 q 378 1026 58 1026 l 575 1026 q 803 943 731 1026 q 876 692 876 860 l 876 324 q 554 0 876 0 l 218 0 z "},"\u0017":{"ha":433,"x_min":0,"x_max":0,"o":""}," ":{"ha":433,"x_min":0,"x_max":0,"o":""},"!":{"ha":415,"x_min":67,"x_max":349,"o":"m 208 -8 q 153 3 179 -8 q 108 33 128 14 q 78 78 89 53 q 67 133 67 104 q 78 189 67 163 q 108 235 89 215 q 153 266 128 254 q 208 278 179 278 q 263 266 238 278 q 308 235 289 254 q 338 189 326 215 q 349 133 349 163 q 338 78 349 104 q 307 33 326 53 q 263 3 288 14 q 208 -8 238 -8 m 67 894 q 109 999 67 963 q 208 1035 151 1035 q 308 999 267 1035 q 349 894 349 964 l 349 476 q 308 372 349 410 q 208 333 267 333 q 153 343 179 333 q 108 372 128 353 q 78 417 89 390 q 67 476 67 443 l 67 894 z "},"\"":{"ha":504,"x_min":28,"x_max":476,"o":"m 285 1000 q 313 1070 285 1044 q 381 1096 342 1096 q 449 1070 421 1096 q 476 1000 476 1044 l 476 790 q 449 718 476 743 q 381 693 421 693 q 313 718 342 693 q 285 790 285 743 l 285 1000 m 28 1000 q 56 1070 28 1044 q 122 1096 83 1096 q 191 1070 163 1096 q 219 1000 219 1044 l 219 790 q 191 718 219 743 q 122 693 163 693 q 56 718 83 693 q 28 790 28 743 l 28 1000 z "},"#":{"ha":944,"x_min":36,"x_max":908,"o":"m 551 607 l 394 607 l 394 422 l 551 422 l 551 607 m 753 221 l 753 138 q 722 63 753 89 q 651 36 692 36 q 581 63 611 36 q 551 138 551 89 l 551 221 l 394 221 l 394 138 q 363 63 394 89 q 292 36 332 36 q 222 63 251 36 q 193 138 193 89 l 193 221 l 136 221 q 63 250 89 221 q 36 319 36 279 q 63 391 36 360 q 136 422 89 422 l 193 422 l 193 607 l 136 607 q 63 637 89 607 q 36 707 36 667 q 63 778 36 747 q 136 808 89 808 l 193 808 l 193 892 q 222 965 193 939 q 292 992 251 992 q 363 965 332 992 q 394 892 394 939 l 394 808 l 551 808 l 551 892 q 581 965 551 939 q 651 992 611 992 q 722 965 692 992 q 753 892 753 939 l 753 808 l 807 808 q 882 778 856 808 q 908 707 908 747 q 882 637 908 667 q 807 607 856 607 l 753 607 l 753 422 l 807 422 q 882 391 856 422 q 908 319 908 360 q 882 250 908 279 q 807 221 856 221 l 753 221 z "},"$":{"ha":940,"x_min":51,"x_max":889,"o":"m 401 742 l 356 742 q 299 699 299 742 q 356 656 299 656 l 401 656 l 401 742 m 586 285 q 643 328 643 285 q 586 371 643 371 l 539 371 l 539 285 l 586 285 m 539 0 l 539 -22 q 517 -76 539 -58 q 471 -93 496 -93 q 423 -76 444 -93 q 401 -22 401 -58 l 401 0 l 203 0 q 67 138 67 0 q 204 285 67 285 l 401 285 l 401 371 l 353 371 q 126 455 201 371 q 51 699 51 539 q 374 1026 51 1026 l 401 1026 l 401 1049 q 423 1102 401 1085 q 471 1119 444 1119 q 517 1102 496 1119 q 539 1049 539 1085 l 539 1026 l 686 1026 q 824 889 824 1026 q 685 742 824 742 l 539 742 l 539 656 l 588 656 q 814 572 739 656 q 889 328 889 488 q 569 0 889 0 l 539 0 z "},"%":{"ha":1200,"x_min":44,"x_max":1156,"o":"m 44 0 m 339 806 q 322 851 339 836 q 275 867 304 867 q 232 851 249 867 q 215 806 215 836 l 215 678 q 232 632 215 647 q 275 617 249 617 q 322 632 304 617 q 339 678 339 647 l 339 806 m 508 701 q 449 510 508 574 q 276 447 390 447 q 104 510 164 447 q 44 701 44 574 l 44 782 q 104 972 44 908 q 276 1035 164 1035 q 449 972 390 1035 q 508 782 508 908 l 508 701 m 756 983 q 794 1023 771 1011 q 842 1035 817 1035 q 914 1006 882 1035 q 946 936 946 978 q 931 883 946 911 l 446 43 q 407 4 431 17 q 360 -8 383 -8 q 287 23 317 -8 q 257 94 257 54 q 271 144 257 121 l 756 983 m 986 350 q 969 396 986 381 q 922 411 951 411 q 879 396 896 411 q 863 350 863 381 l 863 222 q 879 176 863 192 q 922 161 896 161 q 969 176 951 161 q 986 222 986 192 l 986 350 m 1156 246 q 1097 55 1156 118 q 924 -8 1038 -8 q 751 55 811 -8 q 692 246 692 118 l 692 326 q 751 516 692 453 q 924 579 811 579 q 1097 516 1038 579 q 1156 326 1156 453 l 1156 246 z "},"&":{"ha":1004,"x_min":35,"x_max":1004,"o":"m 563 371 l 393 371 q 336 328 336 371 q 393 285 336 285 l 563 285 l 563 371 m 289 0 q 174 20 222 0 q 95 76 126 40 q 49 159 64 111 q 35 264 35 207 q 89 439 35 379 q 235 514 143 499 q 87 590 139 529 q 35 763 35 651 q 49 867 35 818 q 95 951 64 915 q 176 1006 126 986 q 293 1026 225 1026 l 422 1026 q 551 885 551 1026 q 421 742 551 742 l 393 742 q 336 699 336 742 q 393 656 336 656 l 563 656 l 563 678 q 605 783 563 747 q 706 819 647 819 q 805 783 764 819 q 846 678 846 747 l 846 656 l 869 656 q 1004 514 1004 656 q 868 371 1004 371 l 846 371 l 846 142 q 833 77 846 104 q 798 33 819 50 q 749 8 776 17 q 690 0 721 0 l 289 0 z "},"'":{"ha":247,"x_min":28,"x_max":219,"o":"m 28 1000 q 56 1070 28 1044 q 122 1096 83 1096 q 191 1070 163 1096 q 219 1000 219 1044 l 219 790 q 191 718 219 743 q 122 693 163 693 q 56 718 83 693 q 28 790 28 743 l 28 1000 z "},"(":{"ha":539,"x_min":122,"x_max":528,"o":"m 431 -299 q 376 -290 393 -299 q 340 -261 358 -281 q 244 -115 285 -199 q 176 70 203 -31 q 135 284 149 171 q 122 518 122 397 q 135 752 122 639 q 176 966 149 865 q 244 1151 203 1067 q 340 1297 285 1236 q 376 1326 358 1317 q 431 1336 393 1336 q 501 1310 475 1336 q 528 1231 528 1283 q 508 1169 528 1200 q 435 1027 467 1104 q 383 865 404 950 q 351 692 361 781 q 340 518 340 604 q 351 344 340 432 q 383 172 361 256 q 435 10 404 88 q 508 -132 467 -67 q 528 -194 528 -162 q 501 -273 528 -247 q 431 -299 475 -299 z "},")":{"ha":539,"x_min":11,"x_max":417,"o":"m 199 -261 q 163 -290 181 -281 q 107 -299 144 -299 q 37 -273 63 -299 q 11 -194 11 -247 q 31 -132 11 -162 q 103 10 72 -67 q 156 172 135 88 q 188 344 176 256 q 199 518 199 432 q 188 692 199 604 q 156 865 176 781 q 103 1027 135 950 q 31 1169 72 1104 q 11 1231 11 1200 q 37 1310 11 1283 q 107 1336 63 1336 q 163 1326 144 1336 q 199 1297 181 1317 q 295 1151 254 1236 q 363 966 336 1067 q 403 752 390 865 q 417 518 417 639 q 403 284 417 397 q 363 70 390 171 q 295 -115 336 -31 q 199 -261 254 -199 z "},"*":{"ha":718,"x_min":28,"x_max":690,"o":"m 446 543 l 446 432 q 361 339 446 339 q 275 432 275 339 l 275 543 l 163 483 q 140 472 151 476 q 118 468 129 468 q 53 491 78 468 q 28 554 28 514 q 78 631 28 606 l 193 688 l 78 747 q 28 821 28 768 q 53 885 28 861 q 114 910 78 910 q 139 906 128 910 q 161 896 150 903 l 275 835 l 275 949 q 361 1035 275 1035 q 446 949 446 1035 l 446 835 l 558 896 q 606 910 583 910 q 635 903 619 910 q 663 886 650 897 q 683 858 675 875 q 690 821 690 842 q 644 747 690 769 l 525 688 l 644 631 q 679 598 668 615 q 690 554 690 581 q 683 517 690 533 q 663 490 675 501 q 635 474 650 479 q 606 468 619 468 q 560 482 585 468 l 446 543 z "},"+":{"ha":881,"x_min":67,"x_max":814,"o":"m 540 414 l 540 242 q 510 167 540 193 q 439 140 479 140 q 369 167 399 140 q 339 242 339 193 l 339 414 l 167 414 q 93 444 119 414 q 67 513 67 474 q 93 584 67 553 q 167 615 119 615 l 339 615 l 339 788 q 369 861 339 835 q 439 888 399 888 q 510 861 479 888 q 540 788 540 835 l 540 615 l 713 615 q 788 584 761 615 q 814 513 814 553 q 788 444 814 474 q 713 414 761 414 l 540 414 z "},",":{"ha":335,"x_min":28,"x_max":307,"o":"m 240 -104 q 201 -166 228 -143 q 132 -189 175 -189 q 56 -159 83 -189 q 28 -79 28 -129 l 28 122 q 67 235 28 193 q 167 278 107 278 q 217 269 192 278 q 263 242 243 260 q 294 198 282 225 q 307 133 307 171 q 304 101 307 118 q 294 63 301 83 l 240 -104 z "},"-":{"ha":581,"x_min":28,"x_max":553,"o":"m 128 414 q 54 444 81 414 q 28 513 28 474 q 54 584 28 553 q 128 615 81 615 l 453 615 q 526 584 500 615 q 553 513 553 553 q 526 444 553 474 q 453 414 500 414 l 128 414 z "},".":{"ha":338,"x_min":28,"x_max":310,"o":"m 169 -8 q 115 3 140 -8 q 69 33 89 14 q 39 78 50 53 q 28 133 28 104 q 39 189 28 163 q 69 235 50 215 q 115 266 89 254 q 169 278 140 278 q 224 266 199 278 q 269 235 250 254 q 299 189 288 215 q 310 133 310 163 q 299 78 310 104 q 268 33 288 53 q 224 3 249 14 q 169 -8 199 -8 z "},"/":{"ha":481,"x_min":0,"x_max":481,"o":"m 281 1014 q 316 1069 292 1051 q 372 1088 340 1088 q 447 1060 414 1088 q 481 992 481 1033 q 479 973 481 982 q 475 956 478 964 l 200 -22 q 163 -79 189 -62 q 104 -96 136 -96 q 32 -69 64 -96 q 0 -3 0 -43 q 7 38 0 14 l 281 1014 z "},":":{"ha":338,"x_min":28,"x_max":310,"o":"m 28 160 m 169 531 q 115 542 140 531 q 69 572 89 553 q 39 617 50 592 q 28 672 28 643 q 39 728 28 701 q 69 774 50 754 q 115 805 89 793 q 169 817 140 817 q 224 805 199 817 q 269 774 250 793 q 299 728 288 754 q 310 672 310 701 q 299 617 310 643 q 268 572 288 592 q 224 542 249 553 q 169 531 199 531 m 169 160 q 115 171 140 160 q 69 201 89 182 q 39 247 50 221 q 28 301 28 272 q 39 357 28 331 q 69 403 50 383 q 115 434 89 422 q 169 446 140 446 q 224 434 199 446 q 269 403 250 422 q 299 357 288 383 q 310 301 310 331 q 299 247 310 272 q 268 201 288 221 q 224 171 249 182 q 169 160 199 160 z "},";":{"ha":338,"x_min":28,"x_max":310,"o":"m 28 0 m 169 531 q 115 542 140 531 q 69 572 89 553 q 39 617 50 592 q 28 672 28 643 q 39 728 28 701 q 69 774 50 754 q 115 805 89 793 q 169 817 140 817 q 224 805 199 817 q 269 774 250 793 q 299 728 288 754 q 310 672 310 701 q 299 617 310 643 q 268 572 288 592 q 224 542 249 553 q 169 531 199 531 m 242 64 q 203 2 229 25 q 133 -21 176 -21 q 57 9 85 -21 q 29 89 29 39 l 29 290 q 69 403 29 361 q 168 446 108 446 q 219 437 193 446 q 264 410 244 428 q 296 366 283 393 q 308 301 308 339 q 306 269 308 286 q 296 231 303 251 l 242 64 z "},"<":{"ha":881,"x_min":67,"x_max":814,"o":"m 115 425 q 78 463 90 440 q 67 513 67 486 q 78 561 67 538 q 115 600 90 585 l 660 940 q 711 956 685 956 q 784 924 754 956 q 814 850 814 893 q 803 807 814 829 q 765 768 793 785 l 356 511 l 765 257 q 803 218 792 240 q 814 172 814 196 q 784 100 814 131 q 711 69 754 69 q 660 85 685 69 l 115 425 z "},"=":{"ha":881,"x_min":67,"x_max":814,"o":"m 167 249 q 93 278 119 249 q 67 347 67 307 q 93 419 67 388 q 167 450 119 450 l 713 450 q 788 419 761 450 q 814 347 814 388 q 788 278 814 307 q 713 249 761 249 l 167 249 m 167 579 q 93 609 119 579 q 67 678 67 639 q 93 749 67 718 q 167 781 119 781 l 713 781 q 788 749 761 781 q 814 678 814 718 q 788 609 814 639 q 713 579 761 579 l 167 579 z "},">":{"ha":881,"x_min":67,"x_max":814,"o":"m 221 85 q 168 69 196 69 q 97 100 126 69 q 67 174 67 131 q 77 218 67 196 q 115 257 88 240 l 524 513 l 115 768 q 78 807 89 785 q 67 851 67 829 q 97 924 67 893 q 168 956 126 956 q 221 940 196 956 l 765 600 q 802 561 790 585 q 814 511 814 538 q 802 463 814 486 q 765 425 790 440 l 221 85 z "},"?":{"ha":861,"x_min":14,"x_max":836,"o":"m 388 371 q 238 514 238 371 q 385 656 238 656 l 532 656 q 590 699 590 656 q 532 742 590 742 l 161 742 q 52 777 90 742 q 14 886 14 813 q 160 1026 14 1026 l 517 1026 q 836 699 836 1026 q 518 371 836 371 l 388 371 m 374 -8 q 319 3 344 -8 q 274 33 293 14 q 243 78 254 53 q 232 133 232 104 q 243 189 232 163 q 274 235 254 215 q 319 266 293 254 q 374 278 344 278 q 428 266 403 278 q 472 235 453 254 q 503 189 492 215 q 514 133 514 163 q 503 78 514 104 q 472 33 492 53 q 427 3 453 14 q 374 -8 401 -8 z "},"@":{"ha":1135,"x_min":67,"x_max":1068,"o":"m 628 417 l 594 417 q 535 399 554 417 q 515 340 515 382 q 531 281 515 300 q 572 261 547 261 q 611 274 594 261 q 628 315 628 288 l 628 417 m 749 318 q 764 275 749 289 q 806 261 779 261 q 834 267 822 261 q 853 289 846 274 q 865 332 861 304 q 869 401 869 360 q 860 506 869 457 q 825 590 851 554 q 750 648 799 626 q 622 669 701 669 q 474 645 539 669 q 366 576 410 621 q 299 469 322 532 q 276 328 276 406 q 297 196 276 253 q 351 100 317 139 q 434 39 386 61 q 536 10 482 17 q 577 3 557 7 q 614 -12 597 -1 q 640 -42 631 -22 q 650 -93 650 -61 q 511 -207 650 -207 q 348 -169 428 -207 q 206 -62 268 -132 q 105 108 143 7 q 67 333 67 208 q 103 551 67 450 q 208 725 139 651 q 381 840 278 799 q 617 882 483 882 q 801 856 718 882 q 944 775 885 829 q 1036 638 1004 721 q 1068 440 1068 554 q 1048 290 1068 350 q 994 192 1028 229 q 917 140 961 156 q 824 125 872 125 q 726 144 758 125 q 681 179 694 163 q 631 143 664 160 q 557 126 597 126 q 485 144 517 126 q 432 193 454 163 q 399 263 410 224 q 388 347 388 303 q 444 503 388 443 q 610 563 500 563 l 651 563 q 729 535 710 563 q 749 467 749 507 l 749 318 z "},"A":{"ha":990,"x_min":14,"x_max":976,"o":"m 675 139 l 314 139 l 289 85 q 167 -8 247 -8 q 108 1 136 -8 q 60 28 81 11 q 26 71 39 46 q 14 126 14 96 q 15 153 14 139 q 24 183 17 168 l 181 532 q 234 603 201 579 q 306 626 267 626 q 362 616 335 626 q 410 587 389 606 q 444 543 432 568 q 457 488 457 518 q 455 461 457 475 q 446 433 453 447 l 431 396 l 569 396 l 383 843 q 372 899 372 869 q 385 954 372 929 q 419 997 397 979 q 467 1025 440 1015 q 524 1035 494 1035 q 597 1013 564 1035 q 649 943 629 992 l 965 183 q 974 153 972 168 q 976 126 976 139 q 963 71 976 96 q 928 28 950 46 q 879 1 907 11 q 822 -8 851 -8 q 699 85 738 -8 l 675 139 z "},"B":{"ha":921,"x_min":47,"x_max":886,"o":"m 182 0 q 47 142 47 0 q 185 285 47 285 l 529 285 q 586 328 586 285 q 529 371 586 371 l 203 371 q 67 514 67 371 q 200 656 67 656 l 529 656 q 586 699 586 656 q 529 742 586 742 l 185 742 q 54 885 54 742 q 182 1026 54 1026 l 625 1026 q 742 1006 693 1026 q 822 951 790 986 q 868 868 853 917 q 883 764 883 819 q 833 592 883 657 q 688 514 783 528 q 835 432 785 499 q 886 261 886 365 q 871 158 886 206 q 824 75 856 110 q 745 20 793 40 q 632 0 697 0 l 182 0 z "},"C":{"ha":853,"x_min":44,"x_max":818,"o":"m 615 0 q 348 51 460 0 q 161 190 236 101 q 76 340 107 257 q 44 518 44 422 q 97 744 44 640 q 244 919 149 849 q 404 998 313 969 q 624 1026 496 1026 l 663 1026 q 781 983 743 1026 q 818 881 818 939 q 809 827 818 853 q 781 782 800 801 q 732 751 761 763 q 663 739 703 739 l 622 739 q 508 729 549 739 q 438 701 467 719 q 363 627 392 674 q 333 515 333 581 q 350 428 333 468 q 394 358 367 389 q 478 304 426 324 q 619 285 529 285 l 658 285 q 731 273 700 285 q 781 241 761 261 q 809 195 800 221 q 818 140 818 169 q 780 41 818 82 q 658 0 742 0 l 615 0 z "},"D":{"ha":1032,"x_min":67,"x_max":988,"o":"m 444 285 q 551 302 504 285 q 630 351 597 319 q 680 424 663 382 q 697 514 697 465 q 681 601 697 560 q 632 672 664 642 q 553 721 600 703 q 444 739 506 739 l 349 739 l 349 285 l 444 285 m 214 0 q 106 39 144 0 q 67 142 67 78 l 67 885 q 79 937 67 911 q 113 982 92 963 q 160 1014 133 1001 q 214 1026 186 1026 l 424 1026 q 663 986 558 1026 q 840 876 768 946 q 950 713 913 806 q 988 514 988 619 q 949 313 988 407 q 837 150 910 219 q 660 40 764 81 q 425 0 556 0 l 214 0 z "},"E":{"ha":964,"x_min":67,"x_max":917,"o":"m 207 0 q 67 142 67 0 l 67 885 q 207 1026 67 1026 l 771 1026 q 875 985 838 1026 q 913 885 913 943 q 903 830 913 856 q 875 785 893 804 q 831 753 857 765 q 771 742 804 742 l 347 742 l 347 646 l 779 646 q 871 613 838 646 q 904 514 904 581 q 871 415 904 450 q 779 379 838 379 l 347 379 l 347 285 l 774 285 q 878 242 840 285 q 917 142 917 200 q 907 87 917 113 q 878 42 897 61 q 833 11 860 22 q 774 0 807 0 l 207 0 z "},"F":{"ha":919,"x_min":67,"x_max":886,"o":"m 347 371 l 347 132 q 306 28 347 64 q 207 -8 264 -8 q 108 28 149 -8 q 67 132 67 64 l 67 885 q 207 1026 67 1026 l 743 1026 q 848 985 810 1026 q 886 885 886 943 q 876 830 886 856 q 848 785 867 804 q 803 753 829 765 q 743 742 776 742 l 347 742 l 347 656 l 743 656 q 848 614 810 656 q 886 514 886 572 q 848 413 886 456 q 743 371 810 371 l 347 371 z "},"G":{"ha":1117,"x_min":44,"x_max":1117,"o":"m 572 0 q 360 47 457 6 q 192 155 263 88 q 83 315 122 222 q 44 517 44 407 q 83 715 44 622 q 194 877 122 808 q 367 986 265 946 q 594 1026 468 1026 l 831 1026 q 935 983 897 1026 q 972 881 972 939 q 963 827 972 853 q 935 782 953 801 q 890 751 917 763 q 831 739 864 739 l 540 739 q 456 721 494 739 q 391 672 418 703 q 349 600 364 640 q 333 514 333 560 q 352 422 333 464 q 403 350 371 381 q 478 302 435 319 q 571 285 521 285 l 635 285 l 738 546 l 988 546 q 1117 417 1117 546 q 988 285 1117 285 l 900 285 l 803 0 l 572 0 z "},"H":{"ha":929,"x_min":67,"x_max":863,"o":"m 581 371 l 350 371 l 350 132 q 338 72 350 99 q 307 28 326 46 q 262 1 288 10 q 207 -8 236 -8 q 108 28 149 -8 q 67 132 67 64 l 67 894 q 108 999 67 964 q 207 1035 149 1035 q 262 1026 236 1035 q 307 999 288 1017 q 338 955 326 981 q 350 894 350 929 l 350 656 l 581 656 l 581 894 q 622 999 581 964 q 721 1035 664 1035 q 821 999 779 1035 q 863 894 863 964 l 863 132 q 821 28 863 64 q 721 -8 779 -8 q 622 28 664 -8 q 581 132 581 64 l 581 371 z "},"J":{"ha":757,"x_min":14,"x_max":690,"o":"m 156 0 q 51 42 89 0 q 14 142 14 83 q 51 242 14 200 q 156 285 89 285 l 183 285 q 289 299 249 285 q 356 343 329 314 q 411 525 411 406 l 411 894 q 452 999 411 964 q 551 1035 493 1035 q 650 999 610 1035 q 690 894 690 964 l 690 511 q 646 276 690 379 q 522 107 601 174 q 383 28 463 56 q 199 0 304 0 l 156 0 z "},"K":{"ha":868,"x_min":67,"x_max":846,"o":"m 349 371 l 349 132 q 307 28 349 64 q 208 -8 265 -8 q 108 28 150 -8 q 67 132 67 64 l 67 894 q 108 999 67 964 q 208 1035 150 1035 q 307 999 265 1035 q 349 894 349 964 l 349 656 l 565 958 q 630 1020 599 1006 q 694 1035 661 1035 q 758 1023 731 1035 q 804 992 786 1011 q 831 947 822 972 q 840 897 840 922 q 831 847 840 872 q 796 792 821 822 l 569 518 l 803 236 q 836 183 826 208 q 846 132 846 158 q 835 79 846 104 q 804 35 824 54 q 758 3 785 15 q 701 -8 732 -8 q 639 6 669 -8 q 582 57 608 21 l 349 371 z "},"L":{"ha":647,"x_min":67,"x_max":633,"o":"m 207 0 q 67 142 67 0 l 67 894 q 108 999 67 964 q 207 1035 149 1035 q 306 999 264 1035 q 347 894 347 964 l 347 285 l 499 285 q 599 242 565 285 q 633 142 633 200 q 599 42 633 83 q 499 0 565 0 l 207 0 z "},"M":{"ha":1258,"x_min":22,"x_max":1192,"o":"m 908 742 l 821 742 l 821 132 q 779 28 821 64 q 679 -8 738 -8 q 579 28 621 -8 q 538 132 538 64 l 538 742 l 483 742 l 301 96 q 249 15 285 38 q 172 -8 213 -8 q 116 1 143 -8 q 68 28 89 11 q 35 70 47 46 q 22 124 22 94 q 29 169 22 144 l 231 890 q 292 992 250 957 q 385 1026 333 1026 l 1049 1026 q 1192 885 1192 1026 l 1192 132 q 1150 28 1192 64 q 1050 -8 1108 -8 q 950 28 992 -8 q 908 132 908 64 l 908 742 z "},"N":{"ha":929,"x_min":67,"x_max":863,"o":"m 349 435 l 349 132 q 307 28 349 64 q 207 -8 265 -8 q 108 28 149 -8 q 67 132 67 64 l 67 894 q 108 999 67 964 q 207 1035 149 1035 q 280 1016 254 1035 q 328 963 306 997 l 579 572 l 579 894 q 591 955 579 929 q 622 999 603 981 q 667 1026 642 1017 q 721 1035 693 1035 q 821 999 779 1035 q 863 894 863 964 l 863 132 q 821 28 863 64 q 721 -8 779 -8 q 635 14 664 -8 q 586 67 606 36 l 349 435 z "},"O":{"ha":1139,"x_min":44,"x_max":1094,"o":"m 810 510 q 791 603 810 560 q 740 680 772 647 q 664 732 707 713 q 571 751 621 751 q 478 732 521 751 q 403 680 435 713 q 352 603 371 647 q 333 510 333 560 q 352 417 333 460 q 403 341 371 374 q 478 290 435 308 q 571 271 521 271 q 664 290 621 271 q 740 341 707 308 q 791 417 772 374 q 810 510 810 460 m 1094 513 q 1053 308 1094 404 q 940 141 1011 213 q 772 28 868 69 q 568 -14 676 -14 q 365 28 460 -14 q 198 141 269 69 q 85 308 126 213 q 44 513 44 404 q 85 718 44 622 q 198 885 126 814 q 365 999 269 957 q 568 1040 460 1040 q 772 999 676 1040 q 940 885 868 957 q 1053 718 1011 814 q 1094 513 1094 622 z "},"P":{"ha":914,"x_min":67,"x_max":889,"o":"m 350 371 l 350 138 q 207 -8 350 -8 q 101 28 133 -8 q 68 138 68 64 l 68 482 q 106 613 68 569 q 228 656 144 656 l 585 656 q 643 699 643 656 q 585 742 643 742 l 204 742 q 102 778 138 742 q 67 885 67 814 q 99 991 67 956 q 203 1026 131 1026 l 569 1026 q 889 699 889 1026 q 571 371 889 371 l 350 371 z "},"Q":{"ha":1139,"x_min":44,"x_max":1094,"o":"m 508 364 q 477 406 489 385 q 465 463 465 426 q 503 567 465 525 q 614 610 540 610 q 665 601 642 610 q 713 568 689 592 l 810 472 q 814 518 814 494 q 796 608 814 565 q 746 682 778 650 q 667 733 714 714 q 565 753 621 753 q 462 732 507 753 q 387 677 417 711 q 342 599 357 643 q 326 508 326 554 q 343 415 326 458 q 390 338 360 371 q 464 286 421 306 q 558 267 507 267 q 580 267 569 267 q 597 269 590 268 l 508 364 m 818 54 q 698 5 760 24 q 563 -14 636 -14 q 362 27 456 -14 q 197 140 268 68 q 85 307 126 211 q 44 513 44 403 q 85 718 44 622 q 197 885 126 814 q 363 999 268 957 q 568 1040 458 1040 q 772 999 676 1040 q 940 886 868 957 q 1053 719 1011 815 q 1094 515 1094 624 q 1076 378 1094 440 q 1025 258 1057 317 q 1069 193 1057 222 q 1082 139 1082 164 q 1070 85 1082 111 q 1039 39 1058 60 q 992 6 1019 18 q 935 -7 965 -7 q 883 6 910 -7 q 818 54 856 18 z "},"R":{"ha":897,"x_min":50,"x_max":872,"o":"m 132 358 q 76 426 99 390 q 53 514 53 463 q 92 617 53 578 q 213 656 132 656 l 569 656 q 626 699 626 656 q 569 742 626 742 l 188 742 q 86 777 122 742 q 50 888 50 813 q 186 1026 50 1026 l 554 1026 q 872 697 872 1026 q 846 538 872 599 q 777 445 819 478 q 681 402 735 413 q 571 392 626 392 l 521 392 l 664 254 q 706 201 692 226 q 719 139 719 175 q 683 34 719 76 q 583 -8 646 -8 q 461 43 522 -8 l 132 358 z "},"S":{"ha":926,"x_min":44,"x_max":882,"o":"m 196 0 q 60 138 60 0 q 197 285 60 285 l 578 285 q 635 328 635 285 q 578 371 635 371 l 346 371 q 119 455 194 371 q 44 699 44 539 q 367 1026 44 1026 l 679 1026 q 815 889 815 1026 q 678 742 815 742 l 347 742 q 290 699 290 742 q 347 656 290 656 l 581 656 q 807 572 732 656 q 882 328 882 488 q 563 0 882 0 l 196 0 z "},"T":{"ha":793,"x_min":14,"x_max":779,"o":"m 257 742 l 157 742 q 97 753 124 742 q 52 785 71 765 q 24 830 33 804 q 14 885 14 856 q 52 985 14 943 q 157 1026 90 1026 l 636 1026 q 741 985 703 1026 q 779 885 779 943 q 769 830 779 856 q 741 785 760 804 q 696 753 722 765 q 636 742 669 742 l 539 742 l 539 133 q 497 29 539 65 q 397 -7 456 -7 q 298 29 339 -7 q 257 133 257 65 l 257 742 z "},"U":{"ha":917,"x_min":60,"x_max":857,"o":"m 574 894 q 615 999 574 964 q 714 1035 657 1035 q 815 999 772 1035 q 857 894 857 964 l 857 439 q 460 -14 857 -14 q 158 99 257 -14 q 60 439 60 211 l 60 894 q 102 999 60 963 q 201 1035 144 1035 q 301 999 260 1035 q 343 894 343 964 l 343 396 q 458 268 343 268 q 574 396 574 268 l 574 894 z "},"V":{"ha":940,"x_min":14,"x_max":926,"o":"m 25 843 q 16 872 18 858 q 14 897 14 886 q 26 953 14 928 q 60 997 39 979 q 107 1025 81 1015 q 161 1035 133 1035 q 239 1011 204 1035 q 290 943 274 988 l 469 474 l 650 943 q 702 1013 669 992 q 776 1035 735 1035 q 831 1025 804 1035 q 879 997 858 1015 q 913 953 900 979 q 926 897 926 928 q 924 871 926 886 q 917 843 922 856 l 608 88 q 475 -8 569 -8 q 397 11 438 -8 q 333 88 357 31 l 25 843 z "},"W":{"ha":1258,"x_min":22,"x_max":1192,"o":"m 385 0 q 292 35 333 0 q 231 136 250 69 l 29 857 q 22 903 22 882 q 35 956 22 932 q 68 998 47 981 q 116 1025 89 1015 q 172 1035 143 1035 q 249 1012 213 1035 q 301 931 285 989 l 483 285 l 538 285 l 538 894 q 579 999 538 963 q 679 1035 621 1035 q 779 999 738 1035 q 821 894 821 963 l 821 285 l 908 285 l 908 894 q 950 999 908 963 q 1050 1035 992 1035 q 1150 999 1108 1035 q 1192 894 1192 963 l 1192 142 q 1049 0 1192 0 l 385 0 z "},"X":{"ha":808,"x_min":22,"x_max":786,"o":"m 404 264 l 301 83 q 242 11 271 31 q 174 -8 213 -8 q 110 4 138 -8 q 63 37 82 17 q 35 81 44 57 q 25 126 25 104 q 33 172 25 147 q 60 225 40 197 l 246 511 l 57 803 q 22 900 22 858 q 32 947 22 922 q 60 990 42 971 q 107 1022 79 1010 q 171 1035 135 1035 q 238 1016 210 1035 q 299 944 267 997 l 404 771 l 508 944 q 569 1016 540 997 q 636 1035 599 1035 q 700 1022 672 1035 q 747 990 728 1010 q 776 947 767 971 q 786 900 786 922 q 750 803 786 857 l 561 511 l 749 225 q 785 126 785 169 q 775 81 785 104 q 746 37 765 57 q 699 4 726 17 q 635 -8 671 -8 q 567 11 597 -8 q 507 83 538 31 l 404 264 z "},"Y":{"ha":814,"x_min":11,"x_max":803,"o":"m 267 446 l 33 819 q 16 858 21 839 q 11 896 11 878 q 23 953 11 928 q 56 997 35 979 q 103 1025 76 1015 q 158 1035 129 1035 q 276 963 235 1035 l 407 739 l 536 963 q 656 1035 578 1035 q 718 1023 690 1035 q 765 992 746 1011 q 793 947 783 972 q 803 896 803 922 q 797 857 803 876 q 781 819 792 838 l 549 446 l 549 132 q 507 28 549 64 q 408 -8 465 -8 q 308 28 350 -8 q 267 132 267 64 l 267 446 z "},"Z":{"ha":890,"x_min":31,"x_max":860,"o":"m 186 0 q 73 33 115 0 q 31 128 31 65 q 45 194 31 164 q 86 257 60 224 l 468 742 l 176 742 q 117 753 143 742 q 72 785 90 765 q 44 830 54 804 q 35 885 35 856 q 72 985 35 943 q 176 1026 108 1026 l 724 1026 q 819 993 779 1026 q 858 889 858 960 q 851 845 858 865 q 822 796 844 825 l 443 285 l 717 285 q 822 242 783 285 q 860 142 860 200 q 850 87 860 113 q 822 42 840 61 q 776 11 803 22 q 717 0 750 0 l 186 0 z "},"[":{"ha":583,"x_min":122,"x_max":572,"o":"m 122 -285 l 122 1313 l 465 1313 q 572 1207 572 1313 q 465 1103 572 1103 l 333 1103 l 333 -76 l 465 -76 q 572 -181 572 -76 q 465 -285 572 -285 l 122 -285 z "},"\\":{"ha":481,"x_min":0,"x_max":481,"o":"m 6 956 q 1 973 3 964 q 0 992 0 982 q 9 1030 0 1013 q 33 1060 18 1047 q 68 1081 49 1074 q 108 1088 88 1088 q 165 1069 140 1088 q 200 1014 189 1051 l 474 38 q 481 -3 481 14 q 449 -69 481 -43 q 376 -96 418 -96 q 318 -79 344 -96 q 281 -22 292 -62 l 6 956 z "},"]":{"ha":582,"x_min":11,"x_max":460,"o":"m 117 -285 q 11 -181 11 -285 q 117 -76 11 -76 l 249 -76 l 249 1103 l 117 1103 q 11 1207 11 1103 q 117 1313 11 1313 l 460 1313 l 460 -285 l 117 -285 z "},"^":{"ha":789,"x_min":33,"x_max":756,"o":"m 394 738 l 221 463 q 182 425 204 436 q 136 414 160 414 q 64 444 94 414 q 33 515 33 474 q 47 568 33 542 l 307 979 q 346 1015 322 1004 q 396 1026 369 1026 q 443 1015 419 1026 q 482 979 467 1004 l 740 568 q 756 515 756 543 q 724 444 756 474 q 650 414 693 414 q 606 424 628 414 q 568 463 585 435 l 394 738 z "},"_":{"ha":739,"x_min":-57,"x_max":797,"o":"m 47 -257 q -57 -153 -57 -257 q 47 -47 -57 -47 l 694 -47 q 797 -153 797 -47 q 694 -257 797 -257 l 47 -257 z "},"`":{"ha":454,"x_min":28,"x_max":426,"o":"m 74 1188 q 39 1221 50 1201 q 28 1263 28 1240 q 58 1339 28 1311 q 124 1367 88 1367 q 178 1347 150 1367 l 386 1196 q 426 1126 426 1167 q 401 1069 426 1094 q 343 1043 376 1043 q 296 1057 319 1043 l 74 1188 z "},"I":{"ha":415,"x_min":67,"x_max":349,"o":"m 67 894 q 108 999 67 964 q 208 1035 150 1035 q 307 999 265 1035 q 349 894 349 964 l 349 132 q 307 28 349 64 q 208 -8 265 -8 q 108 28 150 -8 q 67 132 67 64 l 67 894 z "},"{":{"ha":717,"x_min":0,"x_max":692,"o":"m 456 4 q 465 -37 456 -22 q 490 -61 475 -53 q 521 -72 504 -69 q 553 -75 538 -75 q 612 -81 586 -76 q 656 -98 638 -86 q 683 -131 674 -110 q 692 -185 692 -151 q 662 -263 692 -242 q 557 -285 632 -285 q 329 -211 410 -285 q 249 4 249 -137 l 249 207 q 239 312 249 274 q 212 369 229 350 q 168 394 194 388 q 108 404 142 400 q 24 444 47 413 q 0 521 0 476 q 10 574 0 554 q 35 606 19 594 q 72 623 51 618 q 113 631 92 628 q 169 641 144 635 q 213 667 194 647 q 240 724 231 686 q 249 829 249 761 l 249 1025 q 329 1239 249 1165 q 557 1313 410 1313 q 662 1290 632 1313 q 692 1213 692 1268 q 655 1126 692 1147 q 553 1101 618 1104 q 524 1099 540 1101 q 492 1090 507 1097 q 466 1067 476 1082 q 456 1025 456 1051 l 456 860 q 451 753 456 801 q 433 663 447 704 q 391 587 418 622 q 318 517 364 551 q 391 447 364 482 q 433 371 418 411 q 451 283 447 331 q 456 175 456 235 l 456 4 z "},"|":{"ha":428,"x_min":108,"x_max":319,"o":"m 108 1085 q 134 1165 108 1138 q 214 1193 160 1193 q 293 1165 267 1193 q 319 1085 319 1138 l 319 -97 q 214 -203 319 -203 q 108 -97 108 -203 l 108 1085 z "},"}":{"ha":717,"x_min":25,"x_max":717,"o":"m 468 4 q 388 -211 468 -137 q 160 -285 307 -285 q 55 -263 85 -285 q 25 -185 25 -242 q 34 -131 25 -151 q 61 -98 43 -110 q 105 -81 79 -86 q 164 -75 131 -76 q 196 -72 179 -75 q 227 -61 213 -69 q 251 -37 242 -53 q 261 4 261 -22 l 261 175 q 265 283 261 235 q 284 371 269 331 q 326 447 299 411 q 399 517 353 482 q 326 587 353 551 q 284 663 299 622 q 265 753 269 704 q 261 860 261 801 l 261 1025 q 251 1067 261 1051 q 225 1090 240 1082 q 193 1099 210 1097 q 164 1101 176 1101 q 62 1126 99 1104 q 25 1213 25 1147 q 55 1290 25 1268 q 160 1313 85 1313 q 388 1239 307 1313 q 468 1025 468 1165 l 468 829 q 477 724 468 761 q 504 667 486 686 q 547 641 522 647 q 604 631 572 635 q 645 623 625 628 q 681 606 665 618 q 707 574 697 594 q 717 521 717 554 q 693 444 717 476 q 608 404 669 413 q 549 394 575 400 q 505 369 522 388 q 478 312 488 350 q 468 207 468 274 l 468 4 z "},"~":{"ha":893,"x_min":67,"x_max":826,"o":"m 826 549 q 809 478 826 510 q 762 424 792 447 q 690 389 732 401 q 600 376 649 376 q 505 393 551 376 q 414 433 458 410 q 358 458 383 449 q 303 468 332 468 q 263 455 276 468 q 225 415 249 442 q 192 391 213 401 q 140 381 171 381 q 89 403 111 381 q 67 464 67 425 q 83 534 67 503 q 131 588 100 565 q 203 624 161 611 q 293 636 244 636 q 388 619 340 636 q 479 579 435 603 q 534 553 508 564 q 590 543 560 543 q 631 557 617 543 q 668 597 644 571 q 701 622 681 611 q 751 632 721 632 q 804 610 782 632 q 826 549 826 588 z "},"¡":{"ha":415,"x_min":67,"x_max":349,"o":"m 207 896 q 262 885 236 896 q 307 854 288 874 q 338 809 326 835 q 349 754 349 783 q 338 699 349 725 q 307 653 326 672 q 262 622 288 633 q 207 610 236 610 q 152 622 178 610 q 108 653 126 633 q 78 699 89 672 q 67 754 67 725 q 78 809 67 783 q 108 854 89 835 q 153 885 128 874 q 207 896 178 896 m 349 -7 q 338 -68 349 -42 q 307 -112 326 -94 q 262 -138 288 -129 q 207 -147 236 -147 q 108 -112 149 -147 q 67 -7 67 -76 l 67 411 q 108 516 67 478 q 207 554 149 554 q 262 544 236 554 q 307 516 288 535 q 338 471 326 497 q 349 411 349 444 l 349 -7 z "},"¢":{"ha":856,"x_min":44,"x_max":818,"o":"m 628 285 q 718 273 682 285 q 776 241 754 261 q 808 195 799 221 q 818 140 818 169 q 808 86 818 111 q 776 42 799 61 q 717 11 754 22 q 628 0 681 0 q 606 -73 628 -53 q 558 -93 585 -93 q 533 -88 546 -93 q 511 -72 521 -83 q 495 -40 501 -60 q 489 10 489 -21 q 301 74 383 28 q 161 188 218 121 q 74 340 104 256 q 44 518 44 424 q 73 691 44 608 q 157 840 101 774 q 296 953 213 907 q 489 1018 379 1000 q 510 1099 489 1078 q 558 1119 532 1119 q 606 1099 585 1119 q 628 1026 628 1079 q 717 1015 681 1026 q 776 983 754 1003 q 808 936 799 963 q 818 881 818 910 q 808 827 818 853 q 776 782 799 801 q 717 751 754 763 q 628 739 681 739 l 628 285 m 489 724 q 432 699 460 715 q 383 656 404 682 q 347 594 361 629 q 333 517 333 560 q 374 385 333 446 q 489 300 414 325 l 489 724 z "},"£":{"ha":944,"x_min":35,"x_max":894,"o":"m 178 0 q 118 11 144 0 q 73 42 92 22 q 44 87 54 61 q 35 142 35 113 q 73 242 35 200 q 178 285 111 285 l 178 414 l 154 414 q 81 444 107 414 q 54 513 54 474 q 81 584 54 553 q 154 615 107 615 l 183 615 q 242 794 199 715 q 349 928 285 872 q 488 1008 410 981 q 674 1035 567 1035 l 715 1035 q 820 993 782 1035 q 858 893 858 951 q 849 838 858 864 q 820 793 839 813 q 775 762 801 774 q 715 750 749 750 l 688 750 q 583 735 624 750 q 515 692 542 721 q 491 658 500 676 q 475 615 482 639 l 793 615 q 867 584 842 615 q 893 513 893 553 q 867 444 893 474 q 793 414 842 414 l 461 414 l 461 285 l 751 285 q 857 242 819 285 q 894 142 894 200 q 885 87 894 113 q 857 42 875 61 q 812 11 839 22 q 751 0 785 0 l 178 0 z "},"¤":{"ha":881,"x_min":46,"x_max":832,"o":"m 604 510 q 591 574 604 543 q 555 627 578 604 q 501 663 532 650 q 436 676 471 676 q 371 663 401 676 q 317 627 340 650 q 281 574 294 604 q 268 508 268 543 q 281 444 268 474 q 317 391 294 414 q 371 355 340 368 q 436 342 401 342 q 501 355 471 342 q 555 391 532 368 q 591 444 578 414 q 604 510 604 475 m 435 183 q 358 192 394 183 q 288 217 321 201 l 219 149 q 147 117 188 117 q 109 125 128 117 q 76 147 90 133 q 54 180 63 161 q 46 219 46 199 q 53 256 46 238 q 76 290 60 274 l 146 361 q 114 508 114 428 q 149 658 114 589 l 76 731 q 53 764 60 747 q 46 799 46 781 q 54 840 46 821 q 77 872 63 858 q 110 894 92 886 q 150 903 129 903 q 185 896 167 903 q 219 874 204 889 l 293 799 q 435 831 357 831 q 513 822 475 831 q 582 797 550 813 l 658 874 q 726 903 688 903 q 801 872 771 903 q 832 801 832 842 q 801 731 832 761 l 726 656 q 761 510 761 589 q 752 433 761 469 q 728 363 743 396 l 801 290 q 832 219 832 260 q 824 182 832 200 q 802 149 815 164 q 770 126 789 135 q 731 117 751 117 q 658 149 690 117 l 588 219 q 435 183 518 183 z "},"¥":{"ha":872,"x_min":40,"x_max":832,"o":"m 578 318 l 578 132 q 536 28 578 64 q 438 -8 494 -8 q 338 28 379 -8 q 296 132 296 64 l 296 318 l 163 318 q 89 347 115 318 q 63 417 63 376 q 89 488 63 457 q 163 519 115 519 l 250 519 l 63 819 q 45 858 50 839 q 40 896 40 878 q 52 953 40 928 q 85 997 64 979 q 132 1025 106 1015 q 188 1035 158 1035 q 306 963 264 1035 l 436 739 l 565 963 q 685 1035 607 1035 q 747 1023 719 1035 q 794 992 775 1011 q 822 947 813 972 q 832 896 832 922 q 826 857 832 876 q 810 819 821 838 l 624 519 l 708 519 q 783 488 757 519 q 810 417 810 457 q 783 347 810 376 q 708 318 757 318 l 578 318 z "},"¨":{"ha":581,"x_min":28,"x_max":553,"o":"m 132 1090 q 58 1121 89 1090 q 28 1194 28 1151 q 58 1267 28 1236 q 132 1299 89 1299 q 204 1267 174 1299 q 235 1194 235 1236 q 204 1121 235 1151 q 132 1090 174 1090 m 450 1090 q 377 1121 407 1090 q 347 1194 347 1151 q 377 1267 347 1236 q 450 1299 407 1299 q 523 1267 493 1299 q 553 1194 553 1236 q 523 1121 553 1151 q 450 1090 493 1090 z "},"©":{"ha":1139,"x_min":44,"x_max":1094,"o":"m 592 283 q 492 302 538 283 q 415 353 447 321 q 363 431 382 386 q 344 525 344 475 q 363 618 344 575 q 414 694 381 661 q 495 745 447 726 q 603 764 543 764 l 640 764 q 690 744 672 764 q 707 696 707 724 q 690 649 707 669 q 640 629 672 629 l 578 629 q 507 598 535 629 q 479 524 479 567 q 512 448 479 478 q 592 418 544 418 l 640 418 q 690 397 672 418 q 707 349 707 376 q 690 302 707 321 q 640 283 672 283 l 592 283 m 571 114 q 725 145 653 114 q 851 230 797 176 q 935 356 904 283 q 965 510 965 428 q 935 663 965 590 q 851 790 904 736 q 725 876 797 844 q 571 908 653 908 q 417 876 489 908 q 293 790 346 844 q 210 663 240 736 q 179 510 179 590 q 210 356 179 428 q 293 230 240 283 q 417 145 346 176 q 571 114 489 114 m 1094 513 q 1053 308 1094 404 q 940 141 1011 213 q 772 28 868 69 q 568 -14 676 -14 q 365 28 460 -14 q 198 141 269 69 q 85 308 126 213 q 44 513 44 404 q 85 718 44 622 q 198 885 126 814 q 365 999 269 957 q 568 1040 460 1040 q 772 999 676 1040 q 940 885 868 957 q 1053 718 1011 814 q 1094 513 1094 622 z "},"ª":{"ha":549,"x_min":28,"x_max":521,"o":"m 190 586 q 156 528 175 542 q 118 515 138 515 q 67 534 90 515 q 43 582 43 553 q 45 601 43 589 q 57 635 47 613 l 203 983 q 265 1028 222 1028 q 317 1009 294 1028 q 340 954 340 990 q 336 933 340 943 l 243 713 l 314 713 q 302 744 304 735 q 300 760 300 753 q 323 810 300 792 q 374 829 346 829 q 438 782 417 829 l 513 613 q 518 583 518 597 q 495 534 518 553 q 443 515 472 515 q 406 529 424 515 q 371 586 388 543 l 190 586 m 106 290 q 49 313 69 290 q 28 368 28 336 q 49 423 28 399 q 106 447 69 447 l 443 447 q 500 423 479 447 q 521 368 521 399 q 500 313 521 336 q 443 290 479 290 l 106 290 z "},"«":{"ha":714,"x_min":0,"x_max":686,"o":"m 0 0 m 11 390 q 0 439 0 413 q 11 488 0 464 l 160 825 q 199 872 175 858 q 250 886 224 886 q 325 858 293 886 q 357 790 357 831 q 353 763 357 775 q 343 739 349 750 l 211 439 l 343 139 q 352 115 347 128 q 357 86 357 101 q 325 19 357 47 q 250 -8 293 -8 q 199 6 224 -8 q 160 53 175 19 l 11 390 m 340 390 q 329 439 329 413 q 340 488 329 464 l 489 825 q 528 872 504 858 q 579 886 553 886 q 654 858 622 886 q 686 790 686 831 q 682 763 686 775 q 672 739 678 750 l 540 439 l 672 139 q 681 115 676 128 q 686 86 686 101 q 654 19 686 47 q 579 -8 622 -8 q 528 6 553 -8 q 489 53 504 19 l 340 390 z "},"®":{"ha":689,"x_min":28,"x_max":661,"o":"m 583 719 q 565 812 583 768 q 513 889 546 856 q 438 942 481 922 q 344 961 394 961 q 251 942 294 961 q 176 889 208 922 q 126 812 144 856 q 108 719 108 768 q 126 627 108 671 q 176 551 144 583 q 251 501 208 519 q 344 482 294 482 q 438 501 394 482 q 513 551 481 519 q 565 627 546 583 q 583 719 583 671 m 661 722 q 636 599 661 657 q 568 499 611 542 q 467 431 525 456 q 343 406 408 406 q 220 431 278 406 q 120 499 163 456 q 53 599 78 542 q 28 722 28 657 q 53 846 28 788 q 120 947 78 904 q 220 1015 163 990 q 343 1040 278 1040 q 467 1015 408 1040 q 568 947 525 990 q 636 846 611 904 q 661 722 661 788 m 326 683 l 311 683 l 311 611 q 265 563 311 563 q 219 611 219 563 l 219 719 q 272 776 219 776 l 388 776 q 407 792 407 776 q 388 806 407 806 l 265 806 q 219 851 219 806 q 264 897 219 897 l 383 897 q 486 796 486 897 q 469 732 486 753 q 425 700 453 711 l 475 639 q 486 610 486 625 q 472 576 486 590 q 439 563 457 563 q 403 582 418 563 l 326 683 z "},"¯":{"ha":699,"x_min":28,"x_max":671,"o":"m 121 1122 q 52 1150 76 1122 q 28 1214 28 1178 q 52 1280 28 1251 q 121 1308 76 1308 l 578 1308 q 647 1280 622 1308 q 671 1214 671 1251 q 647 1150 671 1178 q 578 1122 622 1122 l 121 1122 z "},"°":{"ha":522,"x_min":28,"x_max":494,"o":"m 382 803 q 372 849 382 828 q 346 888 363 871 q 307 914 329 904 q 260 924 285 924 q 213 914 235 924 q 175 888 192 904 q 149 849 158 871 q 139 803 139 828 q 149 756 139 778 q 175 717 158 733 q 213 692 192 701 q 260 682 235 682 q 346 717 310 682 q 382 803 382 753 m 260 568 q 167 586 210 568 q 94 635 125 604 q 45 710 63 667 q 28 803 28 753 q 45 895 28 853 q 94 969 63 938 q 167 1017 125 1000 q 260 1035 210 1035 q 353 1017 310 1035 q 427 969 396 1000 q 476 895 458 938 q 494 803 494 853 q 476 710 494 753 q 427 635 458 667 q 353 586 396 604 q 260 568 310 568 z "},"²":{"ha":568,"x_min":47,"x_max":518,"o":"m 47 456 m 75 456 q 56 463 64 456 q 47 488 47 471 l 47 642 q 219 821 47 821 l 344 821 q 367 842 367 821 q 344 864 367 864 l 139 864 q 56 944 56 864 q 138 1026 56 1026 l 335 1026 q 518 842 518 1026 q 346 664 518 664 l 219 664 q 197 642 197 664 l 197 622 l 426 622 q 518 539 518 622 q 428 456 518 456 l 75 456 z "},"³":{"ha":529,"x_min":40,"x_max":493,"o":"m 40 456 m 121 456 q 40 538 40 456 q 122 619 40 619 l 290 619 q 314 642 314 619 q 290 664 314 664 l 124 664 q 42 743 42 664 q 122 821 42 821 l 290 821 q 314 842 314 821 q 290 864 314 864 l 118 864 q 40 944 40 864 q 117 1026 40 1026 l 346 1026 q 458 984 422 1026 q 493 878 493 942 q 472 791 493 825 q 411 743 450 757 q 472 690 450 726 q 493 604 493 653 q 458 499 493 542 q 349 456 424 456 l 121 456 z "},"´":{"ha":454,"x_min":28,"x_max":426,"o":"m 157 1057 q 110 1043 133 1043 q 53 1069 78 1043 q 28 1126 28 1094 q 68 1196 28 1167 l 275 1347 q 329 1367 303 1367 q 397 1339 367 1367 q 426 1263 426 1311 q 415 1221 426 1240 q 381 1188 404 1201 l 157 1057 z "},"·":{"ha":338,"x_min":28,"x_max":310,"o":"m 28 374 m 169 374 q 115 385 140 374 q 69 415 89 396 q 39 460 50 435 q 28 515 28 486 q 39 571 28 544 q 69 617 50 597 q 115 648 89 636 q 169 660 140 660 q 224 648 199 660 q 269 617 250 636 q 299 571 288 597 q 310 515 310 544 q 299 460 310 486 q 268 415 288 435 q 224 385 249 396 q 169 374 199 374 z "},"¸":{"ha":293,"x_min":28,"x_max":265,"o":"m 183 -253 q 108 -299 151 -299 q 50 -276 72 -299 q 28 -221 28 -253 q 31 -199 28 -210 q 38 -176 33 -187 l 78 -78 q 113 -32 89 -49 q 164 -15 136 -15 q 197 -22 179 -15 q 231 -40 215 -28 q 256 -69 246 -51 q 265 -108 265 -86 q 260 -137 265 -122 q 243 -169 256 -151 l 183 -253 z "},"¹":{"ha":358,"x_min":28,"x_max":306,"o":"m 28 451 m 136 750 q 122 746 129 747 q 107 744 114 744 q 50 769 72 744 q 28 829 28 794 q 35 863 28 844 q 56 896 42 882 l 161 1000 q 233 1032 193 1032 q 285 1015 265 1032 q 306 954 306 997 l 306 536 q 281 474 306 496 q 222 451 257 451 q 162 474 188 451 q 136 536 136 496 l 136 750 z "},"º":{"ha":600,"x_min":28,"x_max":572,"o":"m 425 768 q 389 856 425 821 q 301 892 353 892 q 215 856 250 892 q 179 768 179 821 q 215 681 179 715 q 301 646 250 646 q 389 681 353 646 q 425 768 425 715 m 301 497 q 194 519 244 497 q 108 577 144 540 q 49 663 71 614 q 28 769 28 713 q 49 876 28 826 q 108 962 71 925 q 194 1020 144 999 q 301 1042 244 1042 q 406 1020 357 1042 q 492 962 456 999 q 551 876 529 925 q 572 769 572 826 q 551 663 572 713 q 492 577 529 614 q 406 519 456 540 q 301 497 357 497 m 131 290 q 74 314 94 290 q 53 367 53 338 q 74 423 53 399 q 131 447 94 447 l 468 447 q 525 423 504 447 q 546 367 546 399 q 525 314 546 338 q 468 290 504 290 l 131 290 z "},"»":{"ha":714,"x_min":28,"x_max":714,"o":"m 28 0 m 225 53 q 185 6 210 19 q 135 -8 161 -8 q 60 19 92 -8 q 28 86 28 47 q 33 115 28 101 q 42 139 38 128 l 174 439 l 42 739 q 32 763 36 750 q 28 790 28 775 q 60 858 28 831 q 135 886 92 886 q 185 872 161 886 q 225 825 210 858 l 374 488 q 385 439 385 464 q 374 390 385 413 l 225 53 m 554 53 q 515 6 539 19 q 464 -8 490 -8 q 389 19 421 -8 q 357 86 357 47 q 362 115 357 101 q 371 139 367 128 l 503 439 l 371 739 q 361 763 365 750 q 357 790 357 775 q 389 858 357 831 q 464 886 421 886 q 515 872 490 886 q 554 825 539 858 l 703 488 q 714 439 714 464 q 703 390 714 413 l 554 53 z "},"¼":{"ha":1110,"x_min":44,"x_max":1065,"o":"m 44 0 m 153 750 q 138 746 146 747 q 124 744 131 744 q 67 769 89 744 q 44 829 44 794 q 51 863 44 844 q 72 896 58 882 l 178 1000 q 250 1032 210 1032 q 302 1015 282 1032 q 322 954 322 997 l 322 536 q 298 474 322 496 q 239 451 274 451 q 178 474 204 451 q 153 536 153 496 l 153 750 m 625 983 q 663 1023 640 1011 q 711 1035 686 1035 q 783 1006 751 1035 q 815 936 815 978 q 800 883 815 911 l 315 43 q 276 4 300 17 q 229 -8 253 -8 q 156 23 186 -8 q 126 94 126 54 q 140 144 126 121 l 625 983 m 894 201 l 701 201 q 617 288 617 201 l 617 492 q 642 556 617 535 q 701 576 668 576 q 761 556 736 576 q 786 492 786 535 l 786 372 l 894 372 l 894 492 q 919 556 894 535 q 978 576 944 576 q 1039 556 1013 576 q 1065 492 1065 535 l 1065 79 q 1039 17 1065 39 q 978 -4 1013 -4 q 919 17 944 -4 q 894 79 894 39 l 894 201 z "},"½":{"ha":1122,"x_min":44,"x_max":1078,"o":"m 44 0 m 153 750 q 138 746 146 747 q 124 744 131 744 q 67 769 89 744 q 44 829 44 794 q 51 863 44 844 q 72 896 58 882 l 178 1000 q 250 1032 210 1032 q 302 1015 282 1032 q 322 954 322 997 l 322 536 q 298 474 322 496 q 239 451 274 451 q 178 474 204 451 q 153 536 153 496 l 153 750 m 624 983 q 662 1023 639 1011 q 710 1035 685 1035 q 782 1006 750 1035 q 814 936 814 978 q 799 883 814 911 l 314 43 q 275 4 299 17 q 228 -8 251 -8 q 155 23 185 -8 q 125 94 125 54 q 139 144 125 121 l 624 983 m 635 0 q 615 8 624 0 q 607 32 607 15 l 607 186 q 779 365 607 365 l 904 365 q 926 386 926 365 q 904 408 926 408 l 699 408 q 615 489 615 408 q 697 571 615 571 l 894 571 q 1078 386 1078 571 q 906 208 1078 208 l 779 208 q 757 186 757 208 l 757 167 l 986 167 q 1078 83 1078 167 q 988 0 1078 0 l 635 0 z "},"¾":{"ha":1257,"x_min":44,"x_max":1213,"o":"m 44 0 m 125 456 q 44 538 44 456 q 126 619 44 619 l 294 619 q 318 642 318 619 q 294 664 318 664 l 128 664 q 46 743 46 664 q 126 821 46 821 l 294 821 q 318 842 318 821 q 294 864 318 864 l 122 864 q 44 944 44 864 q 121 1026 44 1026 l 350 1026 q 462 984 426 1026 q 497 878 497 942 q 476 791 497 825 q 415 743 454 757 q 476 690 454 726 q 497 604 497 653 q 463 499 497 542 q 353 456 428 456 l 125 456 m 772 983 q 810 1023 788 1011 q 858 1035 833 1035 q 931 1006 899 1035 q 963 936 963 978 q 947 883 963 911 l 463 43 q 424 4 447 17 q 376 -8 400 -8 q 303 23 333 -8 q 274 94 274 54 q 288 144 274 121 l 772 983 m 1042 201 l 849 201 q 764 288 764 201 l 764 492 q 790 556 764 535 q 849 576 815 576 q 908 556 883 576 q 933 492 933 535 l 933 372 l 1042 372 l 1042 492 q 1067 556 1042 535 q 1125 576 1092 576 q 1186 556 1160 576 q 1213 492 1213 535 l 1213 79 q 1186 17 1213 39 q 1125 -4 1160 -4 q 1067 17 1092 -4 q 1042 79 1042 39 l 1042 201 z "},"¿":{"ha":861,"x_min":14,"x_max":836,"o":"m 463 508 q 613 365 613 508 q 465 224 613 224 l 318 224 q 260 181 260 224 q 318 138 260 138 l 689 138 q 798 102 760 138 q 836 -7 836 67 q 690 -147 836 -147 l 333 -147 q 14 181 14 -147 q 332 508 14 508 l 463 508 m 476 888 q 531 876 506 888 q 576 846 557 865 q 607 801 596 826 q 618 746 618 775 q 607 690 618 717 q 576 644 596 664 q 531 613 557 625 q 476 601 506 601 q 422 613 447 601 q 378 644 397 625 q 347 690 358 664 q 336 746 336 717 q 347 801 336 775 q 378 846 358 826 q 423 876 397 865 q 476 888 449 888 z "},"À":{"ha":990,"x_min":14,"x_max":976,"o":"m 14 0 m 675 139 l 314 139 l 289 85 q 167 -8 247 -8 q 108 1 136 -8 q 60 28 81 11 q 26 71 39 46 q 14 126 14 96 q 15 153 14 139 q 24 183 17 168 l 181 532 q 234 603 201 579 q 306 626 267 626 q 362 616 335 626 q 410 587 389 606 q 444 543 432 568 q 457 488 457 518 q 455 461 457 475 q 446 433 453 447 l 431 396 l 569 396 l 383 843 q 372 899 372 869 q 385 954 372 929 q 419 997 397 979 q 467 1025 440 1015 q 524 1035 494 1035 q 597 1013 564 1035 q 649 943 629 992 l 965 183 q 974 153 972 168 q 976 126 976 139 q 963 71 976 96 q 928 28 950 46 q 879 1 907 11 q 822 -8 851 -8 q 699 85 738 -8 l 675 139 m 300 1188 q 265 1221 276 1201 q 254 1263 254 1240 q 284 1339 254 1311 q 350 1367 314 1367 q 404 1347 376 1367 l 613 1196 q 653 1126 653 1167 q 628 1069 653 1094 q 569 1043 603 1043 q 522 1057 546 1043 l 300 1188 z "},"Á":{"ha":990,"x_min":14,"x_max":976,"o":"m 14 0 m 675 139 l 314 139 l 289 85 q 167 -8 247 -8 q 108 1 136 -8 q 60 28 81 11 q 26 71 39 46 q 14 126 14 96 q 15 153 14 139 q 24 183 17 168 l 181 532 q 234 603 201 579 q 306 626 267 626 q 362 616 335 626 q 410 587 389 606 q 444 543 432 568 q 457 488 457 518 q 455 461 457 475 q 446 433 453 447 l 431 396 l 569 396 l 383 843 q 372 899 372 869 q 385 954 372 929 q 419 997 397 979 q 467 1025 440 1015 q 524 1035 494 1035 q 597 1013 564 1035 q 649 943 629 992 l 965 183 q 974 153 972 168 q 976 126 976 139 q 963 71 976 96 q 928 28 950 46 q 879 1 907 11 q 822 -8 851 -8 q 699 85 738 -8 l 675 139 m 467 1057 q 419 1043 443 1043 q 363 1069 388 1043 q 338 1126 338 1094 q 378 1196 338 1167 l 585 1347 q 639 1367 613 1367 q 706 1339 676 1367 q 736 1263 736 1311 q 725 1221 736 1240 q 690 1188 714 1201 l 467 1057 z "},"Â":{"ha":990,"x_min":14,"x_max":976,"o":"m 14 0 m 675 139 l 314 139 l 289 85 q 167 -8 247 -8 q 108 1 136 -8 q 60 28 81 11 q 26 71 39 46 q 14 126 14 96 q 15 153 14 139 q 24 183 17 168 l 181 532 q 234 603 201 579 q 306 626 267 626 q 362 616 335 626 q 410 587 389 606 q 444 543 432 568 q 457 488 457 518 q 455 461 457 475 q 446 433 453 447 l 431 396 l 569 396 l 383 843 q 372 899 372 869 q 385 954 372 929 q 419 997 397 979 q 467 1025 440 1015 q 524 1035 494 1035 q 597 1013 564 1035 q 649 943 629 992 l 965 183 q 974 153 972 168 q 976 126 976 139 q 963 71 976 96 q 928 28 950 46 q 879 1 907 11 q 822 -8 851 -8 q 699 85 738 -8 l 675 139 m 493 1175 l 321 1064 q 296 1053 308 1056 q 274 1050 283 1050 q 216 1076 240 1050 q 192 1133 192 1101 q 232 1203 192 1174 l 428 1346 q 462 1363 443 1357 q 496 1368 481 1368 q 561 1346 531 1368 l 757 1203 q 797 1133 797 1174 q 773 1076 797 1101 q 714 1050 749 1050 q 692 1053 704 1050 q 667 1064 679 1056 l 493 1175 z "},"Ã":{"ha":990,"x_min":14,"x_max":976,"o":"m 14 0 m 675 139 l 314 139 l 289 85 q 167 -8 247 -8 q 108 1 136 -8 q 60 28 81 11 q 26 71 39 46 q 14 126 14 96 q 15 153 14 139 q 24 183 17 168 l 181 532 q 234 603 201 579 q 306 626 267 626 q 362 616 335 626 q 410 587 389 606 q 444 543 432 568 q 457 488 457 518 q 455 461 457 475 q 446 433 453 447 l 431 396 l 569 396 l 383 843 q 372 899 372 869 q 385 954 372 929 q 419 997 397 979 q 467 1025 440 1015 q 524 1035 494 1035 q 597 1013 564 1035 q 649 943 629 992 l 965 183 q 974 153 972 168 q 976 126 976 139 q 963 71 976 96 q 928 28 950 46 q 879 1 907 11 q 822 -8 851 -8 q 699 85 738 -8 l 675 139 m 267 1122 q 198 1150 222 1122 q 174 1214 174 1178 q 198 1280 174 1251 q 267 1308 222 1308 l 724 1308 q 792 1280 768 1308 q 817 1214 817 1251 q 792 1150 817 1178 q 724 1122 768 1122 l 267 1122 z "},"Ä":{"ha":990,"x_min":14,"x_max":976,"o":"m 14 0 m 675 139 l 314 139 l 289 85 q 167 -8 247 -8 q 108 1 136 -8 q 60 28 81 11 q 26 71 39 46 q 14 126 14 96 q 15 153 14 139 q 24 183 17 168 l 181 532 q 234 603 201 579 q 306 626 267 626 q 362 616 335 626 q 410 587 389 606 q 444 543 432 568 q 457 488 457 518 q 455 461 457 475 q 446 433 453 447 l 431 396 l 569 396 l 383 843 q 372 899 372 869 q 385 954 372 929 q 419 997 397 979 q 467 1025 440 1015 q 524 1035 494 1035 q 597 1013 564 1035 q 649 943 629 992 l 965 183 q 974 153 972 168 q 976 126 976 139 q 963 71 976 96 q 928 28 950 46 q 879 1 907 11 q 822 -8 851 -8 q 699 85 738 -8 l 675 139 m 336 1090 q 263 1121 293 1090 q 232 1194 232 1151 q 263 1267 232 1236 q 336 1299 293 1299 q 408 1267 378 1299 q 439 1194 439 1236 q 408 1121 439 1151 q 336 1090 378 1090 m 654 1090 q 581 1121 611 1090 q 551 1194 551 1151 q 581 1267 551 1236 q 654 1299 611 1299 q 727 1267 697 1299 q 757 1194 757 1236 q 727 1121 757 1151 q 654 1090 697 1090 z "},"Å":{"ha":990,"x_min":14,"x_max":976,"o":"m 14 0 m 675 139 l 314 139 l 289 85 q 167 -8 247 -8 q 108 1 136 -8 q 60 28 81 11 q 26 71 39 46 q 14 126 14 96 q 15 153 14 139 q 24 183 17 168 l 181 532 q 234 603 201 579 q 306 626 267 626 q 362 616 335 626 q 410 587 389 606 q 444 543 432 568 q 457 488 457 518 q 455 461 457 475 q 446 433 453 447 l 431 396 l 569 396 l 383 843 q 372 899 372 869 q 385 954 372 929 q 419 997 397 979 q 467 1025 440 1015 q 524 1035 494 1035 q 597 1013 564 1035 q 649 943 629 992 l 965 183 q 974 153 972 168 q 976 126 976 139 q 963 71 976 96 q 928 28 950 46 q 879 1 907 11 q 822 -8 851 -8 q 699 85 738 -8 l 675 139 m 560 1204 q 541 1251 560 1232 q 496 1269 522 1269 q 451 1251 469 1269 q 432 1204 432 1232 q 451 1159 432 1178 q 496 1140 469 1140 q 541 1159 522 1140 q 560 1204 560 1178 m 657 1206 q 644 1142 657 1172 q 610 1090 632 1113 q 558 1056 588 1068 q 494 1043 528 1043 q 432 1056 461 1043 q 381 1090 403 1068 q 346 1142 358 1113 q 333 1206 333 1172 q 346 1269 333 1239 q 381 1321 358 1299 q 432 1356 403 1343 q 494 1368 461 1368 q 558 1356 528 1368 q 610 1321 588 1343 q 644 1269 632 1299 q 657 1206 657 1239 z "},"Æ":{"ha":1444,"x_min":60,"x_max":1397,"o":"m 714 0 q 574 142 574 0 l 574 264 l 343 264 l 343 132 q 302 28 343 64 q 203 -8 261 -8 q 102 28 144 -8 q 60 132 60 64 l 60 575 q 458 1026 60 1026 l 1250 1026 q 1356 985 1318 1026 q 1393 885 1393 943 q 1383 830 1393 856 q 1356 785 1374 804 q 1310 753 1338 765 q 1250 742 1283 742 l 854 742 l 854 646 l 1258 646 q 1351 613 1317 646 q 1385 514 1385 581 q 1351 415 1385 450 q 1258 379 1317 379 l 854 379 l 854 285 l 1253 285 q 1359 242 1321 285 q 1397 142 1397 200 q 1388 87 1397 113 q 1359 42 1378 61 q 1313 11 1340 22 q 1253 0 1286 0 l 714 0 m 574 746 l 460 746 q 343 618 343 746 l 343 519 l 574 519 l 574 746 z "},"Ç":{"ha":853,"x_min":44,"x_max":818,"o":"m 44 0 m 615 0 q 348 51 460 0 q 161 190 236 101 q 76 340 107 257 q 44 518 44 422 q 97 744 44 640 q 244 919 149 849 q 404 998 313 969 q 624 1026 496 1026 l 663 1026 q 781 983 743 1026 q 818 881 818 939 q 809 827 818 853 q 781 782 800 801 q 732 751 761 763 q 663 739 703 739 l 622 739 q 508 729 549 739 q 438 701 467 719 q 363 627 392 674 q 333 515 333 581 q 350 428 333 468 q 394 358 367 389 q 478 304 426 324 q 619 285 529 285 l 658 285 q 731 273 700 285 q 781 241 761 261 q 809 195 800 221 q 818 140 818 169 q 780 41 818 82 q 658 0 742 0 l 615 0 m 532 -253 q 457 -299 500 -299 q 399 -276 421 -299 q 376 -221 376 -253 q 379 -199 376 -210 q 386 -176 382 -187 l 426 -78 q 461 -32 438 -49 q 513 -15 485 -15 q 546 -22 528 -15 q 579 -40 564 -28 q 604 -69 594 -51 q 614 -108 614 -86 q 609 -137 614 -122 q 592 -169 604 -151 l 532 -253 z "},"È":{"ha":964,"x_min":67,"x_max":917,"o":"m 67 0 m 207 0 q 67 142 67 0 l 67 885 q 207 1026 67 1026 l 771 1026 q 875 985 838 1026 q 913 885 913 943 q 903 830 913 856 q 875 785 893 804 q 831 753 857 765 q 771 742 804 742 l 347 742 l 347 646 l 779 646 q 871 613 838 646 q 904 514 904 581 q 871 415 904 450 q 779 379 838 379 l 347 379 l 347 285 l 774 285 q 878 242 840 285 q 917 142 917 200 q 907 87 917 113 q 878 42 897 61 q 833 11 860 22 q 774 0 807 0 l 207 0 m 300 1188 q 265 1221 276 1201 q 254 1263 254 1240 q 284 1339 254 1311 q 350 1367 314 1367 q 404 1347 376 1367 l 613 1196 q 653 1126 653 1167 q 628 1069 653 1094 q 569 1043 603 1043 q 522 1057 546 1043 l 300 1188 z "},"É":{"ha":964,"x_min":67,"x_max":917,"o":"m 67 0 m 207 0 q 67 142 67 0 l 67 885 q 207 1026 67 1026 l 771 1026 q 875 985 838 1026 q 913 885 913 943 q 903 830 913 856 q 875 785 893 804 q 831 753 857 765 q 771 742 804 742 l 347 742 l 347 646 l 779 646 q 871 613 838 646 q 904 514 904 581 q 871 415 904 450 q 779 379 838 379 l 347 379 l 347 285 l 774 285 q 878 242 840 285 q 917 142 917 200 q 907 87 917 113 q 878 42 897 61 q 833 11 860 22 q 774 0 807 0 l 207 0 m 467 1057 q 419 1043 443 1043 q 363 1069 388 1043 q 338 1126 338 1094 q 378 1196 338 1167 l 585 1347 q 639 1367 613 1367 q 706 1339 676 1367 q 736 1263 736 1311 q 725 1221 736 1240 q 690 1188 714 1201 l 467 1057 z "},"Ê":{"ha":964,"x_min":67,"x_max":917,"o":"m 67 0 m 207 0 q 67 142 67 0 l 67 885 q 207 1026 67 1026 l 771 1026 q 875 985 838 1026 q 913 885 913 943 q 903 830 913 856 q 875 785 893 804 q 831 753 857 765 q 771 742 804 742 l 347 742 l 347 646 l 779 646 q 871 613 838 646 q 904 514 904 581 q 871 415 904 450 q 779 379 838 379 l 347 379 l 347 285 l 774 285 q 878 242 840 285 q 917 142 917 200 q 907 87 917 113 q 878 42 897 61 q 833 11 860 22 q 774 0 807 0 l 207 0 m 494 1175 l 322 1064 q 297 1053 310 1056 q 275 1050 285 1050 q 217 1076 242 1050 q 193 1133 193 1101 q 233 1203 193 1174 l 429 1346 q 463 1363 444 1357 q 497 1368 482 1368 q 563 1346 532 1368 l 758 1203 q 799 1133 799 1174 q 774 1076 799 1101 q 715 1050 750 1050 q 693 1053 706 1050 q 668 1064 681 1056 l 494 1175 z "},"Ë":{"ha":964,"x_min":67,"x_max":917,"o":"m 67 0 m 207 0 q 67 142 67 0 l 67 885 q 207 1026 67 1026 l 771 1026 q 875 985 838 1026 q 913 885 913 943 q 903 830 913 856 q 875 785 893 804 q 831 753 857 765 q 771 742 804 742 l 347 742 l 347 646 l 779 646 q 871 613 838 646 q 904 514 904 581 q 871 415 904 450 q 779 379 838 379 l 347 379 l 347 285 l 774 285 q 878 242 840 285 q 917 142 917 200 q 907 87 917 113 q 878 42 897 61 q 833 11 860 22 q 774 0 807 0 l 207 0 m 338 1090 q 264 1121 294 1090 q 233 1194 233 1151 q 264 1267 233 1236 q 338 1299 294 1299 q 410 1267 379 1299 q 440 1194 440 1236 q 410 1121 440 1151 q 338 1090 379 1090 m 656 1090 q 583 1121 613 1090 q 553 1194 553 1151 q 583 1267 553 1236 q 656 1299 613 1299 q 728 1267 699 1299 q 758 1194 758 1236 q 728 1121 758 1151 q 656 1090 699 1090 z "},"Ì":{"ha":415,"x_min":-19,"x_max":379,"o":"m 0 0 m 67 894 q 108 999 67 964 q 208 1035 150 1035 q 307 999 265 1035 q 349 894 349 964 l 349 132 q 307 28 349 64 q 208 -8 265 -8 q 108 28 150 -8 q 67 132 67 64 l 67 894 m 26 1188 q -8 1221 3 1201 q -19 1263 -19 1240 q 10 1339 -19 1311 q 76 1367 40 1367 q 131 1347 103 1367 l 339 1196 q 379 1126 379 1167 q 354 1069 379 1094 q 296 1043 329 1043 q 249 1057 272 1043 l 26 1188 z "},"Í":{"ha":415,"x_min":36,"x_max":435,"o":"m 36 0 m 67 894 q 108 999 67 964 q 208 1035 150 1035 q 307 999 265 1035 q 349 894 349 964 l 349 132 q 307 28 349 64 q 208 -8 265 -8 q 108 28 150 -8 q 67 132 67 64 l 67 894 m 165 1057 q 118 1043 142 1043 q 61 1069 86 1043 q 36 1126 36 1094 q 76 1196 36 1167 l 283 1347 q 338 1367 311 1367 q 405 1339 375 1367 q 435 1263 435 1311 q 424 1221 435 1240 q 389 1188 413 1201 l 165 1057 z "},"Î":{"ha":513,"x_min":-46,"x_max":560,"o":"m 0 0 m 115 894 q 157 999 115 964 q 257 1035 199 1035 q 356 999 314 1035 q 397 894 397 964 l 397 132 q 356 28 397 64 q 257 -8 314 -8 q 157 28 199 -8 q 115 132 115 64 l 115 894 m 256 1175 l 83 1064 q 58 1053 71 1056 q 36 1050 46 1050 q -22 1076 3 1050 q -46 1133 -46 1101 q -6 1203 -46 1174 l 190 1346 q 224 1363 206 1357 q 258 1368 243 1368 q 324 1346 293 1368 l 519 1203 q 560 1133 560 1174 q 535 1076 560 1101 q 476 1050 511 1050 q 454 1053 467 1050 q 429 1064 442 1056 l 256 1175 z "},"Ï":{"ha":415,"x_min":-54,"x_max":471,"o":"m 0 0 m 67 894 q 108 999 67 964 q 208 1035 150 1035 q 307 999 265 1035 q 349 894 349 964 l 349 132 q 307 28 349 64 q 208 -8 265 -8 q 108 28 150 -8 q 67 132 67 64 l 67 894 m 50 1090 q -24 1121 7 1090 q -54 1194 -54 1151 q -24 1267 -54 1236 q 50 1299 7 1299 q 122 1267 92 1299 q 153 1194 153 1236 q 122 1121 153 1151 q 50 1090 92 1090 m 368 1090 q 295 1121 325 1090 q 265 1194 265 1151 q 295 1267 265 1236 q 368 1299 325 1299 q 441 1267 411 1299 q 471 1194 471 1236 q 441 1121 471 1151 q 368 1090 411 1090 z "},"Ð":{"ha":1083,"x_min":0,"x_max":1039,"o":"m 267 0 q 158 39 197 0 q 118 142 118 78 l 118 368 q 33 413 67 371 q 0 510 0 454 q 9 565 0 539 q 33 610 18 590 q 71 642 49 629 q 118 656 93 654 l 118 885 q 131 937 118 911 q 165 982 144 963 q 213 1014 186 1001 q 267 1026 239 1026 l 489 1026 q 717 986 615 1026 q 891 877 819 946 q 1001 715 963 808 q 1039 518 1039 622 q 997 313 1039 407 q 883 149 954 218 q 715 40 811 79 q 511 0 619 0 l 267 0 m 403 368 l 403 285 l 514 285 q 607 302 564 285 q 682 350 650 319 q 733 422 714 381 q 751 513 751 464 q 733 601 751 560 q 683 674 715 643 q 608 722 651 704 q 511 739 564 739 l 403 739 l 403 656 l 504 656 q 610 612 572 656 q 649 510 649 568 q 639 456 649 482 q 610 411 629 431 q 565 380 592 392 q 504 368 538 368 l 403 368 z "},"Ñ":{"ha":929,"x_min":67,"x_max":863,"o":"m 67 0 m 349 435 l 349 132 q 307 28 349 64 q 207 -8 265 -8 q 108 28 149 -8 q 67 132 67 64 l 67 894 q 108 999 67 964 q 207 1035 149 1035 q 280 1016 254 1035 q 328 963 306 997 l 579 572 l 579 894 q 591 955 579 929 q 622 999 603 981 q 667 1026 642 1017 q 721 1035 693 1035 q 821 999 779 1035 q 863 894 863 964 l 863 132 q 821 28 863 64 q 721 -8 779 -8 q 635 14 664 -8 q 586 67 606 36 l 349 435 m 236 1122 q 167 1150 192 1122 q 143 1214 143 1178 q 167 1280 143 1251 q 236 1308 192 1308 l 693 1308 q 762 1280 738 1308 q 786 1214 786 1251 q 762 1150 786 1178 q 693 1122 738 1122 l 236 1122 z "},"Ò":{"ha":1139,"x_min":44,"x_max":1094,"o":"m 44 0 m 810 510 q 791 603 810 560 q 740 680 772 647 q 664 732 707 713 q 571 751 621 751 q 478 732 521 751 q 403 680 435 713 q 352 603 371 647 q 333 510 333 560 q 352 417 333 460 q 403 341 371 374 q 478 290 435 308 q 571 271 521 271 q 664 290 621 271 q 740 341 707 308 q 791 417 772 374 q 810 510 810 460 m 1094 513 q 1053 308 1094 404 q 940 141 1011 213 q 772 28 868 69 q 568 -14 676 -14 q 365 28 460 -14 q 198 141 269 69 q 85 308 126 213 q 44 513 44 404 q 85 718 44 622 q 198 885 126 814 q 365 999 269 957 q 568 1040 460 1040 q 772 999 676 1040 q 940 885 868 957 q 1053 718 1011 814 q 1094 513 1094 622 m 374 1188 q 339 1221 350 1201 q 328 1263 328 1240 q 358 1339 328 1311 q 424 1367 388 1367 q 478 1347 450 1367 l 686 1196 q 726 1126 726 1167 q 701 1069 726 1094 q 643 1043 676 1043 q 596 1057 619 1043 l 374 1188 z "},"Ó":{"ha":1139,"x_min":44,"x_max":1094,"o":"m 44 0 m 810 510 q 791 603 810 560 q 740 680 772 647 q 664 732 707 713 q 571 751 621 751 q 478 732 521 751 q 403 680 435 713 q 352 603 371 647 q 333 510 333 560 q 352 417 333 460 q 403 341 371 374 q 478 290 435 308 q 571 271 521 271 q 664 290 621 271 q 740 341 707 308 q 791 417 772 374 q 810 510 810 460 m 1094 513 q 1053 308 1094 404 q 940 141 1011 213 q 772 28 868 69 q 568 -14 676 -14 q 365 28 460 -14 q 198 141 269 69 q 85 308 126 213 q 44 513 44 404 q 85 718 44 622 q 198 885 126 814 q 365 999 269 957 q 568 1040 460 1040 q 772 999 676 1040 q 940 885 868 957 q 1053 718 1011 814 q 1094 513 1094 622 m 540 1057 q 493 1043 517 1043 q 436 1069 461 1043 q 411 1126 411 1094 q 451 1196 411 1167 l 658 1347 q 713 1367 686 1367 q 780 1339 750 1367 q 810 1263 810 1311 q 799 1221 810 1240 q 764 1188 788 1201 l 540 1057 z "},"Ô":{"ha":1139,"x_min":44,"x_max":1094,"o":"m 44 0 m 810 510 q 791 603 810 560 q 740 680 772 647 q 664 732 707 713 q 571 751 621 751 q 478 732 521 751 q 403 680 435 713 q 352 603 371 647 q 333 510 333 560 q 352 417 333 460 q 403 341 371 374 q 478 290 435 308 q 571 271 521 271 q 664 290 621 271 q 740 341 707 308 q 791 417 772 374 q 810 510 810 460 m 1094 513 q 1053 308 1094 404 q 940 141 1011 213 q 772 28 868 69 q 568 -14 676 -14 q 365 28 460 -14 q 198 141 269 69 q 85 308 126 213 q 44 513 44 404 q 85 718 44 622 q 198 885 126 814 q 365 999 269 957 q 568 1040 460 1040 q 772 999 676 1040 q 940 885 868 957 q 1053 718 1011 814 q 1094 513 1094 622 m 568 1175 l 396 1064 q 371 1053 383 1056 q 349 1050 358 1050 q 291 1076 315 1050 q 267 1133 267 1101 q 307 1203 267 1174 l 503 1346 q 537 1363 518 1357 q 571 1368 556 1368 q 636 1346 606 1368 l 832 1203 q 872 1133 872 1174 q 848 1076 872 1101 q 789 1050 824 1050 q 767 1053 779 1050 q 742 1064 754 1056 l 568 1175 z "},"Õ":{"ha":1139,"x_min":44,"x_max":1094,"o":"m 44 0 m 810 510 q 791 603 810 560 q 740 680 772 647 q 664 732 707 713 q 571 751 621 751 q 478 732 521 751 q 403 680 435 713 q 352 603 371 647 q 333 510 333 560 q 352 417 333 460 q 403 341 371 374 q 478 290 435 308 q 571 271 521 271 q 664 290 621 271 q 740 341 707 308 q 791 417 772 374 q 810 510 810 460 m 1094 513 q 1053 308 1094 404 q 940 141 1011 213 q 772 28 868 69 q 568 -14 676 -14 q 365 28 460 -14 q 198 141 269 69 q 85 308 126 213 q 44 513 44 404 q 85 718 44 622 q 198 885 126 814 q 365 999 269 957 q 568 1040 460 1040 q 772 999 676 1040 q 940 885 868 957 q 1053 718 1011 814 q 1094 513 1094 622 m 340 1122 q 272 1150 296 1122 q 247 1214 247 1178 q 272 1280 247 1251 q 340 1308 296 1308 l 797 1308 q 866 1280 842 1308 q 890 1214 890 1251 q 866 1150 890 1178 q 797 1122 842 1122 l 340 1122 z "},"Ö":{"ha":1139,"x_min":44,"x_max":1094,"o":"m 44 0 m 810 510 q 791 603 810 560 q 740 680 772 647 q 664 732 707 713 q 571 751 621 751 q 478 732 521 751 q 403 680 435 713 q 352 603 371 647 q 333 510 333 560 q 352 417 333 460 q 403 341 371 374 q 478 290 435 308 q 571 271 521 271 q 664 290 621 271 q 740 341 707 308 q 791 417 772 374 q 810 510 810 460 m 1094 513 q 1053 308 1094 404 q 940 141 1011 213 q 772 28 868 69 q 568 -14 676 -14 q 365 28 460 -14 q 198 141 269 69 q 85 308 126 213 q 44 513 44 404 q 85 718 44 622 q 198 885 126 814 q 365 999 269 957 q 568 1040 460 1040 q 772 999 676 1040 q 940 885 868 957 q 1053 718 1011 814 q 1094 513 1094 622 m 411 1090 q 338 1121 368 1090 q 307 1194 307 1151 q 338 1267 307 1236 q 411 1299 368 1299 q 483 1267 453 1299 q 514 1194 514 1236 q 483 1121 514 1151 q 411 1090 453 1090 m 729 1090 q 656 1121 686 1090 q 626 1194 626 1151 q 656 1267 626 1236 q 729 1299 686 1299 q 802 1267 772 1299 q 832 1194 832 1236 q 802 1121 832 1151 q 729 1090 772 1090 z "},"×":{"ha":742,"x_min":67,"x_max":675,"o":"m 371 372 l 240 240 q 206 217 225 225 q 168 210 188 210 q 130 218 149 210 q 97 240 111 226 q 75 273 83 254 q 67 313 67 292 q 73 349 67 331 q 96 383 79 367 l 229 514 l 96 646 q 74 679 81 661 q 67 715 67 697 q 75 755 67 736 q 97 788 83 774 q 130 811 111 803 q 168 819 149 819 q 206 813 186 819 q 240 789 225 806 l 371 656 l 501 789 q 535 812 517 804 q 572 819 554 819 q 611 811 593 819 q 644 788 629 803 q 667 755 658 774 q 675 715 675 736 q 667 679 675 697 q 644 646 660 661 l 513 514 l 644 383 q 667 349 660 368 q 675 311 675 331 q 667 274 675 292 q 644 241 658 256 q 612 218 631 226 q 572 210 593 210 q 535 217 554 210 q 501 240 517 224 l 371 372 z "},"Ø":{"ha":1139,"x_min":44,"x_max":1094,"o":"m 343 -40 q 306 -77 328 -65 q 260 -89 283 -89 q 186 -58 217 -89 q 156 13 156 -26 q 172 67 156 39 l 210 128 q 89 299 133 200 q 44 513 44 399 q 85 718 44 622 q 198 885 126 814 q 365 999 269 957 q 568 1040 460 1040 q 664 1031 617 1040 q 756 1006 711 1022 l 796 1069 q 833 1106 811 1094 q 878 1117 854 1117 q 917 1109 897 1117 q 951 1089 936 1101 q 974 1058 965 1076 q 983 1019 983 1040 q 967 964 983 990 l 926 899 q 1049 727 1004 826 q 1094 513 1094 628 q 1053 308 1094 404 q 940 141 1011 213 q 772 28 868 69 q 568 -14 676 -14 q 472 -5 518 -14 q 381 21 425 4 l 343 -40 m 538 274 q 554 272 546 272 q 574 271 563 271 q 664 290 621 271 q 740 341 707 308 q 791 417 772 374 q 810 510 810 460 q 768 644 810 583 l 538 274 m 596 750 q 584 751 589 750 q 568 751 579 751 q 477 732 519 751 q 403 680 435 713 q 352 603 371 647 q 333 508 333 558 q 368 383 333 440 l 596 750 z "},"Ù":{"ha":917,"x_min":60,"x_max":857,"o":"m 60 0 m 574 894 q 615 999 574 964 q 714 1035 657 1035 q 815 999 772 1035 q 857 894 857 964 l 857 439 q 460 -14 857 -14 q 158 99 257 -14 q 60 439 60 211 l 60 894 q 102 999 60 963 q 201 1035 144 1035 q 301 999 260 1035 q 343 894 343 964 l 343 396 q 458 268 343 268 q 574 396 574 268 l 574 894 m 263 1188 q 228 1221 239 1201 q 217 1263 217 1240 q 247 1339 217 1311 q 313 1367 276 1367 q 367 1347 339 1367 l 575 1196 q 615 1126 615 1167 q 590 1069 615 1094 q 532 1043 565 1043 q 485 1057 508 1043 l 263 1188 z "},"Ú":{"ha":917,"x_min":60,"x_max":857,"o":"m 60 0 m 574 894 q 615 999 574 964 q 714 1035 657 1035 q 815 999 772 1035 q 857 894 857 964 l 857 439 q 460 -14 857 -14 q 158 99 257 -14 q 60 439 60 211 l 60 894 q 102 999 60 963 q 201 1035 144 1035 q 301 999 260 1035 q 343 894 343 964 l 343 396 q 458 268 343 268 q 574 396 574 268 l 574 894 m 429 1057 q 382 1043 406 1043 q 325 1069 350 1043 q 300 1126 300 1094 q 340 1196 300 1167 l 547 1347 q 601 1367 575 1367 q 669 1339 639 1367 q 699 1263 699 1311 q 688 1221 699 1240 q 653 1188 676 1201 l 429 1057 z "},"Û":{"ha":917,"x_min":60,"x_max":857,"o":"m 60 0 m 574 894 q 615 999 574 964 q 714 1035 657 1035 q 815 999 772 1035 q 857 894 857 964 l 857 439 q 460 -14 857 -14 q 158 99 257 -14 q 60 439 60 211 l 60 894 q 102 999 60 963 q 201 1035 144 1035 q 301 999 260 1035 q 343 894 343 964 l 343 396 q 458 268 343 268 q 574 396 574 268 l 574 894 m 457 1175 l 285 1064 q 260 1053 272 1056 q 238 1050 247 1050 q 180 1076 204 1050 q 156 1133 156 1101 q 196 1203 156 1174 l 392 1346 q 426 1363 407 1357 q 460 1368 444 1368 q 525 1346 494 1368 l 721 1203 q 761 1133 761 1174 q 737 1076 761 1101 q 678 1050 713 1050 q 656 1053 668 1050 q 631 1064 643 1056 l 457 1175 z "},"Ü":{"ha":917,"x_min":60,"x_max":857,"o":"m 60 0 m 574 894 q 615 999 574 964 q 714 1035 657 1035 q 815 999 772 1035 q 857 894 857 964 l 857 439 q 460 -14 857 -14 q 158 99 257 -14 q 60 439 60 211 l 60 894 q 102 999 60 963 q 201 1035 144 1035 q 301 999 260 1035 q 343 894 343 964 l 343 396 q 458 268 343 268 q 574 396 574 268 l 574 894 m 300 1090 q 226 1121 257 1090 q 196 1194 196 1151 q 226 1267 196 1236 q 300 1299 257 1299 q 372 1267 342 1299 q 403 1194 403 1236 q 372 1121 403 1151 q 300 1090 342 1090 m 618 1090 q 545 1121 575 1090 q 515 1194 515 1151 q 545 1267 515 1236 q 618 1299 575 1299 q 691 1267 661 1299 q 721 1194 721 1236 q 691 1121 721 1151 q 618 1090 661 1090 z "},"Ý":{"ha":814,"x_min":11,"x_max":803,"o":"m 11 0 m 267 446 l 33 819 q 16 858 21 839 q 11 896 11 878 q 23 953 11 928 q 56 997 35 979 q 103 1025 76 1015 q 158 1035 129 1035 q 276 963 235 1035 l 407 739 l 536 963 q 656 1035 578 1035 q 718 1023 690 1035 q 765 992 746 1011 q 793 947 783 972 q 803 896 803 922 q 797 857 803 876 q 781 819 792 838 l 549 446 l 549 132 q 507 28 549 64 q 408 -8 465 -8 q 308 28 350 -8 q 267 132 267 64 l 267 446 m 378 1057 q 331 1043 354 1043 q 274 1069 299 1043 q 249 1126 249 1094 q 289 1196 249 1167 l 496 1347 q 550 1367 524 1367 q 617 1339 588 1367 q 647 1263 647 1311 q 636 1221 647 1240 q 601 1188 625 1201 l 378 1057 z "},"Þ":{"ha":893,"x_min":44,"x_max":868,"o":"m 329 203 l 329 138 q 186 -8 329 -8 q 80 28 113 -8 q 47 138 47 64 l 47 292 q 85 422 47 379 q 207 465 124 465 l 564 465 q 622 508 622 465 q 564 551 622 551 l 183 551 q 82 590 119 551 q 44 686 44 628 l 44 894 q 86 999 44 964 q 186 1035 128 1035 q 285 999 243 1035 q 326 894 326 964 l 326 838 l 549 838 q 868 508 868 838 q 789 274 868 344 q 550 203 710 203 l 329 203 z "},"ß":{"ha":1853,"x_min":44,"x_max":1808,"o":"m 44 0 m 196 0 q 60 138 60 0 q 197 285 60 285 l 578 285 q 635 328 635 285 q 578 371 635 371 l 346 371 q 119 455 194 371 q 44 699 44 539 q 367 1026 44 1026 l 679 1026 q 815 889 815 1026 q 678 742 815 742 l 347 742 q 290 699 290 742 q 347 656 290 656 l 581 656 q 807 572 732 656 q 882 328 882 488 q 563 0 882 0 l 196 0 m 1122 0 q 986 138 986 0 q 1124 285 986 285 l 1504 285 q 1561 328 1561 285 q 1504 371 1561 371 l 1272 371 q 1046 455 1121 371 q 971 699 971 539 q 1293 1026 971 1026 l 1606 1026 q 1742 889 1742 1026 q 1604 742 1742 742 l 1274 742 q 1217 699 1217 742 q 1274 656 1217 656 l 1507 656 q 1733 572 1658 656 q 1808 328 1808 488 q 1489 0 1808 0 l 1122 0 z "},"÷":{"ha":883,"x_min":67,"x_max":817,"o":"m 210 368 q 149 380 176 368 q 104 411 122 392 q 76 456 86 431 q 67 510 67 482 q 104 612 67 568 q 210 656 142 656 l 672 656 q 778 612 740 656 q 817 510 817 568 q 807 456 817 482 q 778 411 797 431 q 733 380 760 392 q 672 368 706 368 l 210 368 m 586 165 q 574 110 586 136 q 543 65 563 85 q 498 35 524 46 q 443 24 472 24 q 388 35 414 24 q 342 65 363 46 q 311 110 322 85 q 300 165 300 136 q 311 220 300 194 q 342 265 322 246 q 388 296 363 285 q 443 307 414 307 q 498 296 472 307 q 543 265 524 285 q 574 220 563 246 q 586 165 586 194 m 443 714 q 388 726 414 714 q 342 757 363 738 q 311 802 322 776 q 300 857 300 828 q 311 912 300 886 q 342 958 322 938 q 388 989 363 978 q 443 1000 414 1000 q 498 989 472 1000 q 543 958 524 978 q 574 912 563 938 q 586 857 586 886 q 574 802 586 828 q 543 757 563 776 q 498 726 524 738 q 443 714 472 714 z "},"ÿ":{"ha":814,"x_min":11,"x_max":803,"o":"m 11 0 m 267 446 l 33 819 q 16 858 21 839 q 11 896 11 878 q 23 953 11 928 q 56 997 35 979 q 103 1025 76 1015 q 158 1035 129 1035 q 276 963 235 1035 l 407 739 l 536 963 q 656 1035 578 1035 q 718 1023 690 1035 q 765 992 746 1011 q 793 947 783 972 q 803 896 803 922 q 797 857 803 876 q 781 819 792 838 l 549 446 l 549 132 q 507 28 549 64 q 408 -8 465 -8 q 308 28 350 -8 q 267 132 267 64 l 267 446 m 249 1090 q 175 1121 206 1090 q 144 1194 144 1151 q 175 1267 144 1236 q 249 1299 206 1299 q 321 1267 290 1299 q 351 1194 351 1236 q 321 1121 351 1151 q 249 1090 290 1090 m 567 1090 q 494 1121 524 1090 q 464 1194 464 1151 q 494 1267 464 1236 q 567 1299 524 1299 q 640 1267 610 1299 q 669 1194 669 1236 q 640 1121 669 1151 q 567 1090 610 1090 z "},"Ā":{"ha":990,"x_min":14,"x_max":976,"o":"m 14 0 m 675 139 l 314 139 l 289 85 q 167 -8 247 -8 q 108 1 136 -8 q 60 28 81 11 q 26 71 39 46 q 14 126 14 96 q 15 153 14 139 q 24 183 17 168 l 181 532 q 234 603 201 579 q 306 626 267 626 q 362 616 335 626 q 410 587 389 606 q 444 543 432 568 q 457 488 457 518 q 455 461 457 475 q 446 433 453 447 l 431 396 l 569 396 l 383 843 q 372 899 372 869 q 385 954 372 929 q 419 997 397 979 q 467 1025 440 1015 q 524 1035 494 1035 q 597 1013 564 1035 q 649 943 629 992 l 965 183 q 974 153 972 168 q 976 126 976 139 q 963 71 976 96 q 928 28 950 46 q 879 1 907 11 q 822 -8 851 -8 q 699 85 738 -8 l 675 139 m 267 1122 q 198 1150 222 1122 q 174 1214 174 1178 q 198 1280 174 1251 q 267 1308 222 1308 l 724 1308 q 792 1280 768 1308 q 817 1214 817 1251 q 792 1150 817 1178 q 724 1122 768 1122 l 267 1122 z "},"Ă":{"ha":990,"x_min":14,"x_max":976,"o":"m 14 0 m 675 139 l 314 139 l 289 85 q 167 -8 247 -8 q 108 1 136 -8 q 60 28 81 11 q 26 71 39 46 q 14 126 14 96 q 15 153 14 139 q 24 183 17 168 l 181 532 q 234 603 201 579 q 306 626 267 626 q 362 616 335 626 q 410 587 389 606 q 444 543 432 568 q 457 488 457 518 q 455 461 457 475 q 446 433 453 447 l 431 396 l 569 396 l 383 843 q 372 899 372 869 q 385 954 372 929 q 419 997 397 979 q 467 1025 440 1015 q 524 1035 494 1035 q 597 1013 564 1035 q 649 943 629 992 l 965 183 q 974 153 972 168 q 976 126 976 139 q 963 71 976 96 q 928 28 950 46 q 879 1 907 11 q 822 -8 851 -8 q 699 85 738 -8 l 675 139 m 800 1281 q 779 1193 800 1235 q 719 1119 758 1151 q 622 1069 679 1088 q 494 1050 565 1050 q 367 1069 424 1050 q 270 1119 310 1088 q 210 1193 231 1151 q 189 1281 189 1235 q 213 1343 189 1318 q 282 1368 236 1368 q 339 1350 318 1368 q 367 1300 360 1332 q 409 1221 379 1249 q 494 1193 439 1193 q 580 1221 550 1193 q 622 1300 610 1249 q 650 1350 629 1332 q 707 1368 671 1368 q 776 1343 753 1368 q 800 1281 800 1318 z "},"Ą":{"ha":990,"x_min":14,"x_max":1019,"o":"m 683 -299 q 606 -271 636 -299 q 575 -197 575 -243 q 585 -151 575 -176 q 626 -96 594 -125 l 679 -47 q 713 25 713 -15 q 699 85 713 53 l 675 139 l 314 139 l 289 85 q 164 -8 246 -8 q 108 1 135 -8 q 60 29 81 11 q 26 73 39 47 q 14 131 14 99 q 15 153 14 139 q 24 183 17 168 l 181 532 q 308 626 222 626 q 363 616 336 626 q 411 587 390 606 q 444 542 432 568 q 457 488 457 517 q 446 433 457 463 l 431 396 l 569 396 l 383 843 q 374 872 376 858 q 372 897 372 886 q 385 953 372 928 q 419 997 399 979 q 467 1025 440 1015 q 524 1035 494 1035 q 597 1013 564 1035 q 649 943 629 992 l 965 183 q 974 153 972 168 q 976 126 976 139 q 965 75 976 99 q 936 35 954 51 l 825 -67 l 903 -67 q 989 -101 958 -67 q 1019 -183 1019 -136 q 989 -265 1019 -231 q 903 -299 958 -299 l 683 -299 z "},"Ć":{"ha":853,"x_min":44,"x_max":818,"o":"m 44 0 m 615 0 q 348 51 460 0 q 161 190 236 101 q 76 340 107 257 q 44 518 44 422 q 97 744 44 640 q 244 919 149 849 q 404 998 313 969 q 624 1026 496 1026 l 663 1026 q 781 983 743 1026 q 818 881 818 939 q 809 827 818 853 q 781 782 800 801 q 732 751 761 763 q 663 739 703 739 l 622 739 q 508 729 549 739 q 438 701 467 719 q 363 627 392 674 q 333 515 333 581 q 350 428 333 468 q 394 358 367 389 q 478 304 426 324 q 619 285 529 285 l 658 285 q 731 273 700 285 q 781 241 761 261 q 809 195 800 221 q 818 140 818 169 q 780 41 818 82 q 658 0 742 0 l 615 0 m 467 1057 q 419 1043 443 1043 q 363 1069 388 1043 q 338 1126 338 1094 q 378 1196 338 1167 l 585 1347 q 639 1367 613 1367 q 706 1339 676 1367 q 736 1263 736 1311 q 725 1221 736 1240 q 690 1188 714 1201 l 467 1057 z "},"Ċ":{"ha":853,"x_min":44,"x_max":818,"o":"m 44 0 m 615 0 q 348 51 460 0 q 161 190 236 101 q 76 340 107 257 q 44 518 44 422 q 97 744 44 640 q 244 919 149 849 q 404 998 313 969 q 624 1026 496 1026 l 663 1026 q 781 983 743 1026 q 818 881 818 939 q 809 827 818 853 q 781 782 800 801 q 732 751 761 763 q 663 739 703 739 l 622 739 q 508 729 549 739 q 438 701 467 719 q 363 627 392 674 q 333 515 333 581 q 350 428 333 468 q 394 358 367 389 q 478 304 426 324 q 619 285 529 285 l 658 285 q 731 273 700 285 q 781 241 761 261 q 809 195 800 221 q 818 140 818 169 q 780 41 818 82 q 658 0 742 0 l 615 0 m 540 1090 q 467 1121 497 1090 q 436 1194 436 1151 q 467 1267 436 1236 q 540 1299 497 1299 q 613 1267 582 1299 q 643 1194 643 1236 q 613 1121 643 1151 q 540 1090 582 1090 z "},"Č":{"ha":853,"x_min":44,"x_max":818,"o":"m 44 0 m 615 0 q 348 51 460 0 q 161 190 236 101 q 76 340 107 257 q 44 518 44 422 q 97 744 44 640 q 244 919 149 849 q 404 998 313 969 q 624 1026 496 1026 l 663 1026 q 781 983 743 1026 q 818 881 818 939 q 809 827 818 853 q 781 782 800 801 q 732 751 761 763 q 663 739 703 739 l 622 739 q 508 729 549 739 q 438 701 467 719 q 363 627 392 674 q 333 515 333 581 q 350 428 333 468 q 394 358 367 389 q 478 304 426 324 q 619 285 529 285 l 658 285 q 731 273 700 285 q 781 241 761 261 q 809 195 800 221 q 818 140 818 169 q 780 41 818 82 q 658 0 742 0 l 615 0 m 576 1072 q 542 1056 561 1061 q 507 1050 522 1050 q 443 1072 474 1050 l 247 1215 q 207 1285 207 1244 q 231 1342 207 1317 q 289 1368 256 1368 q 311 1365 299 1368 q 336 1354 324 1363 l 510 1243 l 682 1354 q 707 1365 694 1363 q 729 1368 719 1368 q 788 1342 764 1368 q 813 1285 813 1317 q 772 1215 813 1244 l 576 1072 z "},"Ď":{"ha":1032,"x_min":67,"x_max":988,"o":"m 67 0 m 444 285 q 551 302 504 285 q 630 351 597 319 q 680 424 663 382 q 697 514 697 465 q 681 601 697 560 q 632 672 664 642 q 553 721 600 703 q 444 739 506 739 l 349 739 l 349 285 l 444 285 m 214 0 q 106 39 144 0 q 67 142 67 78 l 67 885 q 79 937 67 911 q 113 982 92 963 q 160 1014 133 1001 q 214 1026 186 1026 l 424 1026 q 663 986 558 1026 q 840 876 768 946 q 950 713 913 806 q 988 514 988 619 q 949 313 988 407 q 837 150 910 219 q 660 40 764 81 q 425 0 556 0 l 214 0 m 540 1072 q 506 1056 525 1061 q 471 1050 486 1050 q 407 1072 438 1050 l 211 1215 q 171 1285 171 1244 q 195 1342 171 1317 q 253 1368 219 1368 q 275 1365 263 1368 q 300 1354 288 1363 l 474 1243 l 646 1354 q 671 1365 658 1363 q 693 1368 683 1368 q 752 1342 728 1368 q 776 1285 776 1317 q 736 1215 776 1244 l 540 1072 z "},"Ē":{"ha":964,"x_min":67,"x_max":917,"o":"m 67 0 m 207 0 q 67 142 67 0 l 67 885 q 207 1026 67 1026 l 771 1026 q 875 985 838 1026 q 913 885 913 943 q 903 830 913 856 q 875 785 893 804 q 831 753 857 765 q 771 742 804 742 l 347 742 l 347 646 l 779 646 q 871 613 838 646 q 904 514 904 581 q 871 415 904 450 q 779 379 838 379 l 347 379 l 347 285 l 774 285 q 878 242 840 285 q 917 142 917 200 q 907 87 917 113 q 878 42 897 61 q 833 11 860 22 q 774 0 807 0 l 207 0 m 267 1122 q 198 1150 222 1122 q 174 1214 174 1178 q 198 1280 174 1251 q 267 1308 222 1308 l 724 1308 q 792 1280 768 1308 q 817 1214 817 1251 q 792 1150 817 1178 q 724 1122 768 1122 l 267 1122 z "},"Ĕ":{"ha":964,"x_min":67,"x_max":917,"o":"m 67 0 m 207 0 q 67 142 67 0 l 67 885 q 207 1026 67 1026 l 771 1026 q 875 985 838 1026 q 913 885 913 943 q 903 830 913 856 q 875 785 893 804 q 831 753 857 765 q 771 742 804 742 l 347 742 l 347 646 l 779 646 q 871 613 838 646 q 904 514 904 581 q 871 415 904 450 q 779 379 838 379 l 347 379 l 347 285 l 774 285 q 878 242 840 285 q 917 142 917 200 q 907 87 917 113 q 878 42 897 61 q 833 11 860 22 q 774 0 807 0 l 207 0 m 801 1281 q 781 1193 801 1235 q 720 1119 760 1151 q 624 1069 681 1088 q 496 1050 567 1050 q 368 1069 425 1050 q 272 1119 311 1088 q 211 1193 232 1151 q 190 1281 190 1235 q 214 1343 190 1318 q 283 1368 238 1368 q 340 1350 319 1368 q 368 1300 361 1332 q 410 1221 381 1249 q 496 1193 440 1193 q 581 1221 551 1193 q 624 1300 611 1249 q 651 1350 631 1332 q 708 1368 672 1368 q 778 1343 754 1368 q 801 1281 801 1318 z "},"Ė":{"ha":964,"x_min":67,"x_max":917,"o":"m 67 0 m 207 0 q 67 142 67 0 l 67 885 q 207 1026 67 1026 l 771 1026 q 875 985 838 1026 q 913 885 913 943 q 903 830 913 856 q 875 785 893 804 q 831 753 857 765 q 771 742 804 742 l 347 742 l 347 646 l 779 646 q 871 613 838 646 q 904 514 904 581 q 871 415 904 450 q 779 379 838 379 l 347 379 l 347 285 l 774 285 q 878 242 840 285 q 917 142 917 200 q 907 87 917 113 q 878 42 897 61 q 833 11 860 22 q 774 0 807 0 l 207 0 m 496 1090 q 422 1121 453 1090 q 392 1194 392 1151 q 422 1267 392 1236 q 496 1299 453 1299 q 568 1267 538 1299 q 599 1194 599 1236 q 568 1121 599 1151 q 496 1090 538 1090 z "},"Ę":{"ha":964,"x_min":67,"x_max":917,"o":"m 581 -299 q 503 -271 533 -299 q 472 -197 472 -243 q 482 -150 472 -176 q 524 -96 492 -124 l 629 0 l 207 0 q 67 142 67 0 l 67 885 q 207 1026 67 1026 l 771 1026 q 875 985 838 1026 q 913 885 913 943 q 903 830 913 856 q 875 785 893 804 q 831 753 857 765 q 771 742 804 742 l 347 742 l 347 646 l 779 646 q 871 613 838 646 q 904 515 904 581 q 871 415 904 450 q 779 379 838 379 l 347 379 l 347 285 l 774 285 q 833 274 807 285 q 878 243 860 263 q 907 198 897 224 q 917 143 917 172 q 896 69 917 100 q 843 15 875 38 l 722 -67 l 800 -67 q 886 -101 856 -67 q 917 -183 917 -136 q 886 -265 917 -231 q 800 -299 856 -299 l 581 -299 z "},"Ě":{"ha":964,"x_min":67,"x_max":917,"o":"m 67 0 m 207 0 q 67 142 67 0 l 67 885 q 207 1026 67 1026 l 771 1026 q 875 985 838 1026 q 913 885 913 943 q 903 830 913 856 q 875 785 893 804 q 831 753 857 765 q 771 742 804 742 l 347 742 l 347 646 l 779 646 q 871 613 838 646 q 904 514 904 581 q 871 415 904 450 q 779 379 838 379 l 347 379 l 347 285 l 774 285 q 878 242 840 285 q 917 142 917 200 q 907 87 917 113 q 878 42 897 61 q 833 11 860 22 q 774 0 807 0 l 207 0 m 563 1072 q 528 1056 547 1061 q 493 1050 508 1050 q 429 1072 460 1050 l 233 1215 q 193 1285 193 1244 q 217 1342 193 1317 q 275 1368 242 1368 q 297 1365 285 1368 q 322 1354 310 1363 l 496 1243 l 668 1354 q 693 1365 681 1363 q 715 1368 706 1368 q 774 1342 750 1368 q 799 1285 799 1317 q 758 1215 799 1244 l 563 1072 z "},"Ğ":{"ha":1117,"x_min":44,"x_max":1117,"o":"m 44 0 m 572 0 q 360 47 457 6 q 192 155 263 88 q 83 315 122 222 q 44 517 44 407 q 83 715 44 622 q 194 877 122 808 q 367 986 265 946 q 594 1026 468 1026 l 831 1026 q 935 983 897 1026 q 972 881 972 939 q 963 827 972 853 q 935 782 953 801 q 890 751 917 763 q 831 739 864 739 l 540 739 q 456 721 494 739 q 391 672 418 703 q 349 600 364 640 q 333 514 333 560 q 352 422 333 464 q 403 350 371 381 q 478 302 435 319 q 571 285 521 285 l 635 285 l 738 546 l 988 546 q 1117 417 1117 546 q 988 285 1117 285 l 900 285 l 803 0 l 572 0 m 919 1281 q 899 1193 919 1235 q 838 1119 878 1151 q 742 1069 799 1088 q 614 1050 685 1050 q 486 1069 543 1050 q 390 1119 429 1088 q 329 1193 350 1151 q 308 1281 308 1235 q 332 1343 308 1318 q 401 1368 356 1368 q 458 1350 438 1368 q 486 1300 479 1332 q 528 1221 499 1249 q 614 1193 558 1193 q 699 1221 669 1193 q 742 1300 729 1249 q 769 1350 749 1332 q 826 1368 790 1368 q 896 1343 872 1368 q 919 1281 919 1318 z "},"Ġ":{"ha":1117,"x_min":44,"x_max":1117,"o":"m 44 0 m 572 0 q 360 47 457 6 q 192 155 263 88 q 83 315 122 222 q 44 517 44 407 q 83 715 44 622 q 194 877 122 808 q 367 986 265 946 q 594 1026 468 1026 l 831 1026 q 935 983 897 1026 q 972 881 972 939 q 963 827 972 853 q 935 782 953 801 q 890 751 917 763 q 831 739 864 739 l 540 739 q 456 721 494 739 q 391 672 418 703 q 349 600 364 640 q 333 514 333 560 q 352 422 333 464 q 403 350 371 381 q 478 302 435 319 q 571 285 521 285 l 635 285 l 738 546 l 988 546 q 1117 417 1117 546 q 988 285 1117 285 l 900 285 l 803 0 l 572 0 m 600 1090 q 526 1121 557 1090 q 496 1194 496 1151 q 526 1267 496 1236 q 600 1299 557 1299 q 672 1267 642 1299 q 703 1194 703 1236 q 672 1121 703 1151 q 600 1090 642 1090 z "},"Ģ":{"ha":1117,"x_min":44,"x_max":1117,"o":"m 44 0 m 572 0 q 360 47 457 6 q 192 155 263 88 q 83 315 122 222 q 44 517 44 407 q 83 715 44 622 q 194 877 122 808 q 367 986 265 946 q 594 1026 468 1026 l 831 1026 q 935 983 897 1026 q 972 881 972 939 q 963 827 972 853 q 935 782 953 801 q 890 751 917 763 q 831 739 864 739 l 540 739 q 456 721 494 739 q 391 672 418 703 q 349 600 364 640 q 333 514 333 560 q 352 422 333 464 q 403 350 371 381 q 478 302 435 319 q 571 285 521 285 l 635 285 l 738 546 l 988 546 q 1117 417 1117 546 q 988 285 1117 285 l 900 285 l 803 0 l 572 0 m 594 -253 q 519 -299 563 -299 q 461 -276 483 -299 q 439 -221 439 -253 q 442 -199 439 -210 q 449 -176 444 -187 l 489 -78 q 524 -32 500 -49 q 575 -15 547 -15 q 608 -22 590 -15 q 642 -40 626 -28 q 667 -69 657 -51 q 676 -108 676 -86 q 672 -137 676 -122 q 654 -169 667 -151 l 594 -253 z "},"Ħ":{"ha":929,"x_min":0,"x_max":929,"o":"m 581 353 l 350 353 l 350 132 q 338 72 350 99 q 307 28 326 46 q 262 1 288 10 q 207 -8 236 -8 q 108 28 149 -8 q 67 132 67 64 l 67 732 q 17 765 35 740 q 0 821 0 789 q 18 878 0 853 q 68 913 36 904 q 113 1003 74 972 q 207 1035 153 1035 q 301 1004 260 1035 q 349 915 342 974 l 582 915 q 628 1004 589 974 q 721 1035 668 1035 q 815 1003 775 1035 q 861 913 854 972 q 911 878 893 904 q 929 821 929 853 q 912 765 929 789 q 863 732 894 740 l 863 132 q 821 28 863 64 q 721 -8 779 -8 q 622 28 664 -8 q 581 132 581 64 l 581 353 m 581 624 l 581 729 l 350 729 l 350 624 l 581 624 z "},"Ĩ":{"ha":415,"x_min":-31,"x_max":446,"o":"m 0 0 m 67 894 q 108 999 67 964 q 208 1035 150 1035 q 307 999 265 1035 q 349 894 349 964 l 349 132 q 307 28 349 64 q 208 -8 265 -8 q 108 28 150 -8 q 67 132 67 64 l 67 894 m 63 1122 q -6 1150 18 1122 q -31 1214 -31 1178 q -6 1280 -31 1251 q 63 1308 18 1308 l 353 1308 q 422 1280 397 1308 q 446 1214 446 1251 q 422 1150 446 1178 q 353 1122 397 1122 l 63 1122 z "},"Ī":{"ha":415,"x_min":-31,"x_max":446,"o":"m 67 894 q 108 999 67 964 q 208 1035 150 1035 q 307 999 265 1035 q 349 894 349 964 l 349 132 q 307 28 349 64 q 208 -8 265 -8 q 108 28 150 -8 q 67 132 67 64 l 67 894 m 63 1122 q -6 1150 18 1122 q -31 1214 -31 1178 q -6 1280 -31 1251 q 63 1308 18 1308 l 353 1308 q 422 1280 397 1308 q 446 1214 446 1251 q 422 1150 446 1178 q 353 1122 397 1122 l 63 1122 z "},"Ĭ":{"ha":522,"x_min":-44,"x_max":567,"o":"m 0 0 m 119 894 q 161 999 119 964 q 261 1035 203 1035 q 360 999 318 1035 q 401 894 401 964 l 401 132 q 360 28 401 64 q 261 -8 318 -8 q 161 28 203 -8 q 119 132 119 64 l 119 894 m 567 1281 q 546 1193 567 1235 q 485 1119 525 1151 q 389 1069 446 1088 q 261 1050 332 1050 q 133 1069 190 1050 q 37 1119 76 1088 q -24 1193 -3 1151 q -44 1281 -44 1235 q -21 1343 -44 1318 q 49 1368 3 1368 q 106 1350 85 1368 q 133 1300 126 1332 q 176 1221 146 1249 q 261 1193 206 1193 q 347 1221 317 1193 q 389 1300 376 1249 q 417 1350 396 1332 q 474 1368 438 1368 q 543 1343 519 1368 q 567 1281 567 1318 z "},"Į":{"ha":415,"x_min":-1,"x_max":415,"o":"m 107 -299 q 29 -271 60 -299 q -1 -197 -1 -243 q 15 -138 -1 -164 q 50 -90 31 -112 q 85 -44 69 -67 q 101 4 101 -22 q 96 32 101 19 q 84 59 90 44 q 72 91 78 74 q 67 132 67 108 l 67 894 q 108 999 67 964 q 207 1035 149 1035 q 306 999 264 1035 q 349 894 349 963 l 349 132 q 339 74 349 100 q 314 29 329 49 l 233 -67 l 299 -67 q 385 -101 354 -67 q 415 -183 415 -136 q 385 -265 415 -231 q 299 -299 354 -299 l 107 -299 z "},"İ":{"ha":415,"x_min":67,"x_max":349,"o":"m 67 0 m 67 894 q 108 999 67 964 q 208 1035 150 1035 q 307 999 265 1035 q 349 894 349 964 l 349 132 q 307 28 349 64 q 208 -8 265 -8 q 108 28 150 -8 q 67 132 67 64 l 67 894 m 208 1090 q 135 1121 165 1090 q 104 1194 104 1151 q 135 1267 104 1236 q 208 1299 165 1299 q 281 1267 250 1299 q 311 1194 311 1236 q 281 1121 311 1151 q 208 1090 250 1090 z "},"Ĳ":{"ha":806,"x_min":63,"x_max":739,"o":"m 67 894 q 108 999 67 964 q 208 1035 150 1035 q 307 999 265 1035 q 349 894 349 964 l 349 274 q 307 169 349 206 q 208 133 265 133 q 108 169 150 133 q 67 274 67 206 l 67 894 m 204 -299 q 100 -257 138 -299 q 63 -157 63 -215 q 100 -56 63 -99 q 204 -14 138 -14 l 232 -14 q 338 1 297 -14 q 404 44 378 15 q 460 226 460 107 l 460 894 q 501 999 460 964 q 600 1035 542 1035 q 699 999 658 1035 q 739 894 739 964 l 739 213 q 694 -22 739 81 q 571 -192 650 -125 q 432 -271 511 -243 q 247 -299 353 -299 l 204 -299 z "},"Ķ":{"ha":868,"x_min":67,"x_max":846,"o":"m 67 0 m 349 371 l 349 132 q 307 28 349 64 q 208 -8 265 -8 q 108 28 150 -8 q 67 132 67 64 l 67 894 q 108 999 67 964 q 208 1035 150 1035 q 307 999 265 1035 q 349 894 349 964 l 349 656 l 565 958 q 630 1020 599 1006 q 694 1035 661 1035 q 758 1023 731 1035 q 804 992 786 1011 q 831 947 822 972 q 840 897 840 922 q 831 847 840 872 q 796 792 821 822 l 569 518 l 803 236 q 836 183 826 208 q 846 132 846 158 q 835 79 846 104 q 804 35 824 54 q 758 3 785 15 q 701 -8 732 -8 q 639 6 669 -8 q 582 57 608 21 l 349 371 m 443 -253 q 368 -299 411 -299 q 310 -276 332 -299 q 288 -221 288 -253 q 290 -199 288 -210 q 297 -176 293 -187 l 338 -78 q 372 -32 349 -49 q 424 -15 396 -15 q 457 -22 439 -15 q 490 -40 475 -28 q 515 -69 506 -51 q 525 -108 525 -86 q 520 -137 525 -122 q 503 -169 515 -151 l 443 -253 z "},"Ĺ":{"ha":647,"x_min":67,"x_max":633,"o":"m 67 0 m 207 0 q 67 142 67 0 l 67 894 q 108 999 67 964 q 207 1035 149 1035 q 306 999 264 1035 q 347 894 347 964 l 347 285 l 499 285 q 599 242 565 285 q 633 142 633 200 q 599 42 633 83 q 499 0 565 0 l 207 0 m 225 1057 q 178 1043 201 1043 q 121 1069 146 1043 q 96 1126 96 1094 q 136 1196 96 1167 l 343 1347 q 397 1367 371 1367 q 465 1339 435 1367 q 494 1263 494 1311 q 483 1221 494 1240 q 449 1188 472 1201 l 225 1057 z "},"Ļ":{"ha":647,"x_min":67,"x_max":633,"o":"m 67 0 m 207 0 q 67 142 67 0 l 67 894 q 108 999 67 964 q 207 1035 149 1035 q 306 999 264 1035 q 347 894 347 964 l 347 285 l 499 285 q 599 242 565 285 q 633 142 633 200 q 599 42 633 83 q 499 0 565 0 l 207 0 m 360 -253 q 285 -299 328 -299 q 226 -276 249 -299 q 204 -221 204 -253 q 207 -199 204 -210 q 214 -176 210 -187 l 254 -78 q 289 -32 265 -49 q 340 -15 313 -15 q 374 -22 356 -15 q 407 -40 392 -28 q 432 -69 422 -51 q 442 -108 442 -86 q 437 -137 442 -122 q 419 -169 432 -151 l 360 -253 z "},"Ľ":{"ha":647,"x_min":67,"x_max":647,"o":"m 67 0 m 207 0 q 67 142 67 0 l 67 894 q 108 999 67 964 q 207 1035 149 1035 q 306 999 264 1035 q 347 894 347 964 l 347 285 l 499 285 q 599 242 565 285 q 633 142 633 200 q 599 42 633 83 q 499 0 565 0 l 207 0 m 565 797 q 490 751 533 751 q 432 774 454 751 q 410 829 410 797 q 413 851 410 840 q 419 874 415 863 l 460 972 q 494 1018 471 1001 q 546 1035 518 1035 q 579 1028 561 1035 q 613 1010 597 1022 q 638 981 628 999 q 647 942 647 964 q 642 913 647 928 q 625 881 638 899 l 565 797 z "},"Ł":{"ha":647,"x_min":67,"x_max":633,"o":"m 207 0 q 67 142 67 0 l 67 894 q 108 999 67 964 q 207 1035 149 1035 q 306 999 264 1035 q 347 894 347 964 l 347 657 l 421 699 q 443 709 432 706 q 469 713 454 713 q 540 685 511 713 q 568 611 568 658 q 518 531 568 558 l 347 432 l 347 285 l 499 285 q 599 242 565 285 q 633 142 633 200 q 599 42 633 83 q 499 0 565 0 l 207 0 z "},"Ń":{"ha":929,"x_min":67,"x_max":863,"o":"m 67 0 m 349 435 l 349 132 q 307 28 349 64 q 207 -8 265 -8 q 108 28 149 -8 q 67 132 67 64 l 67 894 q 108 999 67 964 q 207 1035 149 1035 q 280 1016 254 1035 q 328 963 306 997 l 579 572 l 579 894 q 591 955 579 929 q 622 999 603 981 q 667 1026 642 1017 q 721 1035 693 1035 q 821 999 779 1035 q 863 894 863 964 l 863 132 q 821 28 863 64 q 721 -8 779 -8 q 635 14 664 -8 q 586 67 606 36 l 349 435 m 436 1057 q 389 1043 413 1043 q 332 1069 357 1043 q 307 1126 307 1094 q 347 1196 307 1167 l 554 1347 q 608 1367 582 1367 q 676 1339 646 1367 q 706 1263 706 1311 q 694 1221 706 1240 q 660 1188 683 1201 l 436 1057 z "},"Ņ":{"ha":929,"x_min":67,"x_max":863,"o":"m 67 0 m 349 435 l 349 132 q 307 28 349 64 q 207 -8 265 -8 q 108 28 149 -8 q 67 132 67 64 l 67 894 q 108 999 67 964 q 207 1035 149 1035 q 280 1016 254 1035 q 328 963 306 997 l 579 572 l 579 894 q 591 955 579 929 q 622 999 603 981 q 667 1026 642 1017 q 721 1035 693 1035 q 821 999 779 1035 q 863 894 863 964 l 863 132 q 821 28 863 64 q 721 -8 779 -8 q 635 14 664 -8 q 586 67 606 36 l 349 435 m 474 -253 q 399 -299 442 -299 q 340 -276 363 -299 q 318 -221 318 -253 q 321 -199 318 -210 q 328 -176 324 -187 l 368 -78 q 403 -32 379 -49 q 454 -15 426 -15 q 488 -22 469 -15 q 521 -40 506 -28 q 546 -69 536 -51 q 556 -108 556 -86 q 551 -137 556 -122 q 533 -169 546 -151 l 474 -253 z "},"Ň":{"ha":929,"x_min":67,"x_max":863,"o":"m 67 0 m 349 435 l 349 132 q 307 28 349 64 q 207 -8 265 -8 q 108 28 149 -8 q 67 132 67 64 l 67 894 q 108 999 67 964 q 207 1035 149 1035 q 280 1016 254 1035 q 328 963 306 997 l 579 572 l 579 894 q 591 955 579 929 q 622 999 603 981 q 667 1026 642 1017 q 721 1035 693 1035 q 821 999 779 1035 q 863 894 863 964 l 863 132 q 821 28 863 64 q 721 -8 779 -8 q 635 14 664 -8 q 586 67 606 36 l 349 435 m 531 1072 q 496 1056 515 1061 q 461 1050 476 1050 q 397 1072 428 1050 l 201 1215 q 161 1285 161 1244 q 185 1342 161 1317 q 243 1368 210 1368 q 265 1365 253 1368 q 290 1354 278 1363 l 464 1243 l 636 1354 q 661 1365 649 1363 q 683 1368 674 1368 q 742 1342 718 1368 q 767 1285 767 1317 q 726 1215 767 1244 l 531 1072 z "},"Ŋ":{"ha":929,"x_min":67,"x_max":863,"o":"m 328 -299 q 224 -257 261 -299 q 186 -157 186 -215 q 224 -56 186 -99 q 328 -14 261 -14 l 356 -14 q 478 10 421 -14 q 563 101 535 35 l 349 435 l 349 164 q 307 60 349 96 q 207 24 265 24 q 108 60 149 24 q 67 164 67 96 l 67 894 q 108 999 67 964 q 210 1035 149 1035 q 280 1016 254 1035 q 328 963 306 997 l 579 572 l 579 894 q 591 955 579 929 q 622 999 603 981 q 667 1026 642 1017 q 722 1035 693 1035 q 822 999 781 1035 q 863 894 863 964 l 863 213 q 829 4 863 99 q 733 -158 796 -90 q 578 -262 669 -225 q 371 -299 488 -299 l 328 -299 z "},"Ō":{"ha":1139,"x_min":44,"x_max":1094,"o":"m 44 0 m 810 510 q 791 603 810 560 q 740 680 772 647 q 664 732 707 713 q 571 751 621 751 q 478 732 521 751 q 403 680 435 713 q 352 603 371 647 q 333 510 333 560 q 352 417 333 460 q 403 341 371 374 q 478 290 435 308 q 571 271 521 271 q 664 290 621 271 q 740 341 707 308 q 791 417 772 374 q 810 510 810 460 m 1094 513 q 1053 308 1094 404 q 940 141 1011 213 q 772 28 868 69 q 568 -14 676 -14 q 365 28 460 -14 q 198 141 269 69 q 85 308 126 213 q 44 513 44 404 q 85 718 44 622 q 198 885 126 814 q 365 999 269 957 q 568 1040 460 1040 q 772 999 676 1040 q 940 885 868 957 q 1053 718 1011 814 q 1094 513 1094 622 m 340 1122 q 272 1150 296 1122 q 247 1214 247 1178 q 272 1280 247 1251 q 340 1308 296 1308 l 797 1308 q 866 1280 842 1308 q 890 1214 890 1251 q 866 1150 890 1178 q 797 1122 842 1122 l 340 1122 z "},"Ŏ":{"ha":1139,"x_min":44,"x_max":1094,"o":"m 44 0 m 810 510 q 791 603 810 560 q 740 680 772 647 q 664 732 707 713 q 571 751 621 751 q 478 732 521 751 q 403 680 435 713 q 352 603 371 647 q 333 510 333 560 q 352 417 333 460 q 403 341 371 374 q 478 290 435 308 q 571 271 521 271 q 664 290 621 271 q 740 341 707 308 q 791 417 772 374 q 810 510 810 460 m 1094 513 q 1053 308 1094 404 q 940 141 1011 213 q 772 28 868 69 q 568 -14 676 -14 q 365 28 460 -14 q 198 141 269 69 q 85 308 126 213 q 44 513 44 404 q 85 718 44 622 q 198 885 126 814 q 365 999 269 957 q 568 1040 460 1040 q 772 999 676 1040 q 940 885 868 957 q 1053 718 1011 814 q 1094 513 1094 622 m 875 1281 q 854 1193 875 1235 q 794 1119 833 1151 q 697 1069 754 1088 q 569 1050 640 1050 q 442 1069 499 1050 q 345 1119 385 1088 q 285 1193 306 1151 q 264 1281 264 1235 q 288 1343 264 1318 q 357 1368 311 1368 q 414 1350 393 1368 q 442 1300 435 1332 q 484 1221 454 1249 q 569 1193 514 1193 q 655 1221 625 1193 q 697 1300 685 1249 q 725 1350 704 1332 q 782 1368 746 1368 q 851 1343 828 1368 q 875 1281 875 1318 z "},"Ő":{"ha":1139,"x_min":44,"x_max":1094,"o":"m 44 0 m 810 510 q 791 603 810 560 q 740 680 772 647 q 664 732 707 713 q 571 751 621 751 q 478 732 521 751 q 403 680 435 713 q 352 603 371 647 q 333 510 333 560 q 352 417 333 460 q 403 341 371 374 q 478 290 435 308 q 571 271 521 271 q 664 290 621 271 q 740 341 707 308 q 791 417 772 374 q 810 510 810 460 m 1094 513 q 1053 308 1094 404 q 940 141 1011 213 q 772 28 868 69 q 568 -14 676 -14 q 365 28 460 -14 q 198 141 269 69 q 85 308 126 213 q 44 513 44 404 q 85 718 44 622 q 198 885 126 814 q 365 999 269 957 q 568 1040 460 1040 q 772 999 676 1040 q 940 885 868 957 q 1053 718 1011 814 q 1094 513 1094 622 m 747 1072 q 718 1055 732 1060 q 692 1050 704 1050 q 633 1073 660 1050 q 607 1132 607 1096 q 615 1165 607 1150 q 638 1194 622 1179 l 771 1338 q 800 1358 782 1349 q 838 1368 818 1368 q 870 1361 853 1368 q 902 1341 888 1354 q 926 1309 917 1328 q 935 1267 935 1290 q 900 1197 935 1226 l 747 1072 m 428 1072 q 399 1055 413 1060 q 372 1050 385 1050 q 314 1073 340 1050 q 288 1132 288 1096 q 295 1165 288 1150 q 318 1194 303 1179 l 451 1338 q 481 1358 463 1349 q 518 1368 499 1368 q 551 1361 533 1368 q 583 1341 568 1354 q 606 1309 597 1328 q 615 1267 615 1290 q 581 1197 615 1226 l 428 1072 z "},"Œ":{"ha":1554,"x_min":44,"x_max":1507,"o":"m 607 0 q 372 40 476 0 q 195 150 268 81 q 83 313 122 219 q 44 514 44 407 q 82 713 44 619 q 192 876 119 806 q 369 986 264 946 q 608 1026 474 1026 l 1361 1026 q 1465 985 1428 1026 q 1503 885 1503 943 q 1493 830 1503 856 q 1465 785 1483 804 q 1421 753 1447 765 q 1361 742 1394 742 l 951 742 l 951 646 l 1369 646 q 1461 613 1428 646 q 1494 514 1494 581 q 1461 415 1494 450 q 1369 379 1428 379 l 951 379 l 951 285 l 1364 285 q 1469 242 1431 285 q 1507 142 1507 200 q 1497 87 1507 113 q 1469 42 1488 61 q 1424 11 1450 22 q 1364 0 1397 0 l 607 0 m 669 739 l 588 739 q 478 721 526 739 q 399 672 431 703 q 350 601 367 642 q 333 514 333 560 q 351 424 333 465 q 401 351 368 382 q 481 302 433 319 q 588 285 528 285 l 669 285 l 669 739 z "},"Ŕ":{"ha":897,"x_min":50,"x_max":872,"o":"m 50 0 m 132 358 q 76 426 99 390 q 53 514 53 463 q 92 617 53 578 q 213 656 132 656 l 569 656 q 626 699 626 656 q 569 742 626 742 l 188 742 q 86 777 122 742 q 50 888 50 813 q 186 1026 50 1026 l 554 1026 q 872 697 872 1026 q 846 538 872 599 q 777 445 819 478 q 681 402 735 413 q 571 392 626 392 l 521 392 l 664 254 q 706 201 692 226 q 719 139 719 175 q 683 34 719 76 q 583 -8 646 -8 q 461 43 522 -8 l 132 358 m 378 1057 q 331 1043 354 1043 q 274 1069 299 1043 q 249 1126 249 1094 q 289 1196 249 1167 l 496 1347 q 550 1367 524 1367 q 617 1339 588 1367 q 647 1263 647 1311 q 636 1221 647 1240 q 601 1188 625 1201 l 378 1057 z "},"Ŗ":{"ha":897,"x_min":50,"x_max":872,"o":"m 50 0 m 132 358 q 76 426 99 390 q 53 514 53 463 q 92 617 53 578 q 213 656 132 656 l 569 656 q 626 699 626 656 q 569 742 626 742 l 188 742 q 86 777 122 742 q 50 888 50 813 q 186 1026 50 1026 l 554 1026 q 872 697 872 1026 q 846 538 872 599 q 777 445 819 478 q 681 402 735 413 q 571 392 626 392 l 521 392 l 664 254 q 706 201 692 226 q 719 139 719 175 q 683 34 719 76 q 583 -8 646 -8 q 461 43 522 -8 l 132 358 m 485 -253 q 410 -299 453 -299 q 351 -276 374 -299 q 329 -221 329 -253 q 332 -199 329 -210 q 339 -176 335 -187 l 379 -78 q 414 -32 390 -49 q 465 -15 438 -15 q 499 -22 481 -15 q 532 -40 517 -28 q 557 -69 547 -51 q 567 -108 567 -86 q 562 -137 567 -122 q 544 -169 557 -151 l 485 -253 z "},"Ř":{"ha":897,"x_min":50,"x_max":872,"o":"m 50 0 m 132 358 q 76 426 99 390 q 53 514 53 463 q 92 617 53 578 q 213 656 132 656 l 569 656 q 626 699 626 656 q 569 742 626 742 l 188 742 q 86 777 122 742 q 50 888 50 813 q 186 1026 50 1026 l 554 1026 q 872 697 872 1026 q 846 538 872 599 q 777 445 819 478 q 681 402 735 413 q 571 392 626 392 l 521 392 l 664 254 q 706 201 692 226 q 719 139 719 175 q 683 34 719 76 q 583 -8 646 -8 q 461 43 522 -8 l 132 358 m 515 1072 q 481 1056 500 1061 q 446 1050 461 1050 q 382 1072 413 1050 l 186 1215 q 146 1285 146 1244 q 170 1342 146 1317 q 228 1368 194 1368 q 250 1365 238 1368 q 275 1354 263 1363 l 449 1243 l 621 1354 q 646 1365 633 1363 q 668 1368 658 1368 q 727 1342 703 1368 q 751 1285 751 1317 q 711 1215 751 1244 l 515 1072 z "},"Ś":{"ha":926,"x_min":44,"x_max":882,"o":"m 44 0 m 196 0 q 60 138 60 0 q 197 285 60 285 l 578 285 q 635 328 635 285 q 578 371 635 371 l 346 371 q 119 455 194 371 q 44 699 44 539 q 367 1026 44 1026 l 679 1026 q 815 889 815 1026 q 678 742 815 742 l 347 742 q 290 699 290 742 q 347 656 290 656 l 581 656 q 807 572 732 656 q 882 328 882 488 q 563 0 882 0 l 196 0 m 435 1057 q 388 1043 411 1043 q 331 1069 356 1043 q 306 1126 306 1094 q 346 1196 306 1167 l 553 1347 q 607 1367 581 1367 q 674 1339 644 1367 q 704 1263 704 1311 q 693 1221 704 1240 q 658 1188 682 1201 l 435 1057 z "},"Ş":{"ha":926,"x_min":44,"x_max":882,"o":"m 44 0 m 196 0 q 60 138 60 0 q 197 285 60 285 l 578 285 q 635 328 635 285 q 578 371 635 371 l 346 371 q 119 455 194 371 q 44 699 44 539 q 367 1026 44 1026 l 679 1026 q 815 889 815 1026 q 678 742 815 742 l 347 742 q 290 699 290 742 q 347 656 290 656 l 581 656 q 807 572 732 656 q 882 328 882 488 q 563 0 882 0 l 196 0 m 472 -253 q 397 -299 440 -299 q 339 -276 361 -299 q 317 -221 317 -253 q 319 -199 317 -210 q 326 -176 322 -187 l 367 -78 q 401 -32 378 -49 q 453 -15 425 -15 q 486 -22 468 -15 q 519 -40 504 -28 q 544 -69 535 -51 q 554 -108 554 -86 q 549 -137 554 -122 q 532 -169 544 -151 l 472 -253 z "},"Š":{"ha":926,"x_min":44,"x_max":882,"o":"m 44 0 m 196 0 q 60 138 60 0 q 197 285 60 285 l 578 285 q 635 328 635 285 q 578 371 635 371 l 346 371 q 119 455 194 371 q 44 699 44 539 q 367 1026 44 1026 l 679 1026 q 815 889 815 1026 q 678 742 815 742 l 347 742 q 290 699 290 742 q 347 656 290 656 l 581 656 q 807 572 732 656 q 882 328 882 488 q 563 0 882 0 l 196 0 m 529 1072 q 494 1056 514 1061 q 460 1050 475 1050 q 396 1072 426 1050 l 200 1215 q 160 1285 160 1244 q 184 1342 160 1317 q 242 1368 208 1368 q 264 1365 251 1368 q 289 1354 276 1363 l 463 1243 l 635 1354 q 660 1365 647 1363 q 682 1368 672 1368 q 741 1342 717 1368 q 765 1285 765 1317 q 725 1215 765 1244 l 529 1072 z "},"Ţ":{"ha":793,"x_min":14,"x_max":779,"o":"m 14 0 m 257 742 l 157 742 q 97 753 124 742 q 52 785 71 765 q 24 830 33 804 q 14 885 14 856 q 52 985 14 943 q 157 1026 90 1026 l 636 1026 q 741 985 703 1026 q 779 885 779 943 q 769 830 779 856 q 741 785 760 804 q 696 753 722 765 q 636 742 669 742 l 539 742 l 539 133 q 497 29 539 65 q 397 -7 456 -7 q 298 29 339 -7 q 257 133 257 65 l 257 742 m 393 -253 q 318 -299 361 -299 q 260 -276 282 -299 q 238 -221 238 -253 q 240 -199 238 -210 q 247 -176 243 -187 l 288 -78 q 322 -32 299 -49 q 374 -15 346 -15 q 407 -22 389 -15 q 440 -40 425 -28 q 465 -69 456 -51 q 475 -108 475 -86 q 470 -137 475 -122 q 453 -169 465 -151 l 393 -253 z "},"Ť":{"ha":793,"x_min":14,"x_max":779,"o":"m 14 0 m 257 742 l 157 742 q 97 753 124 742 q 52 785 71 765 q 24 830 33 804 q 14 885 14 856 q 52 985 14 943 q 157 1026 90 1026 l 636 1026 q 741 985 703 1026 q 779 885 779 943 q 769 830 779 856 q 741 785 760 804 q 696 753 722 765 q 636 742 669 742 l 539 742 l 539 133 q 497 29 539 65 q 397 -7 456 -7 q 298 29 339 -7 q 257 133 257 65 l 257 742 m 463 1072 q 428 1056 447 1061 q 393 1050 408 1050 q 329 1072 360 1050 l 133 1215 q 93 1285 93 1244 q 117 1342 93 1317 q 175 1368 142 1368 q 197 1365 185 1368 q 222 1354 210 1363 l 396 1243 l 568 1354 q 593 1365 581 1363 q 615 1368 606 1368 q 674 1342 650 1368 q 699 1285 699 1317 q 658 1215 699 1244 l 463 1072 z "},"Ŧ":{"ha":793,"x_min":14,"x_max":779,"o":"m 539 428 l 539 133 q 497 29 539 65 q 397 -7 456 -7 q 298 29 339 -7 q 257 133 257 65 l 257 428 l 168 428 q 99 456 124 428 q 75 519 75 483 q 99 585 75 557 q 168 614 124 614 l 257 614 l 257 742 l 157 742 q 97 753 124 742 q 52 785 71 765 q 24 830 33 804 q 14 885 14 856 q 52 985 14 943 q 157 1026 90 1026 l 636 1026 q 741 985 703 1026 q 779 885 779 943 q 769 830 779 856 q 741 785 760 804 q 696 753 722 765 q 636 742 669 742 l 539 742 l 539 614 l 625 614 q 694 585 669 614 q 718 519 718 557 q 694 456 718 483 q 625 428 669 428 l 539 428 z "},"Ũ":{"ha":917,"x_min":60,"x_max":857,"o":"m 60 0 m 574 894 q 615 999 574 964 q 714 1035 657 1035 q 815 999 772 1035 q 857 894 857 964 l 857 439 q 460 -14 857 -14 q 158 99 257 -14 q 60 439 60 211 l 60 894 q 102 999 60 963 q 201 1035 144 1035 q 301 999 260 1035 q 343 894 343 964 l 343 396 q 458 268 343 268 q 574 396 574 268 l 574 894 m 229 1122 q 160 1150 185 1122 q 136 1214 136 1178 q 160 1280 136 1251 q 229 1308 185 1308 l 686 1308 q 755 1280 731 1308 q 779 1214 779 1251 q 755 1150 779 1178 q 686 1122 731 1122 l 229 1122 z "},"Ū":{"ha":917,"x_min":60,"x_max":857,"o":"m 60 0 m 574 894 q 615 999 574 964 q 714 1035 657 1035 q 815 999 772 1035 q 857 894 857 964 l 857 439 q 460 -14 857 -14 q 158 99 257 -14 q 60 439 60 211 l 60 894 q 102 999 60 963 q 201 1035 144 1035 q 301 999 260 1035 q 343 894 343 964 l 343 396 q 458 268 343 268 q 574 396 574 268 l 574 894 m 229 1122 q 160 1150 185 1122 q 136 1214 136 1178 q 160 1280 136 1251 q 229 1308 185 1308 l 686 1308 q 755 1280 731 1308 q 779 1214 779 1251 q 755 1150 779 1178 q 686 1122 731 1122 l 229 1122 z "},"Ů":{"ha":917,"x_min":60,"x_max":857,"o":"m 60 0 m 574 894 q 615 999 574 964 q 714 1035 657 1035 q 815 999 772 1035 q 857 894 857 964 l 857 439 q 460 -14 857 -14 q 158 99 257 -14 q 60 439 60 211 l 60 894 q 102 999 60 963 q 201 1035 144 1035 q 301 999 260 1035 q 343 894 343 964 l 343 396 q 458 268 343 268 q 574 396 574 268 l 574 894 m 522 1204 q 503 1251 522 1232 q 458 1269 485 1269 q 413 1251 432 1269 q 394 1204 394 1232 q 413 1159 394 1178 q 458 1140 432 1140 q 503 1159 485 1140 q 522 1204 522 1178 m 619 1206 q 607 1142 619 1172 q 572 1090 594 1113 q 520 1056 550 1068 q 457 1043 490 1043 q 394 1056 424 1043 q 343 1090 365 1068 q 308 1142 321 1113 q 296 1206 296 1172 q 308 1269 296 1239 q 343 1321 321 1299 q 394 1356 365 1343 q 457 1368 424 1368 q 520 1356 490 1368 q 572 1321 550 1343 q 607 1269 594 1299 q 619 1206 619 1239 z "},"Ű":{"ha":917,"x_min":60,"x_max":857,"o":"m 60 0 m 574 894 q 615 999 574 964 q 714 1035 657 1035 q 815 999 772 1035 q 857 894 857 964 l 857 439 q 460 -14 857 -14 q 158 99 257 -14 q 60 439 60 211 l 60 894 q 102 999 60 963 q 201 1035 144 1035 q 301 999 260 1035 q 343 894 343 964 l 343 396 q 458 268 343 268 q 574 396 574 268 l 574 894 m 636 1072 q 607 1055 621 1060 q 581 1050 593 1050 q 522 1073 549 1050 q 496 1132 496 1096 q 503 1165 496 1150 q 526 1194 511 1179 l 660 1338 q 689 1358 671 1349 q 726 1368 707 1368 q 759 1361 742 1368 q 791 1341 776 1354 q 815 1309 806 1328 q 824 1267 824 1290 q 789 1197 824 1226 l 636 1072 m 317 1072 q 288 1055 301 1060 q 261 1050 274 1050 q 203 1073 229 1050 q 176 1132 176 1096 q 184 1165 176 1150 q 207 1194 192 1179 l 340 1338 q 369 1358 351 1349 q 407 1368 388 1368 q 440 1361 422 1368 q 472 1341 457 1354 q 495 1309 486 1328 q 504 1267 504 1290 q 469 1197 504 1226 l 317 1072 z "},"Ų":{"ha":917,"x_min":60,"x_max":857,"o":"m 344 -299 q 267 -271 297 -299 q 236 -197 236 -243 q 246 -151 236 -176 q 288 -96 256 -125 l 381 -8 q 138 124 217 13 q 60 439 60 235 l 60 894 q 102 999 60 963 q 201 1035 144 1035 q 301 999 260 1035 q 343 894 343 964 l 343 396 q 458 268 343 268 q 574 396 574 268 l 574 894 q 615 999 574 964 q 714 1035 657 1035 q 815 999 772 1035 q 857 894 857 964 l 857 439 q 549 -7 857 39 l 486 -67 l 564 -67 q 650 -101 619 -67 q 681 -183 681 -136 q 650 -265 681 -231 q 564 -299 619 -299 l 344 -299 z "},"Ŵ":{"ha":1258,"x_min":22,"x_max":1192,"o":"m 22 0 m 385 0 q 292 35 333 0 q 231 136 250 69 l 29 857 q 22 903 22 882 q 35 956 22 932 q 68 998 47 981 q 116 1025 89 1015 q 172 1035 143 1035 q 249 1012 213 1035 q 301 931 285 989 l 483 285 l 538 285 l 538 894 q 579 999 538 963 q 679 1035 621 1035 q 779 999 738 1035 q 821 894 821 963 l 821 285 l 908 285 l 908 894 q 950 999 908 963 q 1050 1035 992 1035 q 1150 999 1108 1035 q 1192 894 1192 963 l 1192 142 q 1049 0 1192 0 l 385 0 m 683 1175 l 511 1064 q 486 1053 499 1056 q 464 1050 474 1050 q 406 1076 431 1050 q 382 1133 382 1101 q 422 1203 382 1174 l 618 1346 q 652 1363 633 1357 q 686 1368 671 1368 q 751 1346 721 1368 l 947 1203 q 988 1133 988 1174 q 963 1076 988 1101 q 904 1050 939 1050 q 882 1053 894 1050 q 857 1064 869 1056 l 683 1175 z "},"Ŷ":{"ha":814,"x_min":11,"x_max":803,"o":"m 11 0 m 267 446 l 33 819 q 16 858 21 839 q 11 896 11 878 q 23 953 11 928 q 56 997 35 979 q 103 1025 76 1015 q 158 1035 129 1035 q 276 963 235 1035 l 407 739 l 536 963 q 656 1035 578 1035 q 718 1023 690 1035 q 765 992 746 1011 q 793 947 783 972 q 803 896 803 922 q 797 857 803 876 q 781 819 792 838 l 549 446 l 549 132 q 507 28 549 64 q 408 -8 465 -8 q 308 28 350 -8 q 267 132 267 64 l 267 446 m 406 1175 l 233 1064 q 208 1053 221 1056 q 186 1050 196 1050 q 128 1076 153 1050 q 104 1133 104 1101 q 144 1203 104 1174 l 340 1346 q 374 1363 356 1357 q 408 1368 393 1368 q 474 1346 443 1368 l 669 1203 q 710 1133 710 1174 q 685 1076 710 1101 q 626 1050 661 1050 q 604 1053 617 1050 q 579 1064 592 1056 l 406 1175 z "},"Ź":{"ha":890,"x_min":31,"x_max":860,"o":"m 31 0 m 186 0 q 73 33 115 0 q 31 128 31 65 q 45 194 31 164 q 86 257 60 224 l 468 742 l 176 742 q 117 753 143 742 q 72 785 90 765 q 44 830 54 804 q 35 885 35 856 q 72 985 35 943 q 176 1026 108 1026 l 724 1026 q 819 993 779 1026 q 858 889 858 960 q 851 845 858 865 q 822 796 844 825 l 443 285 l 717 285 q 822 242 783 285 q 860 142 860 200 q 850 87 860 113 q 822 42 840 61 q 776 11 803 22 q 717 0 750 0 l 186 0 m 417 1057 q 369 1043 393 1043 q 313 1069 338 1043 q 288 1126 288 1094 q 328 1196 288 1167 l 535 1347 q 589 1367 563 1367 q 656 1339 626 1367 q 686 1263 686 1311 q 675 1221 686 1240 q 640 1188 664 1201 l 417 1057 z "},"Ż":{"ha":890,"x_min":31,"x_max":860,"o":"m 31 0 m 186 0 q 73 33 115 0 q 31 128 31 65 q 45 194 31 164 q 86 257 60 224 l 468 742 l 176 742 q 117 753 143 742 q 72 785 90 765 q 44 830 54 804 q 35 885 35 856 q 72 985 35 943 q 176 1026 108 1026 l 724 1026 q 819 993 779 1026 q 858 889 858 960 q 851 845 858 865 q 822 796 844 825 l 443 285 l 717 285 q 822 242 783 285 q 860 142 860 200 q 850 87 860 113 q 822 42 840 61 q 776 11 803 22 q 717 0 750 0 l 186 0 m 446 1090 q 372 1121 403 1090 q 342 1194 342 1151 q 372 1267 342 1236 q 446 1299 403 1299 q 518 1267 488 1299 q 549 1194 549 1236 q 518 1121 549 1151 q 446 1090 488 1090 z "},"Ž":{"ha":890,"x_min":31,"x_max":860,"o":"m 31 0 m 186 0 q 73 33 115 0 q 31 128 31 65 q 45 194 31 164 q 86 257 60 224 l 468 742 l 176 742 q 117 753 143 742 q 72 785 90 765 q 44 830 54 804 q 35 885 35 856 q 72 985 35 943 q 176 1026 108 1026 l 724 1026 q 819 993 779 1026 q 858 889 858 960 q 851 845 858 865 q 822 796 844 825 l 443 285 l 717 285 q 822 242 783 285 q 860 142 860 200 q 850 87 860 113 q 822 42 840 61 q 776 11 803 22 q 717 0 750 0 l 186 0 m 511 1072 q 476 1056 496 1061 q 442 1050 457 1050 q 378 1072 408 1050 l 182 1215 q 142 1285 142 1244 q 166 1342 142 1317 q 224 1368 190 1368 q 246 1365 233 1368 q 271 1354 258 1363 l 444 1243 l 617 1354 q 642 1365 629 1363 q 664 1368 654 1368 q 723 1342 699 1368 q 747 1285 747 1317 q 707 1215 747 1244 l 511 1072 z "},"ˆ":{"ha":661,"x_min":28,"x_max":633,"o":"m 329 1175 l 157 1064 q 132 1053 144 1056 q 110 1050 119 1050 q 52 1076 76 1050 q 28 1133 28 1101 q 68 1203 28 1174 l 264 1346 q 298 1363 279 1357 q 332 1368 317 1368 q 397 1346 367 1368 l 593 1203 q 633 1133 633 1174 q 609 1076 633 1101 q 550 1050 585 1050 q 528 1053 540 1050 q 503 1064 515 1056 l 329 1175 z "},"ˇ":{"ha":661,"x_min":28,"x_max":633,"o":"m 397 1072 q 363 1056 382 1061 q 328 1050 343 1050 q 264 1072 294 1050 l 68 1215 q 28 1285 28 1244 q 52 1342 28 1317 q 110 1368 76 1368 q 132 1365 119 1368 q 157 1354 144 1363 l 331 1243 l 503 1354 q 528 1365 515 1363 q 550 1368 540 1368 q 609 1342 585 1368 q 633 1285 633 1317 q 593 1215 633 1244 l 397 1072 z "},"˘":{"ha":667,"x_min":28,"x_max":639,"o":"m 639 1281 q 618 1193 639 1235 q 558 1119 597 1151 q 461 1069 518 1088 q 333 1050 404 1050 q 206 1069 263 1050 q 109 1119 149 1088 q 49 1193 69 1151 q 28 1281 28 1235 q 51 1343 28 1318 q 121 1368 75 1368 q 178 1350 157 1368 q 206 1300 199 1332 q 248 1221 218 1249 q 333 1193 278 1193 q 419 1221 389 1193 q 461 1300 449 1249 q 489 1350 468 1332 q 546 1368 510 1368 q 615 1343 592 1368 q 639 1281 639 1318 z "},"˙":{"ha":263,"x_min":28,"x_max":235,"o":"m 132 1090 q 58 1121 89 1090 q 28 1194 28 1151 q 58 1267 28 1236 q 132 1299 89 1299 q 204 1267 174 1299 q 235 1194 235 1236 q 204 1121 235 1151 q 132 1090 174 1090 z "},"˚":{"ha":379,"x_min":28,"x_max":351,"o":"m 254 1204 q 235 1251 254 1232 q 190 1269 217 1269 q 145 1251 164 1269 q 126 1204 126 1232 q 145 1159 126 1178 q 190 1140 164 1140 q 235 1159 217 1140 q 254 1204 254 1178 m 351 1206 q 339 1142 351 1172 q 304 1090 326 1113 q 252 1056 282 1068 q 189 1043 222 1043 q 126 1056 156 1043 q 75 1090 97 1068 q 40 1142 53 1113 q 28 1206 28 1172 q 40 1269 28 1239 q 75 1321 53 1299 q 126 1356 97 1343 q 189 1368 156 1368 q 252 1356 222 1368 q 304 1321 282 1343 q 339 1269 326 1299 q 351 1206 351 1239 z "},"˛":{"ha":500,"x_min":28,"x_max":472,"o":"m 136 -299 q 58 -271 89 -299 q 28 -197 28 -243 q 38 -151 28 -176 q 79 -96 47 -125 l 182 0 l 349 0 l 278 -67 l 356 -67 q 442 -101 411 -67 q 472 -183 472 -136 q 442 -265 472 -231 q 356 -299 411 -299 l 136 -299 z "},"˜":{"ha":699,"x_min":28,"x_max":671,"o":"m 121 1122 q 52 1150 76 1122 q 28 1214 28 1178 q 52 1280 28 1251 q 121 1308 76 1308 l 578 1308 q 647 1280 622 1308 q 671 1214 671 1251 q 647 1150 671 1178 q 578 1122 622 1122 l 121 1122 z "},"˝":{"ha":703,"x_min":28,"x_max":675,"o":"m 488 1072 q 458 1055 472 1060 q 432 1050 444 1050 q 374 1073 400 1050 q 347 1132 347 1096 q 355 1165 347 1150 q 378 1194 363 1179 l 511 1338 q 540 1358 522 1349 q 578 1368 558 1368 q 610 1361 593 1368 q 642 1341 628 1354 q 666 1309 657 1328 q 675 1267 675 1290 q 640 1197 675 1226 l 488 1072 m 168 1072 q 139 1055 153 1060 q 113 1050 125 1050 q 54 1073 81 1050 q 28 1132 28 1096 q 35 1165 28 1150 q 58 1194 43 1179 l 192 1338 q 221 1358 203 1349 q 258 1368 239 1368 q 291 1361 274 1368 q 323 1341 308 1354 q 347 1309 338 1328 q 356 1267 356 1290 q 321 1197 356 1226 l 168 1072 z "},"̀":{"ha":0,"x_min":-724,"x_max":-325,"o":"m -325 1043 m -678 1188 q -712 1221 -701 1201 q -724 1263 -724 1240 q -694 1339 -724 1311 q -628 1367 -664 1367 q -574 1347 -601 1367 l -365 1196 q -325 1126 -325 1167 q -350 1069 -325 1094 q -408 1043 -375 1043 q -456 1057 -432 1043 l -678 1188 z "},"́":{"ha":0,"x_min":-642,"x_max":-243,"o":"m -243 1043 m -512 1057 q -560 1043 -536 1043 q -617 1069 -592 1043 q -642 1126 -642 1094 q -601 1196 -642 1167 l -394 1347 q -340 1367 -367 1367 q -273 1339 -303 1367 q -243 1263 -243 1311 q -254 1221 -243 1240 q -289 1188 -265 1201 l -512 1057 z "},"̂":{"ha":0,"x_min":-786,"x_max":-181,"o":"m -181 1050 m -485 1175 l -657 1064 q -682 1053 -669 1056 q -704 1050 -694 1050 q -762 1076 -737 1050 q -786 1133 -786 1101 q -746 1203 -786 1174 l -550 1346 q -516 1363 -535 1357 q -482 1368 -497 1368 q -417 1346 -447 1368 l -221 1203 q -181 1133 -181 1174 q -205 1076 -181 1101 q -264 1050 -229 1050 q -286 1053 -274 1050 q -311 1064 -299 1056 l -485 1175 z "},"̃":{"ha":0,"x_min":-807,"x_max":-164,"o":"m -164 1122 m -714 1122 q -783 1150 -758 1122 q -807 1214 -807 1178 q -783 1280 -807 1251 q -714 1308 -758 1308 l -257 1308 q -188 1280 -212 1308 q -164 1214 -164 1251 q -188 1150 -164 1178 q -257 1122 -212 1122 l -714 1122 z "},"̄":{"ha":0,"x_min":-807,"x_max":-164,"o":"m -164 1122 m -714 1122 q -783 1150 -758 1122 q -807 1214 -807 1178 q -783 1280 -807 1251 q -714 1308 -758 1308 l -257 1308 q -188 1280 -212 1308 q -164 1214 -164 1251 q -188 1150 -164 1178 q -257 1122 -212 1122 l -714 1122 z "},"̆":{"ha":0,"x_min":-789,"x_max":-178,"o":"m -178 1050 m -178 1281 q -199 1193 -178 1235 q -259 1119 -219 1151 q -356 1069 -299 1088 q -483 1050 -412 1050 q -611 1069 -554 1050 q -708 1119 -668 1088 q -768 1193 -747 1151 q -789 1281 -789 1235 q -765 1343 -789 1318 q -696 1368 -742 1368 q -639 1350 -660 1368 q -611 1300 -618 1332 q -569 1221 -599 1249 q -483 1193 -539 1193 q -398 1221 -428 1193 q -356 1300 -368 1249 q -328 1350 -349 1332 q -271 1368 -307 1368 q -201 1343 -225 1368 q -178 1281 -178 1318 z "},"̇":{"ha":0,"x_min":-587,"x_max":-381,"o":"m -381 1090 m -483 1090 q -557 1121 -526 1090 q -587 1194 -587 1151 q -557 1267 -587 1236 q -483 1299 -526 1299 q -411 1267 -442 1299 q -381 1194 -381 1236 q -411 1121 -381 1151 q -483 1090 -442 1090 z "},"̈":{"ha":0,"x_min":-746,"x_max":-221,"o":"m -221 1090 m -642 1090 q -715 1121 -685 1090 q -746 1194 -746 1151 q -715 1267 -746 1236 q -642 1299 -685 1299 q -569 1267 -600 1299 q -539 1194 -539 1236 q -569 1121 -539 1151 q -642 1090 -600 1090 m -324 1090 q -397 1121 -367 1090 q -426 1194 -426 1151 q -397 1267 -426 1236 q -324 1299 -367 1299 q -251 1267 -281 1299 q -221 1194 -221 1236 q -251 1121 -221 1151 q -324 1090 -281 1090 z "},"̊":{"ha":0,"x_min":-646,"x_max":-322,"o":"m -322 1043 m -419 1204 q -438 1251 -419 1232 q -483 1269 -457 1269 q -528 1251 -510 1269 q -547 1204 -547 1232 q -528 1159 -547 1178 q -483 1140 -510 1140 q -438 1159 -457 1140 q -419 1204 -419 1178 m -322 1206 q -335 1142 -322 1172 q -369 1090 -347 1113 q -422 1056 -392 1068 q -485 1043 -451 1043 q -547 1056 -518 1043 q -599 1090 -576 1068 q -633 1142 -621 1113 q -646 1206 -646 1172 q -633 1269 -646 1239 q -599 1321 -621 1299 q -547 1356 -576 1343 q -485 1368 -518 1368 q -422 1356 -451 1368 q -369 1321 -392 1343 q -335 1269 -347 1299 q -322 1206 -322 1239 z "},"̋":{"ha":0,"x_min":-767,"x_max":-119,"o":"m -119 1050 m -307 1072 q -336 1055 -322 1060 q -362 1050 -350 1050 q -421 1073 -394 1050 q -447 1132 -447 1096 q -440 1165 -447 1150 q -417 1194 -432 1179 l -283 1338 q -254 1358 -272 1349 q -217 1368 -236 1368 q -184 1361 -201 1368 q -152 1341 -167 1354 q -128 1309 -137 1328 q -119 1267 -119 1290 q -154 1197 -119 1226 l -307 1072 m -626 1072 q -656 1055 -642 1060 q -682 1050 -669 1050 q -740 1073 -714 1050 q -767 1132 -767 1096 q -759 1165 -767 1150 q -736 1194 -751 1179 l -603 1338 q -574 1358 -592 1349 q -536 1368 -556 1368 q -503 1361 -521 1368 q -472 1341 -486 1354 q -448 1309 -457 1328 q -439 1267 -439 1290 q -474 1197 -439 1226 l -626 1072 z "},"̌":{"ha":0,"x_min":-786,"x_max":-181,"o":"m -181 1050 m -417 1072 q -451 1056 -432 1061 q -486 1050 -471 1050 q -550 1072 -519 1050 l -746 1215 q -786 1285 -786 1244 q -762 1342 -786 1317 q -704 1368 -737 1368 q -682 1365 -694 1368 q -657 1354 -669 1363 l -483 1243 l -311 1354 q -286 1365 -299 1363 q -264 1368 -274 1368 q -205 1342 -229 1368 q -181 1285 -181 1317 q -221 1215 -181 1244 l -417 1072 z "},"̓":{"ha":0,"x_min":-596,"x_max":-358,"o":"m -440 1131 q -515 1085 -472 1085 q -574 1108 -551 1085 q -596 1163 -596 1131 q -593 1185 -596 1174 q -586 1207 -590 1196 l -546 1306 q -511 1351 -535 1335 q -460 1368 -487 1368 q -426 1362 -444 1368 q -393 1344 -408 1356 q -368 1315 -378 1332 q -358 1275 -358 1297 q -363 1247 -358 1261 q -381 1214 -368 1232 l -440 1131 z "},"̣":{"ha":0,"x_min":-587,"x_max":-381,"o":"m -483 -256 q -557 -225 -526 -256 q -587 -151 -587 -194 q -557 -78 -587 -110 q -483 -47 -526 -47 q -411 -78 -442 -47 q -381 -151 -381 -110 q -411 -225 -381 -194 q -483 -256 -442 -256 z "},"̦":{"ha":0,"x_min":-604,"x_max":-367,"o":"m -367 -15 m -449 -253 q -524 -299 -481 -299 q -582 -276 -560 -299 q -604 -221 -604 -253 q -601 -199 -604 -210 q -594 -176 -599 -187 l -554 -78 q -519 -32 -543 -49 q -468 -15 -496 -15 q -435 -22 -453 -15 q -401 -40 -417 -28 q -376 -69 -386 -51 q -367 -108 -367 -86 q -372 -137 -367 -122 q -389 -169 -376 -151 l -449 -253 z "},"̨":{"ha":0,"x_min":-706,"x_max":-261,"o":"m -261 0 m -597 -299 q -675 -271 -644 -299 q -706 -197 -706 -243 q -696 -151 -706 -176 q -654 -96 -686 -125 l -551 0 l -385 0 l -456 -67 l -378 -67 q -292 -101 -322 -67 q -261 -183 -261 -136 q -292 -265 -261 -231 q -378 -299 -322 -299 l -597 -299 z "},"̭":{"ha":0,"x_min":-749,"x_max":-221,"o":"m -485 -194 l -636 -287 q -658 -297 -647 -294 q -676 -299 -668 -299 q -727 -278 -706 -299 q -749 -229 -749 -257 q -712 -172 -749 -197 l -542 -53 q -512 -39 -528 -43 q -483 -35 -496 -35 q -426 -53 -453 -35 l -256 -172 q -231 -197 -240 -183 q -221 -229 -221 -211 q -242 -278 -221 -257 q -293 -299 -262 -299 q -312 -297 -301 -299 q -333 -287 -322 -294 l -485 -194 z "},"֏":{"ha":957,"x_min":35,"x_max":932,"o":"m 829 113 q 782 22 822 53 q 689 -8 742 -8 q 595 22 635 -8 q 549 113 556 53 l 371 113 q 317 135 336 113 q 297 186 297 157 q 317 238 297 215 q 371 260 336 260 l 547 260 l 547 333 l 371 333 q 317 355 336 333 q 297 406 297 376 q 317 458 297 435 q 371 481 336 481 l 547 481 l 547 631 q 431 758 547 758 q 368 746 390 758 q 335 715 346 733 q 321 673 324 696 q 318 631 318 650 q 304 568 317 593 q 272 528 292 543 q 227 506 251 513 q 176 500 203 500 q 121 508 147 500 q 76 538 94 517 q 46 595 57 560 q 35 685 35 631 q 63 835 35 769 q 142 947 90 901 q 267 1017 193 993 q 433 1040 342 1040 q 831 588 831 1040 l 831 481 l 858 481 q 913 458 893 481 q 932 406 932 435 q 913 355 932 376 q 858 333 893 333 l 831 333 l 831 260 l 858 260 q 913 238 893 260 q 932 186 932 215 q 913 135 932 157 q 858 113 893 113 l 829 113 z "},"Ẁ":{"ha":1258,"x_min":22,"x_max":1192,"o":"m 22 0 m 385 0 q 292 35 333 0 q 231 136 250 69 l 29 857 q 22 903 22 882 q 35 956 22 932 q 68 998 47 981 q 116 1025 89 1015 q 172 1035 143 1035 q 249 1012 213 1035 q 301 931 285 989 l 483 285 l 538 285 l 538 894 q 579 999 538 963 q 679 1035 621 1035 q 779 999 738 1035 q 821 894 821 963 l 821 285 l 908 285 l 908 894 q 950 999 908 963 q 1050 1035 992 1035 q 1150 999 1108 1035 q 1192 894 1192 963 l 1192 142 q 1049 0 1192 0 l 385 0 m 500 1188 q 465 1221 476 1201 q 454 1263 454 1240 q 484 1339 454 1311 q 550 1367 514 1367 q 604 1347 576 1367 l 813 1196 q 853 1126 853 1167 q 828 1069 853 1094 q 769 1043 803 1043 q 722 1057 746 1043 l 500 1188 z "},"Ẃ":{"ha":1258,"x_min":22,"x_max":1192,"o":"m 22 0 m 385 0 q 292 35 333 0 q 231 136 250 69 l 29 857 q 22 903 22 882 q 35 956 22 932 q 68 998 47 981 q 116 1025 89 1015 q 172 1035 143 1035 q 249 1012 213 1035 q 301 931 285 989 l 483 285 l 538 285 l 538 894 q 579 999 538 963 q 679 1035 621 1035 q 779 999 738 1035 q 821 894 821 963 l 821 285 l 908 285 l 908 894 q 950 999 908 963 q 1050 1035 992 1035 q 1150 999 1108 1035 q 1192 894 1192 963 l 1192 142 q 1049 0 1192 0 l 385 0 m 640 1057 q 593 1043 617 1043 q 536 1069 561 1043 q 511 1126 511 1094 q 551 1196 511 1167 l 758 1347 q 813 1367 786 1367 q 880 1339 850 1367 q 910 1263 910 1311 q 899 1221 910 1240 q 864 1188 888 1201 l 640 1057 z "},"Ẅ":{"ha":1258,"x_min":22,"x_max":1192,"o":"m 22 0 m 385 0 q 292 35 333 0 q 231 136 250 69 l 29 857 q 22 903 22 882 q 35 956 22 932 q 68 998 47 981 q 116 1025 89 1015 q 172 1035 143 1035 q 249 1012 213 1035 q 301 931 285 989 l 483 285 l 538 285 l 538 894 q 579 999 538 963 q 679 1035 621 1035 q 779 999 738 1035 q 821 894 821 963 l 821 285 l 908 285 l 908 894 q 950 999 908 963 q 1050 1035 992 1035 q 1150 999 1108 1035 q 1192 894 1192 963 l 1192 142 q 1049 0 1192 0 l 385 0 m 525 1090 q 451 1121 482 1090 q 421 1194 421 1151 q 451 1267 421 1236 q 525 1299 482 1299 q 597 1267 567 1299 q 628 1194 628 1236 q 597 1121 628 1151 q 525 1090 567 1090 m 843 1090 q 770 1121 800 1090 q 740 1194 740 1151 q 770 1267 740 1236 q 843 1299 800 1299 q 916 1267 886 1299 q 946 1194 946 1236 q 916 1121 946 1151 q 843 1090 886 1090 z "},"ẞ":{"ha":1046,"x_min":60,"x_max":1000,"o":"m 565 0 q 431 142 431 0 q 567 285 431 285 l 643 285 q 700 328 700 285 q 646 371 700 371 l 596 371 q 535 383 561 371 q 491 414 508 394 q 465 459 474 433 q 456 513 456 485 q 461 556 456 529 q 490 610 467 583 l 606 742 l 457 742 q 374 712 404 742 q 343 617 343 682 l 343 132 q 332 71 343 97 q 301 27 321 44 q 256 1 282 10 q 201 -8 231 -8 q 147 1 172 -8 q 101 27 121 10 q 71 71 82 44 q 60 132 60 97 l 60 574 q 457 1026 60 1026 l 849 1026 q 944 994 907 1026 q 982 899 982 961 q 976 855 982 878 q 956 810 971 832 l 776 536 q 939 453 878 518 q 1000 265 1000 389 q 985 158 1000 207 q 940 74 971 110 q 860 19 908 39 q 747 0 813 0 l 565 0 z "},"‐":{"ha":581,"x_min":28,"x_max":553,"o":"m 28 414 m 128 414 q 54 444 81 414 q 28 513 28 474 q 54 584 28 553 q 128 615 81 615 l 453 615 q 526 584 500 615 q 553 513 553 553 q 526 444 553 474 q 453 414 500 414 l 128 414 z "},"–":{"ha":917,"x_min":28,"x_max":889,"o":"m 128 414 q 54 444 81 414 q 28 513 28 474 q 54 584 28 553 q 128 615 81 615 l 789 615 q 863 584 836 615 q 889 513 889 553 q 863 444 889 474 q 789 414 836 414 l 128 414 z "},"—":{"ha":1271,"x_min":28,"x_max":1243,"o":"m 128 414 q 54 444 81 414 q 28 513 28 474 q 54 584 28 553 q 128 615 81 615 l 1143 615 q 1217 584 1192 615 q 1243 513 1243 553 q 1217 444 1243 474 q 1143 414 1192 414 l 128 414 z "},"‘":{"ha":335,"x_min":28,"x_max":307,"o":"m 307 779 q 267 666 307 708 q 168 624 228 624 q 117 633 143 624 q 72 659 92 642 q 40 703 53 676 q 28 768 28 731 q 31 801 28 783 q 40 839 33 818 l 94 1006 q 133 1067 107 1044 q 203 1090 160 1090 q 279 1060 251 1090 q 307 981 307 1031 l 307 779 z "},"’":{"ha":335,"x_min":28,"x_max":307,"o":"m 240 708 q 201 647 228 669 q 132 624 175 624 q 56 653 83 624 q 28 733 28 683 l 28 935 q 67 1048 28 1006 q 167 1090 107 1090 q 217 1081 192 1090 q 263 1055 243 1072 q 294 1010 282 1038 q 307 946 307 983 q 304 913 307 931 q 294 875 301 896 l 240 708 z "},"‚":{"ha":335,"x_min":28,"x_max":307,"o":"m 28 0 m 240 -104 q 201 -166 228 -143 q 132 -189 175 -189 q 56 -159 83 -189 q 28 -79 28 -129 l 28 122 q 67 235 28 193 q 167 278 107 278 q 217 269 192 278 q 263 242 243 260 q 294 198 282 225 q 307 133 307 171 q 304 101 307 118 q 294 63 301 83 l 240 -104 z "},"“":{"ha":669,"x_min":28,"x_max":642,"o":"m 28 624 m 307 779 q 267 666 307 708 q 168 624 228 624 q 117 633 143 624 q 72 659 92 642 q 40 703 53 676 q 28 768 28 731 q 31 801 28 783 q 40 839 33 818 l 94 1006 q 133 1067 107 1044 q 203 1090 160 1090 q 279 1060 251 1090 q 307 981 307 1031 l 307 779 m 642 779 q 602 666 642 708 q 503 624 563 624 q 452 633 478 624 q 407 659 426 642 q 375 703 388 676 q 363 768 363 731 q 365 801 363 783 q 375 839 368 818 l 429 1006 q 468 1067 442 1044 q 538 1090 494 1090 q 614 1060 586 1090 q 642 981 642 1031 l 642 779 z "},"”":{"ha":669,"x_min":28,"x_max":642,"o":"m 28 624 m 240 708 q 201 647 228 669 q 132 624 175 624 q 56 653 83 624 q 28 733 28 683 l 28 935 q 67 1048 28 1006 q 167 1090 107 1090 q 217 1081 192 1090 q 263 1055 243 1072 q 294 1010 282 1038 q 307 946 307 983 q 304 913 307 931 q 294 875 301 896 l 240 708 m 575 708 q 536 647 563 669 q 467 624 510 624 q 390 653 418 624 q 363 733 363 683 l 363 935 q 402 1048 363 1006 q 501 1090 442 1090 q 552 1081 526 1090 q 597 1055 578 1072 q 629 1010 617 1038 q 642 946 642 983 q 639 913 642 931 q 629 875 636 896 l 575 708 z "},"„":{"ha":669,"x_min":28,"x_max":642,"o":"m 28 0 m 240 -104 q 201 -166 228 -143 q 132 -189 175 -189 q 56 -159 83 -189 q 28 -79 28 -129 l 28 122 q 67 235 28 193 q 167 278 107 278 q 217 269 192 278 q 263 242 243 260 q 294 198 282 225 q 307 133 307 171 q 304 101 307 118 q 294 63 301 83 l 240 -104 m 575 -104 q 536 -166 563 -143 q 467 -189 510 -189 q 390 -159 418 -189 q 363 -79 363 -129 l 363 122 q 402 235 363 193 q 501 278 442 278 q 552 269 526 278 q 597 242 578 260 q 629 198 617 225 q 642 133 642 171 q 639 101 642 118 q 629 63 636 83 l 575 -104 z "},"†":{"ha":803,"x_min":28,"x_max":775,"o":"m 300 644 l 128 644 q 54 674 81 644 q 28 743 28 704 q 54 815 28 783 q 128 846 81 846 l 300 846 l 300 935 q 330 1008 300 982 q 400 1035 360 1035 q 471 1008 440 1035 q 501 935 501 982 l 501 846 l 674 846 q 749 815 722 846 q 775 743 775 783 q 749 674 775 704 q 674 644 722 644 l 501 644 l 501 93 q 471 18 501 44 q 400 -8 440 -8 q 330 18 360 -8 q 300 93 300 44 l 300 644 z "},"‡":{"ha":803,"x_min":28,"x_max":775,"o":"m 501 181 l 501 92 q 471 18 501 44 q 400 -8 440 -8 q 330 18 360 -8 q 300 92 300 44 l 300 181 l 128 181 q 54 212 81 181 q 28 283 28 243 q 54 352 28 322 q 128 382 81 382 l 300 382 l 300 644 l 128 644 q 54 674 81 644 q 28 743 28 704 q 54 815 28 783 q 128 846 81 846 l 300 846 l 300 935 q 330 1008 300 982 q 400 1035 360 1035 q 471 1008 440 1035 q 501 935 501 982 l 501 846 l 674 846 q 749 815 722 846 q 775 743 775 783 q 749 674 775 704 q 674 644 722 644 l 501 644 l 501 382 l 674 382 q 749 352 722 382 q 775 283 775 322 q 749 212 775 243 q 674 181 722 181 l 501 181 z "},"•":{"ha":761,"x_min":67,"x_max":694,"o":"m 694 606 q 669 483 694 540 q 602 383 644 426 q 502 316 560 340 q 379 292 444 292 q 258 316 314 292 q 158 383 201 340 q 91 483 115 426 q 67 606 67 540 q 91 727 67 669 q 158 827 115 785 q 258 894 201 869 q 379 919 314 919 q 502 894 444 919 q 602 827 560 869 q 669 727 644 785 q 694 606 694 669 z "},"…":{"ha":1013,"x_min":28,"x_max":985,"o":"m 28 0 m 169 -8 q 115 3 140 -8 q 69 33 89 14 q 39 78 50 53 q 28 133 28 104 q 39 189 28 163 q 69 235 50 215 q 115 266 89 254 q 169 278 140 278 q 224 266 199 278 q 269 235 250 254 q 299 189 288 215 q 310 133 310 163 q 299 78 310 104 q 268 33 288 53 q 224 3 249 14 q 169 -8 199 -8 m 507 -8 q 452 3 478 -8 q 407 33 426 14 q 376 78 388 53 q 365 133 365 104 q 376 189 365 163 q 407 235 388 215 q 452 266 426 254 q 507 278 478 278 q 562 266 536 278 q 606 235 588 254 q 636 189 625 215 q 647 133 647 163 q 636 78 647 104 q 606 33 625 53 q 561 3 586 14 q 507 -8 536 -8 m 844 -8 q 790 3 815 -8 q 744 33 764 14 q 714 78 725 53 q 703 133 703 104 q 714 189 703 163 q 744 235 725 215 q 790 266 764 254 q 844 278 815 278 q 899 266 874 278 q 944 235 925 254 q 974 189 963 215 q 985 133 985 163 q 974 78 985 104 q 943 33 963 53 q 899 3 924 14 q 844 -8 874 -8 z "},"‹":{"ha":385,"x_min":0,"x_max":357,"o":"m 11 390 q 0 439 0 413 q 11 488 0 464 l 160 825 q 199 872 175 858 q 250 886 224 886 q 325 858 293 886 q 357 790 357 831 q 353 763 357 775 q 343 739 349 750 l 211 439 l 343 139 q 352 115 347 128 q 357 86 357 101 q 325 19 357 47 q 250 -8 293 -8 q 199 6 224 -8 q 160 53 175 19 l 11 390 z "},"›":{"ha":385,"x_min":28,"x_max":385,"o":"m 225 53 q 185 6 210 19 q 135 -8 161 -8 q 60 19 92 -8 q 28 86 28 47 q 33 115 28 101 q 42 139 38 128 l 174 439 l 42 739 q 32 763 36 750 q 28 790 28 775 q 60 858 28 831 q 135 886 92 886 q 185 872 161 886 q 225 825 210 858 l 374 488 q 385 439 385 464 q 374 390 385 413 l 225 53 z "},"⁄":{"ha":188,"x_min":-251,"x_max":438,"o":"m 247 983 q 285 1023 263 1011 q 333 1035 308 1035 q 406 1006 374 1035 q 438 936 438 978 q 422 883 438 911 l -62 43 q -101 4 -78 17 q -149 -8 -125 -8 q -222 23 -192 -8 q -251 94 -251 54 q -237 144 -251 121 l 247 983 z "},"⁰":{"ha":569,"x_min":50,"x_max":514,"o":"m 50 447 m 344 806 q 327 851 344 836 q 281 867 310 867 q 238 851 254 867 q 221 806 221 836 l 221 678 q 238 632 221 647 q 281 617 254 617 q 327 632 310 617 q 344 678 344 647 l 344 806 m 514 701 q 455 510 514 574 q 282 447 396 447 q 110 510 169 447 q 50 701 50 574 l 50 782 q 110 972 50 908 q 282 1035 169 1035 q 455 972 396 1035 q 514 782 514 908 l 514 701 z "},"⁴":{"ha":547,"x_min":44,"x_max":493,"o":"m 44 451 m 322 657 l 129 657 q 44 743 44 657 l 44 947 q 70 1011 44 990 q 129 1032 96 1032 q 189 1011 164 1032 q 214 947 214 990 l 214 828 l 322 828 l 322 947 q 347 1011 322 990 q 406 1032 372 1032 q 467 1011 440 1032 q 493 947 493 990 l 493 535 q 467 473 493 494 q 406 451 440 451 q 347 473 372 451 q 322 535 322 494 l 322 657 z "},"⁵":{"ha":565,"x_min":50,"x_max":518,"o":"m 50 456 m 140 456 q 50 540 50 456 q 142 626 50 626 l 347 626 q 368 649 368 626 q 347 671 368 671 l 94 671 q 56 714 56 671 l 56 989 q 93 1026 56 1026 l 429 1026 q 510 943 510 1026 q 428 857 510 857 l 225 857 l 225 814 l 347 814 q 476 774 435 814 q 518 643 518 735 q 338 456 518 456 l 140 456 z "},"⁶":{"ha":558,"x_min":49,"x_max":508,"o":"m 49 456 m 235 671 q 217 649 217 671 q 235 626 217 626 l 335 626 q 358 649 358 626 q 335 671 358 671 l 235 671 m 219 456 q 90 503 132 456 q 49 646 49 550 l 49 843 q 231 1026 49 1026 l 418 1026 q 479 1007 458 1026 q 500 943 500 988 q 417 857 500 857 l 242 857 q 217 833 217 857 l 217 808 l 336 808 q 508 642 508 808 q 326 456 508 456 l 219 456 z "},"⁷":{"ha":521,"x_min":26,"x_max":494,"o":"m 26 451 m 415 1026 q 472 1007 449 1026 q 494 949 494 988 q 492 926 494 938 q 479 899 489 914 l 213 504 q 177 465 194 479 q 132 451 160 451 q 70 476 92 451 q 49 531 49 500 q 53 558 49 543 q 68 589 57 574 l 267 857 l 111 857 q 49 883 71 857 q 26 942 26 908 q 49 1002 26 978 q 111 1026 71 1026 l 415 1026 z "},"⁸":{"ha":540,"x_min":33,"x_max":503,"o":"m 33 456 m 236 857 q 214 835 214 857 q 236 814 214 814 l 301 814 q 324 835 324 814 q 301 857 324 857 l 236 857 m 236 671 q 214 649 214 671 q 236 626 214 626 l 301 626 q 324 649 324 626 q 301 671 324 671 l 236 671 m 181 456 q 68 499 103 456 q 33 607 33 542 q 56 694 33 660 q 115 743 79 728 q 33 876 33 771 q 69 983 33 940 q 182 1026 104 1026 l 356 1026 q 468 984 433 1026 q 503 878 503 942 q 481 791 503 825 q 421 743 460 757 q 481 690 458 726 q 503 604 503 653 q 467 499 503 542 q 357 456 432 456 l 181 456 z "},"⁹":{"ha":558,"x_min":46,"x_max":506,"o":"m 46 456 m 225 857 q 201 835 201 857 q 225 814 201 814 l 319 814 q 336 835 336 814 q 319 857 336 857 l 225 857 m 140 456 q 58 540 58 456 q 142 626 58 626 l 313 626 q 336 650 336 626 l 336 676 l 217 676 q 46 846 46 676 q 228 1026 46 1026 l 335 1026 q 506 839 506 1026 l 506 639 q 322 456 506 456 l 140 456 z "},"₀":{"ha":569,"x_min":50,"x_max":514,"o":"m 344 350 q 327 396 344 381 q 281 411 310 411 q 238 396 254 411 q 221 350 221 381 l 221 222 q 238 176 221 192 q 281 161 254 161 q 327 176 310 161 q 344 222 344 192 l 344 350 m 514 246 q 455 55 514 118 q 282 -8 396 -8 q 110 55 169 -8 q 50 246 50 118 l 50 326 q 110 516 50 453 q 282 579 169 579 q 455 516 396 579 q 514 326 514 453 l 514 246 z "},"₁":{"ha":358,"x_min":28,"x_max":306,"o":"m 136 294 q 122 290 129 292 q 107 289 114 289 q 50 314 72 289 q 28 374 28 339 q 35 408 28 389 q 56 440 42 426 l 161 544 q 233 576 193 576 q 285 559 265 576 q 306 499 306 542 l 306 81 q 281 18 306 40 q 222 -4 257 -4 q 162 18 188 -4 q 136 81 136 40 l 136 294 z "},"₂":{"ha":568,"x_min":47,"x_max":518,"o":"m 75 0 q 56 8 64 0 q 47 32 47 15 l 47 186 q 219 365 47 365 l 344 365 q 367 386 367 365 q 344 408 367 408 l 139 408 q 56 489 56 408 q 138 571 56 571 l 335 571 q 518 386 518 571 q 346 208 518 208 l 219 208 q 197 186 197 208 l 197 167 l 426 167 q 518 83 518 167 q 428 0 518 0 l 75 0 z "},"₃":{"ha":529,"x_min":40,"x_max":493,"o":"m 121 0 q 40 82 40 0 q 122 164 40 164 l 290 164 q 314 186 314 164 q 290 208 314 208 l 124 208 q 42 288 42 208 q 122 365 42 365 l 290 365 q 314 386 314 365 q 290 408 314 408 l 118 408 q 40 489 40 408 q 117 571 40 571 l 346 571 q 458 528 422 571 q 493 422 493 486 q 472 335 493 369 q 411 288 450 301 q 472 234 450 271 q 493 149 493 197 q 458 43 493 86 q 349 0 424 0 l 121 0 z "},"₄":{"ha":547,"x_min":44,"x_max":493,"o":"m 322 201 l 129 201 q 44 288 44 201 l 44 492 q 70 556 44 535 q 129 576 96 576 q 189 556 164 576 q 214 492 214 535 l 214 372 l 322 372 l 322 492 q 347 556 322 535 q 406 576 372 576 q 467 556 440 576 q 493 492 493 535 l 493 79 q 467 17 493 39 q 406 -4 440 -4 q 347 17 372 -4 q 322 79 322 39 l 322 201 z "},"₅":{"ha":565,"x_min":50,"x_max":518,"o":"m 140 0 q 50 85 50 0 q 142 171 50 171 l 347 171 q 368 193 368 171 q 347 215 368 215 l 94 215 q 56 258 56 215 l 56 533 q 93 571 56 571 l 429 571 q 510 488 510 571 q 428 401 510 401 l 225 401 l 225 358 l 347 358 q 476 319 435 358 q 518 188 518 279 q 338 0 518 0 l 140 0 z "},"₆":{"ha":558,"x_min":49,"x_max":508,"o":"m 235 215 q 217 193 217 215 q 235 171 217 171 l 335 171 q 358 193 358 171 q 335 215 358 215 l 235 215 m 219 0 q 90 47 132 0 q 49 190 49 94 l 49 388 q 231 571 49 571 l 418 571 q 479 551 458 571 q 500 488 500 532 q 417 401 500 401 l 242 401 q 217 378 217 401 l 217 353 l 336 353 q 508 186 508 353 q 326 0 508 0 l 219 0 z "},"₇":{"ha":521,"x_min":26,"x_max":494,"o":"m 415 571 q 472 551 449 571 q 494 493 494 532 q 492 470 494 482 q 479 443 489 458 l 213 49 q 177 10 194 24 q 132 -4 160 -4 q 70 20 92 -4 q 49 75 49 44 q 53 103 49 88 q 68 133 57 118 l 267 401 l 111 401 q 49 427 71 401 q 26 486 26 453 q 49 547 26 522 q 111 571 71 571 l 415 571 z "},"₈":{"ha":540,"x_min":33,"x_max":503,"o":"m 236 401 q 214 379 214 401 q 236 358 214 358 l 301 358 q 324 379 324 358 q 301 401 324 401 l 236 401 m 236 215 q 214 193 214 215 q 236 171 214 171 l 301 171 q 324 193 324 171 q 301 215 324 215 l 236 215 m 181 0 q 68 43 103 0 q 33 151 33 86 q 56 238 33 204 q 115 288 79 272 q 33 421 33 315 q 69 528 33 485 q 182 571 104 571 l 356 571 q 468 528 433 571 q 503 422 503 486 q 481 335 503 369 q 421 288 460 301 q 481 234 458 271 q 503 149 503 197 q 467 43 503 86 q 357 0 432 0 l 181 0 z "},"₉":{"ha":558,"x_min":46,"x_max":506,"o":"m 225 401 q 201 379 201 401 q 225 358 201 358 l 319 358 q 336 379 336 358 q 319 401 336 401 l 225 401 m 140 0 q 58 85 58 0 q 142 171 58 171 l 313 171 q 336 194 336 171 l 336 221 l 217 221 q 46 390 46 221 q 228 571 46 571 l 335 571 q 506 383 506 571 l 506 183 q 322 0 506 0 l 140 0 z "},"₩":{"ha":1308,"x_min":25,"x_max":1283,"o":"m 286 0 q 143 142 143 0 l 143 383 l 128 383 q 54 413 81 383 q 28 482 28 443 q 54 553 28 522 q 128 585 81 585 l 143 585 l 143 661 l 125 661 q 51 691 78 661 q 25 760 25 721 q 51 831 25 800 q 125 863 78 863 l 143 863 l 143 894 q 185 999 143 963 q 285 1035 226 1035 q 385 999 343 1035 q 426 894 426 963 l 426 863 l 514 863 l 514 894 q 556 999 514 963 q 656 1035 597 1035 q 756 999 714 1035 q 797 894 797 963 l 797 863 l 885 863 l 885 894 q 926 999 885 963 q 1026 1035 968 1035 q 1126 999 1085 1035 q 1168 894 1168 963 l 1168 863 l 1181 863 q 1255 831 1229 863 q 1281 760 1281 800 q 1255 691 1281 721 q 1181 661 1229 661 l 1168 661 l 1168 585 l 1183 585 q 1258 553 1232 585 q 1283 482 1283 522 q 1258 413 1283 443 q 1183 383 1232 383 l 1168 383 l 1168 142 q 1025 0 1168 0 l 286 0 m 514 285 l 514 383 l 426 383 l 426 285 l 514 285 m 885 285 l 885 383 l 797 383 l 797 285 l 885 285 m 426 585 l 514 585 l 514 661 l 426 661 l 426 585 m 797 585 l 885 585 l 885 661 l 797 661 l 797 585 z "},"₪":{"ha":1153,"x_min":60,"x_max":1086,"o":"m 621 0 q 333 328 333 0 l 333 593 q 364 669 333 643 q 436 694 394 694 q 508 669 478 694 q 539 593 539 643 l 539 297 q 560 228 539 250 q 621 207 582 207 l 883 207 l 883 933 q 914 1009 883 983 q 985 1035 944 1035 q 1056 1009 1026 1035 q 1086 933 1086 983 l 1086 103 q 985 0 1086 0 l 621 0 m 525 1026 q 813 699 813 1026 l 813 433 q 782 358 813 383 q 710 332 751 332 q 638 358 668 332 q 607 433 607 383 l 607 729 q 585 798 607 776 q 525 819 564 819 l 263 819 l 263 93 q 232 17 263 43 q 161 -8 201 -8 q 90 17 119 -8 q 60 93 60 43 l 60 924 q 161 1026 60 1026 l 525 1026 z "},"€":{"ha":901,"x_min":21,"x_max":863,"o":"m 617 0 q 437 31 522 0 q 283 116 351 61 q 167 246 214 171 q 101 410 119 321 q 42 449 63 421 q 21 517 21 478 q 42 584 21 556 q 100 624 63 613 q 163 782 118 708 q 278 910 208 856 q 438 995 347 964 q 639 1026 529 1026 l 719 1026 q 780 1015 753 1026 q 825 983 807 1003 q 853 937 843 963 q 863 882 863 911 q 853 827 863 853 q 825 782 843 801 q 780 751 807 763 q 719 739 753 739 l 617 739 q 497 709 553 739 q 408 629 442 679 l 675 629 q 758 597 728 629 q 789 518 789 564 q 758 440 789 472 q 675 407 728 407 l 406 407 q 491 318 436 351 q 615 285 546 285 l 719 285 q 780 273 753 285 q 825 241 807 261 q 853 195 843 221 q 863 140 863 169 q 825 41 863 82 q 719 0 788 0 l 617 0 z "},"₭":{"ha":965,"x_min":6,"x_max":936,"o":"m 717 414 l 864 236 q 897 183 888 208 q 907 132 907 158 q 896 79 907 104 q 865 35 885 54 q 819 3 846 15 q 763 -8 793 -8 q 700 6 731 -8 q 643 57 669 21 l 410 371 l 410 132 q 368 28 410 64 q 269 -8 326 -8 q 169 28 211 -8 q 128 132 128 64 l 128 414 l 106 414 q 32 444 58 414 q 6 513 6 474 q 32 584 6 553 q 106 615 58 615 l 128 615 l 128 894 q 169 999 128 964 q 269 1035 211 1035 q 368 999 326 1035 q 410 894 410 964 l 410 656 l 626 958 q 691 1020 660 1006 q 756 1035 722 1035 q 819 1023 792 1035 q 865 992 847 1011 q 892 947 883 972 q 901 897 901 922 q 892 847 901 872 q 857 792 882 822 l 711 615 l 836 615 q 910 584 885 615 q 936 513 936 553 q 910 444 936 474 q 836 414 885 414 l 717 414 z "},"₮":{"ha":793,"x_min":14,"x_max":779,"o":"m 621 440 q 681 413 654 440 q 708 350 708 386 q 664 278 708 303 l 539 206 l 539 133 q 497 29 539 65 q 397 -7 456 -7 q 328 8 360 -7 q 278 54 297 24 l 215 18 q 171 6 192 6 q 110 33 135 6 q 85 96 85 61 q 95 137 85 117 q 128 169 106 157 l 257 243 l 257 306 l 215 282 q 171 269 192 269 q 110 297 135 269 q 85 360 85 325 q 95 401 85 381 q 128 433 106 421 l 257 507 l 257 742 l 157 742 q 97 753 124 742 q 52 785 71 765 q 24 830 33 804 q 14 885 14 856 q 52 985 14 943 q 157 1026 90 1026 l 636 1026 q 741 985 703 1026 q 779 885 779 943 q 769 830 779 856 q 741 785 760 804 q 696 753 722 765 q 636 742 669 742 l 539 742 l 539 669 l 578 692 q 621 704 599 704 q 681 677 654 704 q 708 614 708 650 q 664 542 708 567 l 539 469 l 539 406 l 578 428 q 621 440 599 440 z "},"₱":{"ha":926,"x_min":67,"x_max":915,"o":"m 792 533 q 474 232 782 232 l 350 232 l 350 138 q 206 -8 350 -8 q 101 27 133 -8 q 68 138 68 63 l 68 315 q 106 446 68 403 q 228 489 144 489 l 504 489 q 546 533 546 489 l 151 533 q 67 618 67 533 q 151 703 67 703 l 546 703 q 510 742 546 742 l 204 742 q 102 777 138 742 q 67 888 67 813 q 99 992 67 958 q 203 1026 132 1026 l 472 1026 q 792 703 789 1026 l 832 703 q 915 618 915 703 q 832 533 915 533 l 792 533 z "},"₲":{"ha":1117,"x_min":44,"x_max":1117,"o":"m 831 1026 q 890 1015 864 1026 q 935 983 917 1003 q 963 937 953 963 q 972 882 972 911 q 963 827 972 853 q 935 782 953 801 q 890 751 917 763 q 831 739 864 739 l 726 739 l 557 285 l 635 285 l 738 546 l 988 546 q 1117 415 1117 546 q 988 285 1117 285 l 900 285 l 803 0 l 572 0 q 513 4 542 0 q 457 15 485 8 q 431 -41 444 -19 q 403 -75 417 -62 q 376 -92 390 -87 q 349 -96 363 -96 q 309 -89 328 -96 q 276 -69 290 -82 q 252 -40 261 -57 q 243 -4 243 -24 q 244 6 243 0 q 247 24 244 13 q 256 51 250 35 q 271 93 261 68 q 105 269 165 161 q 44 514 44 378 q 83 715 44 621 q 194 878 122 808 q 367 987 265 947 q 594 1026 468 1026 l 831 1026 m 333 514 q 376 379 333 438 l 510 736 q 438 710 469 731 q 382 660 406 690 q 346 593 358 631 q 333 514 333 556 z "},"₴":{"ha":850,"x_min":57,"x_max":804,"o":"m 507 249 q 527 213 513 228 q 558 184 542 199 q 586 149 574 169 q 599 97 599 129 q 568 20 599 49 q 481 -8 538 -8 q 396 10 435 -8 q 326 63 357 29 q 276 144 296 97 q 251 249 257 192 l 157 249 q 83 278 110 249 q 57 347 57 307 q 83 419 57 388 q 157 450 110 450 l 278 450 l 338 579 l 157 579 q 83 609 110 579 q 57 679 57 639 q 83 750 57 719 q 157 781 110 781 l 342 781 q 319 810 333 797 q 290 838 304 824 q 265 873 275 853 q 254 924 254 893 q 285 1003 254 974 q 372 1033 317 1033 q 453 1015 415 1033 q 522 964 492 997 q 574 884 553 931 q 601 781 594 838 l 703 781 q 778 750 751 781 q 804 679 804 719 q 778 609 804 639 q 703 579 751 579 l 578 579 l 517 450 l 703 450 q 778 419 751 450 q 804 347 804 388 q 778 278 804 307 q 703 249 751 249 l 507 249 z "},"₸":{"ha":835,"x_min":35,"x_max":800,"o":"m 135 825 q 61 855 88 825 q 35 924 35 885 q 61 995 35 964 q 135 1026 88 1026 l 700 1026 q 774 995 747 1026 q 800 924 800 964 q 774 855 800 885 q 700 825 747 825 l 135 825 m 278 436 l 178 436 q 118 448 144 436 q 73 479 92 460 q 44 524 54 499 q 35 579 35 550 q 73 679 35 638 q 178 721 111 721 l 657 721 q 762 679 724 721 q 800 579 800 638 q 790 524 800 550 q 762 479 781 499 q 717 448 743 460 q 657 436 690 436 l 560 436 l 560 133 q 518 29 560 65 q 418 -7 476 -7 q 319 29 360 -7 q 278 133 278 65 l 278 436 z "},"₹":{"ha":863,"x_min":25,"x_max":835,"o":"m 450 -8 q 394 2 422 -8 q 339 39 367 13 l 113 257 q 63 315 85 283 q 40 399 40 347 q 76 490 40 457 q 185 522 113 522 l 414 522 q 452 533 438 522 q 467 571 467 543 l 122 571 q 55 598 79 571 q 31 661 31 625 q 55 726 31 697 q 122 756 79 756 l 471 756 q 418 806 471 806 l 135 806 q 54 838 83 806 q 25 915 25 871 q 54 992 25 958 q 135 1026 83 1026 l 722 1026 q 805 992 775 1026 q 835 915 835 958 q 805 838 835 871 q 722 806 775 806 l 704 806 q 708 781 707 793 q 710 756 708 768 l 740 756 q 810 726 785 756 q 835 661 835 697 q 810 598 835 625 q 740 571 785 571 l 710 571 q 688 449 710 500 q 631 363 667 397 q 552 310 596 329 q 465 288 508 292 l 525 232 q 563 183 551 207 q 575 126 575 158 q 542 31 575 69 q 450 -8 508 -8 z "},"₺":{"ha":943,"x_min":35,"x_max":911,"o":"m 503 644 q 554 621 531 644 q 578 565 578 597 q 539 503 578 525 l 415 431 l 415 285 l 456 285 q 534 293 501 285 q 590 315 567 301 q 630 342 614 328 q 658 369 646 357 q 708 412 678 390 q 781 433 739 433 q 826 426 803 433 q 867 402 849 418 q 899 360 886 386 q 911 299 911 335 q 870 178 911 233 q 763 84 829 124 q 610 22 696 44 q 436 0 525 0 l 281 0 q 172 39 211 0 q 133 142 133 78 l 133 269 q 110 265 121 265 q 56 290 78 265 q 35 344 35 314 q 44 380 35 363 q 72 408 53 397 l 133 443 l 133 524 q 110 519 121 519 q 56 544 78 519 q 35 599 35 568 q 44 634 35 617 q 72 663 53 651 l 133 697 l 133 894 q 174 999 133 964 q 274 1035 215 1035 q 373 999 331 1035 q 415 894 415 963 l 415 860 l 464 888 q 503 899 483 899 q 554 875 531 899 q 578 819 578 851 q 539 757 578 779 l 415 685 l 415 606 l 464 633 q 503 644 483 644 z "},"₼":{"ha":988,"x_min":54,"x_max":933,"o":"m 303 114 q 265 23 303 54 q 178 -8 228 -8 q 91 23 128 -8 q 54 114 54 54 l 54 347 q 374 742 54 728 l 374 918 q 408 1006 374 976 q 490 1035 442 1035 q 572 1006 538 1035 q 607 918 607 976 l 607 743 q 853 638 772 738 q 933 347 933 539 l 933 114 q 896 23 933 54 q 808 -8 858 -8 q 721 23 757 -8 q 685 114 685 54 l 685 385 q 607 494 685 483 l 607 108 q 572 22 607 51 q 490 -8 538 -8 q 408 22 442 -8 q 374 108 374 51 l 374 493 q 303 385 303 479 l 303 114 z "},"₽":{"ha":953,"x_min":13,"x_max":919,"o":"m 449 118 q 307 -8 440 -8 q 206 23 239 -8 q 168 118 172 54 l 113 118 q 39 147 65 118 q 13 217 13 176 q 39 288 13 257 q 113 319 65 319 l 168 319 l 168 410 l 113 410 q 39 439 65 410 q 13 508 13 468 q 39 580 13 549 q 113 611 65 611 l 615 611 q 659 627 644 611 q 674 681 674 643 q 659 729 674 717 q 615 742 644 742 l 304 742 q 202 778 238 742 q 167 885 167 814 q 199 991 167 956 q 303 1026 231 1026 l 600 1026 q 919 699 919 1026 q 899 561 919 617 q 840 472 879 506 q 740 424 800 439 q 601 410 681 410 l 450 410 l 450 319 l 631 319 q 706 288 679 319 q 732 217 732 257 q 706 147 732 176 q 631 118 679 118 l 449 118 z "},"₾":{"ha":929,"x_min":36,"x_max":888,"o":"m 171 0 q 70 42 104 0 q 36 142 36 83 q 69 242 36 200 q 169 285 103 283 q 114 517 114 392 q 140 679 114 601 q 214 821 165 757 q 333 931 263 885 q 492 1003 403 978 l 492 1075 q 546 1131 492 1131 q 601 1075 601 1131 l 601 1022 l 671 1026 l 671 1075 q 725 1131 671 1131 q 781 1075 781 1131 l 781 1021 q 861 968 835 1007 q 888 881 888 929 q 861 795 888 833 q 781 743 835 757 l 781 490 q 725 436 781 436 q 671 490 671 436 l 671 739 q 633 737 650 738 q 601 733 617 736 l 601 490 q 546 436 601 436 q 492 490 492 436 l 492 692 q 427 619 451 663 q 403 515 403 575 q 419 428 403 467 q 464 358 436 389 q 509 321 486 335 q 559 300 532 307 q 618 290 586 293 q 689 285 650 286 q 766 269 736 282 q 813 238 796 257 q 835 194 829 218 q 842 144 842 169 q 807 41 842 82 q 689 0 772 0 l 171 0 z "},"№":{"ha":1554,"x_min":67,"x_max":1515,"o":"m 67 0 m 349 435 l 349 132 q 307 28 349 64 q 207 -8 265 -8 q 108 28 149 -8 q 67 132 67 64 l 67 894 q 108 999 67 964 q 207 1035 149 1035 q 280 1016 254 1035 q 328 963 306 997 l 579 572 l 579 894 q 591 955 579 929 q 622 999 603 981 q 667 1026 642 1017 q 721 1035 693 1035 q 821 999 779 1035 q 863 894 863 964 l 863 132 q 821 28 863 64 q 721 -8 779 -8 q 635 14 664 -8 q 586 67 606 36 l 349 435 m 1355 742 q 1315 839 1355 800 q 1219 878 1276 878 q 1124 839 1163 878 q 1085 742 1085 800 q 1124 646 1085 684 q 1219 608 1163 608 q 1315 646 1276 608 q 1355 742 1355 684 m 1219 445 q 1102 468 1157 445 q 1007 532 1047 492 q 943 627 967 573 q 919 743 919 681 q 943 860 919 806 q 1007 955 967 914 q 1102 1019 1047 995 q 1219 1042 1157 1042 q 1335 1019 1280 1042 q 1429 955 1389 995 q 1493 860 1469 914 q 1517 743 1517 806 q 1493 627 1517 681 q 1429 532 1469 573 q 1335 468 1389 492 q 1219 445 1280 445 m 1032 217 q 970 243 992 217 q 947 301 947 269 q 970 363 947 336 q 1032 390 992 390 l 1402 390 q 1465 363 1442 390 q 1488 301 1488 336 q 1465 243 1488 269 q 1402 217 1442 217 l 1032 217 z "},"℗":{"ha":1139,"x_min":44,"x_max":1094,"o":"m 531 440 l 531 333 q 463 265 531 265 q 396 333 396 265 l 396 493 q 472 575 396 575 l 643 575 q 668 596 668 575 q 643 615 668 615 l 460 615 q 396 683 396 615 q 460 751 396 751 l 633 751 q 786 596 786 751 q 636 440 786 440 l 531 440 m 571 114 q 725 145 653 114 q 851 230 797 176 q 935 356 904 283 q 965 510 965 428 q 935 663 965 590 q 851 790 904 736 q 725 876 797 844 q 571 908 653 908 q 417 876 489 908 q 293 790 346 844 q 210 663 240 736 q 179 510 179 590 q 210 356 179 428 q 293 230 240 283 q 417 145 346 176 q 571 114 489 114 m 1094 513 q 1053 308 1094 404 q 940 141 1011 213 q 772 28 868 69 q 568 -14 676 -14 q 365 28 460 -14 q 198 141 269 69 q 85 308 126 213 q 44 513 44 404 q 85 718 44 622 q 198 885 126 814 q 365 999 269 957 q 568 1040 460 1040 q 772 999 676 1040 q 940 885 868 957 q 1053 718 1011 814 q 1094 513 1094 622 z "},"™":{"ha":997,"x_min":21,"x_max":969,"o":"m 140 883 l 90 883 q 40 905 58 883 q 21 957 21 926 q 40 1007 21 986 q 90 1028 58 1028 l 332 1028 q 383 1007 364 1028 q 403 957 403 986 q 383 905 403 926 q 332 883 364 883 l 283 883 l 283 585 q 263 531 283 549 q 214 514 242 514 q 163 531 185 514 q 140 585 140 549 l 140 883 m 826 883 l 783 883 l 783 585 q 763 532 783 550 q 713 514 743 514 q 662 532 682 514 q 642 585 642 550 l 642 883 l 614 883 l 525 565 q 501 525 518 538 q 461 513 483 513 q 410 530 433 513 q 386 578 386 547 q 390 603 386 588 l 492 974 q 524 1017 501 1007 q 565 1026 546 1026 l 897 1026 q 969 957 969 1026 l 969 585 q 949 532 969 550 q 897 514 928 514 q 847 532 868 514 q 826 585 826 550 l 826 883 z "},"−":{"ha":881,"x_min":67,"x_max":814,"o":"m 167 414 q 93 444 119 414 q 67 513 67 474 q 93 584 67 553 q 167 615 119 615 l 713 615 q 788 584 761 615 q 814 513 814 553 q 788 444 814 474 q 713 414 761 414 l 167 414 z "},"≠":{"ha":881,"x_min":67,"x_max":814,"o":"m 593 579 l 518 450 l 713 450 q 788 419 761 450 q 814 347 814 388 q 788 278 814 307 q 713 249 761 249 l 403 249 l 263 6 q 224 -33 247 -21 q 176 -46 200 -46 q 103 -15 133 -46 q 74 57 74 17 q 88 107 74 83 l 169 249 l 167 249 q 93 278 119 249 q 67 347 67 307 q 93 419 67 388 q 167 450 119 450 l 286 450 l 360 579 l 167 579 q 93 609 119 579 q 67 678 67 639 q 93 749 67 718 q 167 781 119 781 l 476 781 l 617 1022 q 655 1062 632 1050 q 703 1074 678 1074 q 775 1045 743 1074 q 807 975 807 1017 q 792 922 807 950 l 710 781 l 713 781 q 788 749 761 781 q 814 678 814 718 q 788 609 814 639 q 713 579 761 579 l 593 579 z "},"":{"ha":1010,"x_min":35,"x_max":963,"o":"m 288 0 q 174 19 222 0 q 95 74 126 39 q 49 158 64 110 q 35 265 35 207 q 86 433 35 367 q 233 514 138 499 q 89 592 138 528 q 40 761 40 657 q 55 868 40 819 q 101 952 69 917 q 181 1007 132 988 q 296 1026 229 1026 l 832 1026 q 963 885 963 1026 q 831 742 963 742 l 392 742 q 335 699 335 742 q 392 656 335 656 l 818 656 q 953 514 953 656 q 817 371 953 371 l 392 371 q 335 328 335 371 q 392 285 335 285 l 824 285 q 963 142 963 285 q 825 0 963 0 l 288 0 z "},"":{"ha":1258,"x_min":67,"x_max":1236,"o":"m 210 0 q 67 142 67 0 l 67 894 q 108 999 67 963 q 208 1035 150 1035 q 308 999 267 1035 q 350 894 350 963 l 350 285 l 438 285 l 438 894 q 479 999 438 963 q 579 1035 521 1035 q 679 999 638 1035 q 721 894 721 963 l 721 285 l 775 285 l 957 931 q 1010 1012 974 989 q 1086 1035 1046 1035 q 1142 1025 1115 1035 q 1190 998 1169 1015 q 1224 956 1211 981 q 1236 903 1236 932 q 1229 857 1236 882 l 1028 136 q 967 35 1008 69 q 874 0 925 0 l 210 0 z "},"":{"ha":1257,"x_min":67,"x_max":1235,"o":"m 350 142 q 308 38 350 74 q 210 1 267 1 q 109 38 151 1 q 67 142 67 74 l 67 885 q 210 1026 67 1026 l 874 1026 q 916 1022 894 1026 q 958 1006 938 1018 q 994 974 978 994 q 1019 919 1010 953 l 1228 175 q 1233 153 1232 164 q 1235 131 1235 142 q 1222 76 1235 100 q 1189 34 1210 51 q 1140 7 1168 17 q 1083 -3 1113 -3 q 1005 22 1039 -3 q 956 101 971 47 l 775 742 l 721 742 l 721 142 q 679 38 721 74 q 581 1 638 1 q 480 38 522 1 q 438 142 438 74 l 438 742 l 350 742 l 350 142 z "},"":{"ha":949,"x_min":67,"x_max":894,"o":"m 399 371 l 350 371 l 350 138 q 206 -8 350 -8 q 101 28 133 -8 q 68 138 68 64 l 68 482 q 106 613 68 569 q 228 656 144 656 l 585 656 q 643 699 643 656 q 585 742 643 742 l 204 742 q 102 777 138 742 q 67 888 67 813 q 99 992 67 957 q 203 1026 132 1026 l 569 1026 q 889 717 889 1026 q 874 599 889 647 q 833 516 858 550 q 772 460 807 482 q 696 424 736 439 l 839 250 q 883 185 871 211 q 894 131 894 158 q 885 79 894 104 q 857 35 875 54 q 813 3 839 15 q 753 -8 786 -8 q 687 6 717 -8 q 635 51 657 21 l 399 371 z "}}}
